<svg xmlns="http://www.w3.org/2000/svg" width="263.074" height="58.771" viewBox="0 0 263.074 58.771">
  <g id="layer1" transform="translate(-0.412 -0.68)">
    <g id="g1695" transform="translate(60.958 9.895)">
      <path id="path1697" d="M0,0H5.6l7.712,23.031H13.4L21.283,0h5.474L16.243,29.1h-5.99Z" fill="#fff"/>
    </g>
    <path id="path1699" d="M16.735,2.345h5.386v29.1H16.735Z" transform="translate(74.041 7.55)" fill="#fff"/>
    <g id="g1701" transform="translate(102.756 9.895)">
      <path id="path1703" d="M0,0H5.386V24.7H21.029v4.4H0Z" fill="#fff"/>
    </g>
    <g id="g1705" transform="translate(123.914 9.894)">
      <path id="path1707" d="M8.119,14.363h9.4L12.9,1.849h-.129Zm1.9-17.53h5.73L27.6,25.94H21.823l-2.888-7.706H6.655L3.766,25.94H-1.79Z" transform="translate(1.79 3.167)" fill="#fff"/>
    </g>
    <g id="g1709" transform="translate(156.231 9.895)">
      <path id="path1711" d="M4.415,10.854h8.829c3.408,0,5.261-1.588,5.261-4.646,0-3.711-2.545-4.443-5.343-4.443H4.415ZM-.973-2.393h14.7c6.72,0,10.169,2.935,10.169,7.867,0,5.584-4.093,7.011-5.086,7.339v.082c1.851.244,4.566,1.547,4.566,6.154,0,3.384.519,6.484,1.681,7.663H19.279a7.737,7.737,0,0,1-.818-4.279c0-5.341-1.162-7.706-6.119-7.706H4.415V26.712H-.973Z" transform="translate(0.973 2.393)" fill="#fff"/>
    </g>
    <g id="g1713" transform="translate(186.568 9.895)">
      <path id="path1715" d="M0,0H22.147V4.4H5.386v7.622H20.9v4.158H5.386V24.7H22.447v4.4H0Z" fill="#fff"/>
    </g>
    <g id="g1717" transform="translate(210.138 9.894)">
      <path id="path1719" d="M8.121,14.363h9.394L12.9,1.849h-.127Zm1.9-17.53h5.73L27.6,25.94H21.825l-2.888-7.706H6.654L3.768,25.94H-1.79Z" transform="translate(1.79 3.167)" fill="#fff"/>
    </g>
    <g id="g1721" transform="translate(242.456 9.895)">
      <path id="path1723" d="M0,0H5.386V24.7H21.029v4.4H0Z" fill="#fff"/>
    </g>
    <g id="g1725" transform="translate(0.412 0.68)">
      <path id="path1727" d="M28.1,39.228A20.674,20.674,0,1,1,41.729,25.47l6.724,3.523a28.143,28.143,0,1,0-16.77,16.924Z" transform="translate(6.194 8.648)" fill="#fff"/>
    </g>
    <g id="g1729" transform="translate(70.952 44.093)">
      <path id="path1731" d="M3.378,7.03A4.119,4.119,0,0,1,1.73,6.7a4.08,4.08,0,0,1-1.308-.91A4.143,4.143,0,0,1-.436,4.438,4.5,4.5,0,0,1-.745,2.764V2.743a4.417,4.417,0,0,1,.312-1.66A4.366,4.366,0,0,1,.433-.286a4.114,4.114,0,0,1,1.308-.926A4.059,4.059,0,0,1,3.4-1.55a4.908,4.908,0,0,1,1,.1,3.936,3.936,0,0,1,.838.271,4.353,4.353,0,0,1,.723.424,6.682,6.682,0,0,1,.658.539L6.186.229a6.457,6.457,0,0,0-.57-.486,3.462,3.462,0,0,0-.633-.385A3.631,3.631,0,0,0,3.39-.991,3.374,3.374,0,0,0,.9.081a3.631,3.631,0,0,0-.732,1.18A3.888,3.888,0,0,0-.1,2.717v.025a4,4,0,0,0,.27,1.463A3.825,3.825,0,0,0,.907,5.389a3.4,3.4,0,0,0,1.109.795A3.316,3.316,0,0,0,3.4,6.475a3.431,3.431,0,0,0,1.562-.334,4.933,4.933,0,0,0,1.293-.957l.416.4a8.18,8.18,0,0,1-.684.586,4.1,4.1,0,0,1-.746.455,4.2,4.2,0,0,1-.859.3,4.522,4.522,0,0,1-1.008.105" transform="translate(0.745 1.55)" fill="#fff"/>
    </g>
    <g id="g1733" transform="translate(79.518 46.349)">
      <path id="path1735" d="M2.554,4.727a2.411,2.411,0,0,0,1-.205,2.449,2.449,0,0,0,.785-.557,2.526,2.526,0,0,0,.512-.818,2.774,2.774,0,0,0,.186-1V2.12A2.727,2.727,0,0,0,4.841,1.1,2.539,2.539,0,0,0,4.31.268,2.438,2.438,0,0,0,2.53-.487a2.386,2.386,0,0,0-.994.207A2.422,2.422,0,0,0,.749.274a2.556,2.556,0,0,0-.512.82,2.768,2.768,0,0,0-.182,1V2.12A2.718,2.718,0,0,0,.244,3.139a2.571,2.571,0,0,0,.531.832,2.466,2.466,0,0,0,.8.555,2.4,2.4,0,0,0,.98.2m-.023.555a2.969,2.969,0,0,1-1.238-.254A3.17,3.17,0,0,1,.316,4.35a3.105,3.105,0,0,1-.646-1A3.133,3.133,0,0,1-.563,2.145V2.12A3.136,3.136,0,0,1-.331.911,3.163,3.163,0,0,1,.322-.1,3.122,3.122,0,0,1,1.31-.788a3.016,3.016,0,0,1,1.244-.254,2.984,2.984,0,0,1,1.24.254,3.2,3.2,0,0,1,.976.68,3.088,3.088,0,0,1,.646.994,3.193,3.193,0,0,1,.23,1.209V2.12a3.168,3.168,0,0,1-.883,2.217,3.13,3.13,0,0,1-.99.691,3,3,0,0,1-1.244.254" transform="translate(0.563 1.042)" fill="#fff"/>
    </g>
    <g id="g1737" transform="translate(87.517 46.349)">
      <path id="path1739" d="M0,.114H.582V1.24a2.8,2.8,0,0,1,.83-.9A2.278,2.278,0,0,1,2.761-.025a2.717,2.717,0,0,1,1.019.18,2.176,2.176,0,0,1,.764.518,2.131,2.131,0,0,1,.475.787,3,3,0,0,1,.16,1v3.7H4.6V2.567a2.184,2.184,0,0,0-.5-1.5A1.8,1.8,0,0,0,2.678.5a2.129,2.129,0,0,0-.828.16,2.068,2.068,0,0,0-.664.445,2.019,2.019,0,0,0-.443.68,2.314,2.314,0,0,0-.16.873v3.5H0Z" transform="translate(0 0.025)" fill="#fff"/>
    </g>
    <g id="g1741" transform="translate(94.26 46.369)">
      <path id="path1743" d="M2.029,5.148A3.8,3.8,0,0,1,.7,4.9,4.173,4.173,0,0,1-.447,4.257L-.1,3.8a4.273,4.273,0,0,0,1.043.588,3.171,3.171,0,0,0,1.127.205A1.712,1.712,0,0,0,3.1,4.283a.99.99,0,0,0,.42-.842V3.417a.765.765,0,0,0-.131-.447,1.191,1.191,0,0,0-.355-.332,2.225,2.225,0,0,0-.51-.234c-.189-.064-.391-.129-.605-.191-.244-.07-.492-.146-.74-.225a2.988,2.988,0,0,1-.668-.3A1.511,1.511,0,0,1,.035,1.23,1.151,1.151,0,0,1-.149.556V.535A1.511,1.511,0,0,1,0-.135,1.652,1.652,0,0,1,.408-.662a1.914,1.914,0,0,1,.625-.348,2.531,2.531,0,0,1,.807-.125,3.784,3.784,0,0,1,1.121.182,3.785,3.785,0,0,1,1.025.5L3.677.027a4.138,4.138,0,0,0-.894-.439,2.977,2.977,0,0,0-.967-.166,1.542,1.542,0,0,0-1,.3.932.932,0,0,0-.375.75V.5A.683.683,0,0,0,.584.931a1.233,1.233,0,0,0,.373.312,2.851,2.851,0,0,0,.541.23c.2.068.412.133.627.2.244.072.486.148.723.23a2.715,2.715,0,0,1,.639.32,1.551,1.551,0,0,1,.457.467,1.234,1.234,0,0,1,.172.674v.023a1.622,1.622,0,0,1-.16.728,1.676,1.676,0,0,1-.443.557,2.059,2.059,0,0,1-.664.353,2.584,2.584,0,0,1-.818.125" transform="translate(0.447 1.135)" fill="#fff"/>
    </g>
    <g id="g1745" transform="translate(100.555 46.488)">
      <path id="path1747" d="M1.978,5.068A2.669,2.669,0,0,1,.96,4.886a2.128,2.128,0,0,1-.766-.516,2.161,2.161,0,0,1-.473-.789,2.983,2.983,0,0,1-.158-1v-3.7h.58V2.476a2.194,2.194,0,0,0,.494,1.5,1.8,1.8,0,0,0,1.424.564,2.109,2.109,0,0,0,.824-.16,2.036,2.036,0,0,0,.67-.443A2.077,2.077,0,0,0,4,3.25a2.273,2.273,0,0,0,.16-.869v-3.5h.58V4.927h-.58V3.8a2.806,2.806,0,0,1-.83.9,2.3,2.3,0,0,1-1.351.367" transform="translate(0.436 1.117)" fill="#fff"/>
    </g>
    <path id="path1749" d="M19.849,8.484h.582v8.65h-.582Z" transform="translate(88.168 35.398)" fill="#fff"/>
    <g id="g1751" transform="translate(110.33 44.555)">
      <path id="path1753" d="M2.106,6.623a2.283,2.283,0,0,1-.664-.094,1.431,1.431,0,0,1-.537-.3A1.392,1.392,0,0,1,.542,5.7a1.93,1.93,0,0,1-.129-.74V1.006H-.464V.473H.413V-1.46H.995V.473H3.116v.533H.995V4.9a1.079,1.079,0,0,0,.336.91,1.38,1.38,0,0,0,.871.26,1.9,1.9,0,0,0,.428-.047,2.65,2.65,0,0,0,.461-.154V6.41a2.593,2.593,0,0,1-.467.16,2.343,2.343,0,0,1-.518.053" transform="translate(0.464 1.46)" fill="#fff"/>
    </g>
    <g id="g1755" transform="translate(115.211 46.349)">
      <path id="path1757" d="M2.554,4.727a2.4,2.4,0,0,0,.994-.205,2.449,2.449,0,0,0,.785-.557,2.494,2.494,0,0,0,.512-.818,2.734,2.734,0,0,0,.187-1V2.12A2.766,2.766,0,0,0,4.841,1.1,2.571,2.571,0,0,0,4.31.268a2.449,2.449,0,0,0-.8-.555,2.412,2.412,0,0,0-.984-.2,2.37,2.37,0,0,0-.992.207A2.4,2.4,0,0,0,.749.274a2.561,2.561,0,0,0-.514.82,2.768,2.768,0,0,0-.182,1V2.12A2.758,2.758,0,0,0,.244,3.139a2.539,2.539,0,0,0,.531.832,2.458,2.458,0,0,0,.8.555,2.4,2.4,0,0,0,.982.2m-.025.555a2.96,2.96,0,0,1-1.236-.254A3.179,3.179,0,0,1,.314,4.35a3.138,3.138,0,0,1-.646-1,3.169,3.169,0,0,1-.23-1.207V2.12A3.168,3.168,0,0,1,.32-.1a3.122,3.122,0,0,1,.988-.691,3.025,3.025,0,0,1,1.246-.254,2.969,2.969,0,0,1,1.238.254,3.2,3.2,0,0,1,.976.68,3.088,3.088,0,0,1,.646.994,3.193,3.193,0,0,1,.23,1.209V2.12a3.171,3.171,0,0,1-.23,1.209,3.2,3.2,0,0,1-.65,1.008,3.152,3.152,0,0,1-.99.691,3.012,3.012,0,0,1-1.246.254" transform="translate(0.563 1.042)" fill="#fff"/>
    </g>
    <g id="g1759" transform="translate(123.21 46.391)">
      <path id="path1761" d="M0,.079H.58V1.8a3.5,3.5,0,0,1,.451-.746A2.977,2.977,0,0,1,1.648.464,2.608,2.608,0,0,1,2.4.1a2.658,2.658,0,0,1,.859-.115V.624H3.2a2.565,2.565,0,0,0-.994.2,2.351,2.351,0,0,0-.838.582,2.839,2.839,0,0,0-.574.947A3.622,3.622,0,0,0,.58,3.645V6.124H0Z" transform="translate(0 0.017)" fill="#fff"/>
    </g>
    <path id="path1763" d="M23.524,10.9h.58V16.94h-.58Zm-.072-2.369h.725V9.32h-.725Z" transform="translate(104.509 35.591)" fill="#fff"/>
    <g id="g1765" transform="translate(130.402 46.392)">
      <path id="path1767" d="M1.943,4.692a2.822,2.822,0,0,0,.877-.135,2.453,2.453,0,0,0,.728-.379,1.783,1.783,0,0,0,.5-.584,1.568,1.568,0,0,0,.184-.756V2.155c-.252-.064-.549-.125-.889-.186a7.1,7.1,0,0,0-1.16-.086A2.44,2.44,0,0,0,.7,2.266,1.207,1.207,0,0,0,.191,3.286v.025a1.165,1.165,0,0,0,.141.584,1.326,1.326,0,0,0,.385.43,1.771,1.771,0,0,0,.562.271,2.285,2.285,0,0,0,.664.1m-.037.555a3.067,3.067,0,0,1-.84-.115A2.461,2.461,0,0,1,.32,4.776a1.9,1.9,0,0,1-.539-.6,1.584,1.584,0,0,1-.209-.83V3.329a1.745,1.745,0,0,1,.2-.842,1.808,1.808,0,0,1,.539-.615,2.511,2.511,0,0,1,.828-.381,4.129,4.129,0,0,1,1.08-.127,7.757,7.757,0,0,1,1.1.068,7.912,7.912,0,0,1,.9.191v-.26A1.734,1.734,0,0,0,3.692-.015,2.158,2.158,0,0,0,2.228-.474a3.566,3.566,0,0,0-1.019.137,4.72,4.72,0,0,0-.877.35L.117-.5A6.168,6.168,0,0,1,1.124-.886a4.113,4.113,0,0,1,1.139-.148,2.585,2.585,0,0,1,1.91.666,2.317,2.317,0,0,1,.613,1.7V5.106H4.218V4.1a3.043,3.043,0,0,1-.373.422,2.494,2.494,0,0,1-.5.367,3.022,3.022,0,0,1-.644.262,2.975,2.975,0,0,1-.791.1" transform="translate(0.428 1.034)" fill="#fff"/>
    </g>
    <g id="g1769" transform="translate(140.842 46.348)">
      <path id="path1771" d="M4.116,2.357a3.382,3.382,0,0,0-.184-.881A2.429,2.429,0,0,0,3.516.728a2.007,2.007,0,0,0-.66-.521,2.033,2.033,0,0,0-.914-.2A2.019,2.019,0,0,0,1.1.191,2.052,2.052,0,0,0,.415.683a2.652,2.652,0,0,0-.48.744,2.846,2.846,0,0,0-.225.93ZM2.061,5.806A2.909,2.909,0,0,1-.023,4.941a3.008,3.008,0,0,1-.646-.994A3.388,3.388,0,0,1-.907,2.654V2.632A3.392,3.392,0,0,1-.689,1.406,3.174,3.174,0,0,1-.083.4,2.845,2.845,0,0,1,.823-.274,2.629,2.629,0,0,1,1.96-.52a2.636,2.636,0,0,1,1.15.24,2.6,2.6,0,0,1,.873.672,3.114,3.114,0,0,1,.557,1,3.909,3.909,0,0,1,.193,1.25v.125a.982.982,0,0,1-.01.113H-.29a2.644,2.644,0,0,0,.248,1,2.539,2.539,0,0,0,.535.744,2.126,2.126,0,0,0,.732.465,2.323,2.323,0,0,0,.859.16,2.445,2.445,0,0,0,1.207-.271A3.615,3.615,0,0,0,4.164,4.3l.4.355a4.129,4.129,0,0,1-1.051.824,2.969,2.969,0,0,1-1.455.324" transform="translate(0.907 0.52)" fill="#fff"/>
    </g>
    <g id="g1773" transform="translate(151.495 44.093)">
      <path id="path1775" d="M3.418,7.03a4.377,4.377,0,0,1-1.76-.336A3.773,3.773,0,0,1,.35,5.774,3.991,3.991,0,0,1-.468,4.418,4.78,4.78,0,0,1-.754,2.764V2.743A4.544,4.544,0,0,1-.463,1.124,4.207,4.207,0,0,1,.366-.245a4.07,4.07,0,0,1,1.3-.947A3.9,3.9,0,0,1,3.348-1.55a5.435,5.435,0,0,1,.93.074,3.965,3.965,0,0,1,.783.211,4.5,4.5,0,0,1,.685.344,5.583,5.583,0,0,1,.635.463L5.978,0A4.485,4.485,0,0,0,4.869-.706,3.717,3.717,0,0,0,3.311-.991,3.222,3.222,0,0,0,1.924-.7a3.371,3.371,0,0,0-1.082.8A3.636,3.636,0,0,0,.135,1.292a4.121,4.121,0,0,0-.248,1.42v.023a4.425,4.425,0,0,0,.242,1.49A3.388,3.388,0,0,0,.834,5.411a3.3,3.3,0,0,0,1.121.779,3.718,3.718,0,0,0,1.488.285A3.911,3.911,0,0,0,4.213,6.4,4.492,4.492,0,0,0,4.93,6.19a4.628,4.628,0,0,0,.635-.3,3.93,3.93,0,0,0,.521-.359V3.157H3.311V2.6H6.677V5.788a5.425,5.425,0,0,1-1.4.871,4.51,4.51,0,0,1-1.855.371" transform="translate(0.754 1.55)" fill="#fff"/>
    </g>
    <g id="g1777" transform="translate(160.608 46.348)">
      <path id="path1779" d="M4.116,2.357a3.382,3.382,0,0,0-.184-.881A2.47,2.47,0,0,0,3.516.728a2.048,2.048,0,0,0-.66-.521,2.039,2.039,0,0,0-.914-.2A2.006,2.006,0,0,0,1.1.191,2.033,2.033,0,0,0,.415.683a2.7,2.7,0,0,0-.482.744,2.9,2.9,0,0,0-.225.93ZM2.061,5.806A2.909,2.909,0,0,1-.023,4.941a3.013,3.013,0,0,1-.648-.994A3.425,3.425,0,0,1-.907,2.654V2.632A3.392,3.392,0,0,1-.689,1.406,3.174,3.174,0,0,1-.083.4a2.859,2.859,0,0,1,.9-.678A2.638,2.638,0,0,1,1.96-.52a2.627,2.627,0,0,1,1.148.24,2.6,2.6,0,0,1,.873.672,3.081,3.081,0,0,1,.559,1,3.964,3.964,0,0,1,.193,1.25v.125a.982.982,0,0,1-.01.113H-.292a2.644,2.644,0,0,0,.25,1,2.539,2.539,0,0,0,.535.744,2.126,2.126,0,0,0,.732.465,2.309,2.309,0,0,0,.859.16,2.443,2.443,0,0,0,1.2-.271A3.625,3.625,0,0,0,4.164,4.3l.4.355a4.154,4.154,0,0,1-1.049.824,2.974,2.974,0,0,1-1.455.324" transform="translate(0.907 0.52)" fill="#fff"/>
    </g>
    <g id="g1781" transform="translate(167.419 46.369)">
      <path id="path1783" d="M2.032,5.148A3.794,3.794,0,0,1,.7,4.9,4.226,4.226,0,0,1-.448,4.257L-.1,3.8a4.309,4.309,0,0,0,1.043.588,3.171,3.171,0,0,0,1.127.205A1.716,1.716,0,0,0,3.1,4.283a1,1,0,0,0,.42-.842V3.417a.751.751,0,0,0-.131-.447,1.231,1.231,0,0,0-.353-.332A2.28,2.28,0,0,0,2.528,2.4c-.189-.064-.389-.129-.6-.191-.246-.07-.492-.146-.74-.225a2.965,2.965,0,0,1-.67-.3,1.539,1.539,0,0,1-.48-.457A1.165,1.165,0,0,1-.149.556V.535A1.486,1.486,0,0,1,0-.135,1.668,1.668,0,0,1,.407-.662a1.955,1.955,0,0,1,.629-.348,2.51,2.51,0,0,1,.8-.125,3.807,3.807,0,0,1,1.123.182,3.76,3.76,0,0,1,1.021.5l-.3.484a4.2,4.2,0,0,0-.9-.439,2.966,2.966,0,0,0-.965-.166,1.554,1.554,0,0,0-1,.3.928.928,0,0,0-.371.75V.5A.693.693,0,0,0,.585.931a1.257,1.257,0,0,0,.373.312,2.851,2.851,0,0,0,.541.23c.205.068.414.133.627.2.246.072.486.148.723.23a2.768,2.768,0,0,1,.641.32,1.567,1.567,0,0,1,.455.467,1.234,1.234,0,0,1,.172.674v.023a1.6,1.6,0,0,1-.16.728,1.652,1.652,0,0,1-.443.557,2.059,2.059,0,0,1-.664.353,2.581,2.581,0,0,1-.816.125" transform="translate(0.448 1.135)" fill="#fff"/>
    </g>
    <g id="g1785" transform="translate(173.276 44.555)">
      <path id="path1787" d="M2.106,6.623a2.283,2.283,0,0,1-.664-.094,1.431,1.431,0,0,1-.537-.3A1.414,1.414,0,0,1,.542,5.7a1.894,1.894,0,0,1-.129-.74V1.006H-.464V.473H.413V-1.46h.58V.473H3.116v.533H.993V4.9a1.08,1.08,0,0,0,.34.91,1.378,1.378,0,0,0,.869.26,1.889,1.889,0,0,0,.428-.047,2.65,2.65,0,0,0,.461-.154V6.41a2.543,2.543,0,0,1-.467.16,2.331,2.331,0,0,1-.518.053" transform="translate(0.464 1.46)" fill="#fff"/>
    </g>
    <g id="g1789" transform="translate(178.075 44.272)">
      <path id="path1791" d="M.883.991a1.922,1.922,0,0,1,.4-.869.819.819,0,0,1,.594-.232.962.962,0,0,1,.365.078c.135.051.271.105.41.166l.4.166a.94.94,0,0,0,.344.076A.451.451,0,0,0,3.733.25a1.37,1.37,0,0,0,.256-.469l.4.107a1.952,1.952,0,0,1-.4.873.821.821,0,0,1-.594.228A1,1,0,0,1,3.028.914C2.893.864,2.758.807,2.619.748s-.271-.115-.4-.166A.932.932,0,0,0,1.879.506a.46.46,0,0,0-.338.121,1.389,1.389,0,0,0-.256.471ZM2.174,7.627a2.822,2.822,0,0,0,.877-.135,2.461,2.461,0,0,0,.73-.377,1.82,1.82,0,0,0,.5-.584,1.57,1.57,0,0,0,.184-.758V5.092c-.252-.066-.549-.127-.889-.186a7.07,7.07,0,0,0-1.16-.088A2.44,2.44,0,0,0,.936,5.2,1.216,1.216,0,0,0,.422,6.222v.023a1.159,1.159,0,0,0,.141.584,1.352,1.352,0,0,0,.385.432,1.892,1.892,0,0,0,.564.271,2.28,2.28,0,0,0,.662.094m-.035.557a3.07,3.07,0,0,1-.84-.117,2.45,2.45,0,0,1-.748-.355,1.893,1.893,0,0,1-.539-.594,1.606,1.606,0,0,1-.207-.83V6.264a1.759,1.759,0,0,1,.2-.84A1.815,1.815,0,0,1,.54,4.807a2.494,2.494,0,0,1,.832-.379A4.075,4.075,0,0,1,2.448,4.3a7.737,7.737,0,0,1,1.1.068,8.258,8.258,0,0,1,.9.191V4.3A1.739,1.739,0,0,0,3.924,2.92a2.154,2.154,0,0,0-1.465-.457A3.558,3.558,0,0,0,1.44,2.6a4.917,4.917,0,0,0-.877.35L.35,2.434a6.26,6.26,0,0,1,1.006-.385A4.125,4.125,0,0,1,2.494,1.9,2.573,2.573,0,0,1,4.4,2.569a2.3,2.3,0,0,1,.615,1.7V8.041H4.449V7.035a3.285,3.285,0,0,1-.373.422,2.382,2.382,0,0,1-.5.365,2.925,2.925,0,0,1-.644.264,3.042,3.042,0,0,1-.789.1" transform="translate(0.195 0.218)" fill="#fff"/>
    </g>
    <g id="g1793" transform="translate(184.958 46.349)">
      <path id="path1795" d="M2.555,4.727a2.4,2.4,0,0,0,.994-.205,2.449,2.449,0,0,0,.785-.557,2.526,2.526,0,0,0,.512-.818,2.774,2.774,0,0,0,.186-1V2.12A2.765,2.765,0,0,0,4.842,1.1,2.571,2.571,0,0,0,4.311.268a2.436,2.436,0,0,0-.8-.555,2.4,2.4,0,0,0-.982-.2,2.364,2.364,0,0,0-.992.207A2.43,2.43,0,0,0,.749.274a2.556,2.556,0,0,0-.512.82,2.768,2.768,0,0,0-.182,1V2.12A2.719,2.719,0,0,0,.245,3.139a2.507,2.507,0,0,0,.531.832,2.437,2.437,0,0,0,.8.555,2.4,2.4,0,0,0,.982.2m-.025.555a2.96,2.96,0,0,1-1.236-.254A3.156,3.156,0,0,1,.315,4.35a3.138,3.138,0,0,1-.646-1A3.17,3.17,0,0,1-.563,2.145V2.12A3.181,3.181,0,0,1,.321-.1a3.122,3.122,0,0,1,.988-.691,3.031,3.031,0,0,1,1.246-.254,2.982,2.982,0,0,1,1.238.254,3.2,3.2,0,0,1,.976.68,3.088,3.088,0,0,1,.646.994,3.193,3.193,0,0,1,.23,1.209V2.12a3.171,3.171,0,0,1-.23,1.209,3.2,3.2,0,0,1-.65,1.008,3.152,3.152,0,0,1-.99.691,3.012,3.012,0,0,1-1.246.254" transform="translate(0.563 1.042)" fill="#fff"/>
    </g>
    <g id="g1797" transform="translate(196.644 44.237)">
      <path id="path1799" d="M0,0H5.9V.557H.615V3.84H5.369V4.4H.615V7.738H5.96v.557H0Z" fill="#fff"/>
    </g>
    <g id="g1801" transform="translate(204.454 46.349)">
      <path id="path1803" d="M0,.114H.58v1.08A3.621,3.621,0,0,1,.906.737,2.236,2.236,0,0,1,1.328.346,1.976,1.976,0,0,1,1.877.073a2.314,2.314,0,0,1,.717-.1,2.255,2.255,0,0,1,.717.1,2.116,2.116,0,0,1,.576.285A2.028,2.028,0,0,1,4.318.78a2.891,2.891,0,0,1,.312.5A3.254,3.254,0,0,1,4.976.791,2.472,2.472,0,0,1,5.443.369,2.3,2.3,0,0,1,6.05.078a2.487,2.487,0,0,1,.762-.1,2.455,2.455,0,0,1,.965.18,2.161,2.161,0,0,1,.736.51,2.194,2.194,0,0,1,.463.795A3.239,3.239,0,0,1,9.136,2.5v3.66h-.58V2.567a2.229,2.229,0,0,0-.475-1.521A1.657,1.657,0,0,0,6.767.5a1.931,1.931,0,0,0-.73.143,1.746,1.746,0,0,0-.609.416,1.97,1.97,0,0,0-.416.668,2.537,2.537,0,0,0-.152.908V6.158H4.275V2.531A2.172,2.172,0,0,0,3.8,1.045,1.637,1.637,0,0,0,2.51.5a1.767,1.767,0,0,0-.758.168,1.9,1.9,0,0,0-.615.459,2.215,2.215,0,0,0-.408.689,2.378,2.378,0,0,0-.148.855V6.158H0Z" transform="translate(0 0.025)" fill="#fff"/>
    </g>
    <g id="g1805" transform="translate(215.723 46.349)">
      <path id="path1807" d="M2.471,4.727A2.43,2.43,0,0,0,3.4,4.549a2.136,2.136,0,0,0,.752-.512,2.386,2.386,0,0,0,.508-.81,2.993,2.993,0,0,0,.184-1.082V2.12a2.952,2.952,0,0,0-.191-1.08A2.418,2.418,0,0,0,4.139.218,2.26,2.26,0,0,0,3.379-.3a2.269,2.269,0,0,0-.908-.186A2.332,2.332,0,0,0,1.549-.3,2.482,2.482,0,0,0,.76.235,2.615,2.615,0,0,0,0,2.108v.023a2.662,2.662,0,0,0,.209,1.06A2.531,2.531,0,0,0,.76,4.01a2.491,2.491,0,0,0,.789.525,2.3,2.3,0,0,0,.922.191M-.545-.9H.033V.45A4.038,4.038,0,0,1,.475-.118a2.981,2.981,0,0,1,.551-.477A2.836,2.836,0,0,1,1.7-.921a2.617,2.617,0,0,1,.824-.121A2.826,2.826,0,0,1,3.6-.831a2.891,2.891,0,0,1,.943.617,3.041,3.041,0,0,1,.668.988,3.282,3.282,0,0,1,.254,1.32V2.12a3.269,3.269,0,0,1-.254,1.32,3.15,3.15,0,0,1-.668,1,2.919,2.919,0,0,1-.943.627,2.761,2.761,0,0,1-1.072.217A2.774,2.774,0,0,1,1.7,5.166a2.611,2.611,0,0,1-.682-.32,3.047,3.047,0,0,1-.545-.463,4.365,4.365,0,0,1-.436-.545v3.2H-.545Z" transform="translate(0.545 1.042)" fill="#fff"/>
    </g>
    <g id="g1809" transform="translate(223.545 46.391)">
      <path id="path1811" d="M0,.079H.58V1.8a3.414,3.414,0,0,1,.449-.746A2.977,2.977,0,0,1,1.646.464,2.594,2.594,0,0,1,2.4.1a2.639,2.639,0,0,1,.857-.115V.624H3.2a2.565,2.565,0,0,0-.994.2,2.386,2.386,0,0,0-.838.582,2.871,2.871,0,0,0-.574.947A3.623,3.623,0,0,0,.58,3.645V6.124H0Z" transform="translate(0 0.017)" fill="#fff"/>
    </g>
    <g id="g1813" transform="translate(227.869 46.348)">
      <path id="path1815" d="M4.117,2.357a3.384,3.384,0,0,0-.186-.881A2.47,2.47,0,0,0,3.516.728,2.04,2.04,0,0,0,2.858.207a2.051,2.051,0,0,0-.914-.2A2.015,2.015,0,0,0,1.1.191,2.052,2.052,0,0,0,.414.683a2.7,2.7,0,0,0-.48.744,2.848,2.848,0,0,0-.227.93ZM2.061,5.806A2.883,2.883,0,0,1,.926,5.581a2.852,2.852,0,0,1-.947-.641,2.982,2.982,0,0,1-.648-.994A3.388,3.388,0,0,1-.908,2.654V2.632A3.434,3.434,0,0,1-.689,1.406,3.108,3.108,0,0,1-.082.4a2.851,2.851,0,0,1,.9-.678A2.644,2.644,0,0,1,1.959-.52a2.636,2.636,0,0,1,1.15.24,2.578,2.578,0,0,1,.871.672,3.077,3.077,0,0,1,.557,1,3.909,3.909,0,0,1,.193,1.25v.125a.678.678,0,0,1-.01.113H-.293a2.609,2.609,0,0,0,.252,1,2.5,2.5,0,0,0,.535.744,2.147,2.147,0,0,0,.728.465,2.333,2.333,0,0,0,.861.16,2.432,2.432,0,0,0,1.2-.271A3.541,3.541,0,0,0,4.162,4.3l.4.355a4.163,4.163,0,0,1-1.051.824,2.969,2.969,0,0,1-1.455.324" transform="translate(0.908 0.52)" fill="#fff"/>
    </g>
    <g id="g1817" transform="translate(234.68 46.369)">
      <path id="path1819" d="M2.031,5.148A3.8,3.8,0,0,1,.7,4.9a4.214,4.214,0,0,1-1.15-.643L-.1,3.8a4.273,4.273,0,0,0,1.043.588,3.168,3.168,0,0,0,1.125.205A1.7,1.7,0,0,0,3.1,4.283a.987.987,0,0,0,.422-.842V3.417a.765.765,0,0,0-.131-.447,1.206,1.206,0,0,0-.353-.332,2.346,2.346,0,0,0-.51-.234c-.191-.064-.393-.129-.607-.191-.244-.07-.492-.146-.74-.225a2.911,2.911,0,0,1-.668-.3A1.491,1.491,0,0,1,.037,1.23,1.151,1.151,0,0,1-.149.556V.535A1.485,1.485,0,0,1,0-.135a1.674,1.674,0,0,1,.41-.527,1.945,1.945,0,0,1,.627-.348,2.519,2.519,0,0,1,.8-.125,3.767,3.767,0,0,1,1.123.182,3.785,3.785,0,0,1,1.025.5L3.679.027a4.153,4.153,0,0,0-.9-.439,2.957,2.957,0,0,0-.965-.166,1.548,1.548,0,0,0-1,.3.93.93,0,0,0-.373.75V.5A.683.683,0,0,0,.585.931a1.233,1.233,0,0,0,.373.312,2.8,2.8,0,0,0,.541.23c.2.068.412.133.627.2.244.072.484.148.723.23a2.753,2.753,0,0,1,.639.32,1.551,1.551,0,0,1,.457.467,1.234,1.234,0,0,1,.172.674v.023a1.622,1.622,0,0,1-.16.728,1.676,1.676,0,0,1-.443.557,2.059,2.059,0,0,1-.664.353,2.584,2.584,0,0,1-.818.125" transform="translate(0.448 1.135)" fill="#fff"/>
    </g>
    <g id="g1821" transform="translate(240.595 46.392)">
      <path id="path1823" d="M1.941,4.692a2.825,2.825,0,0,0,.879-.135,2.419,2.419,0,0,0,.727-.379,1.766,1.766,0,0,0,.5-.584,1.568,1.568,0,0,0,.184-.756V2.155c-.254-.064-.549-.125-.889-.186a7.1,7.1,0,0,0-1.16-.086A2.44,2.44,0,0,0,.7,2.266,1.2,1.2,0,0,0,.191,3.286v.025a1.165,1.165,0,0,0,.141.584,1.348,1.348,0,0,0,.385.43,1.781,1.781,0,0,0,.56.271,2.314,2.314,0,0,0,.664.1m-.033.555a3.071,3.071,0,0,1-.842-.115A2.461,2.461,0,0,1,.32,4.776a1.876,1.876,0,0,1-.539-.6,1.584,1.584,0,0,1-.209-.83V3.329a1.745,1.745,0,0,1,.2-.842,1.788,1.788,0,0,1,.539-.615,2.511,2.511,0,0,1,.828-.381,4.129,4.129,0,0,1,1.08-.127,7.757,7.757,0,0,1,1.1.068,7.912,7.912,0,0,1,.9.191v-.26A1.728,1.728,0,0,0,3.691-.015,2.155,2.155,0,0,0,2.226-.474a3.552,3.552,0,0,0-1.017.137,4.666,4.666,0,0,0-.877.35L.117-.5A6.168,6.168,0,0,1,1.125-.886a4.113,4.113,0,0,1,1.139-.148,2.581,2.581,0,0,1,1.908.666,2.31,2.31,0,0,1,.615,1.7V5.106H4.218V4.1a3.176,3.176,0,0,1-.373.422,2.494,2.494,0,0,1-.5.367,3.022,3.022,0,0,1-.644.262,2.981,2.981,0,0,1-.789.1" transform="translate(0.428 1.034)" fill="#fff"/>
    </g>
    <g id="g1825" transform="translate(247.895 46.391)">
      <path id="path1827" d="M0,.079H.58V1.8a3.414,3.414,0,0,1,.449-.746A2.986,2.986,0,0,1,1.648.464,2.56,2.56,0,0,1,2.4.1a2.639,2.639,0,0,1,.857-.115V.624H3.2a2.582,2.582,0,0,0-1,.2,2.361,2.361,0,0,0-.836.582,2.839,2.839,0,0,0-.574.947A3.622,3.622,0,0,0,.58,3.645V6.124H0Z" transform="translate(0 0.017)" fill="#fff"/>
    </g>
    <path id="path1829" d="M46.047,10.9h.582V16.94h-.582Zm-.072-2.369H46.7V9.32h-.723Z" transform="translate(206.671 35.591)" fill="#fff"/>
    <g id="g1831" transform="translate(255.089 46.392)">
      <path id="path1833" d="M1.941,4.692a2.822,2.822,0,0,0,.877-.135,2.453,2.453,0,0,0,.728-.379,1.806,1.806,0,0,0,.5-.584,1.569,1.569,0,0,0,.186-.756V2.155c-.256-.064-.551-.125-.891-.186a7.11,7.11,0,0,0-1.162-.086A2.44,2.44,0,0,0,.7,2.266,1.207,1.207,0,0,0,.187,3.286v.025a1.185,1.185,0,0,0,.141.584,1.372,1.372,0,0,0,.385.43,1.823,1.823,0,0,0,.564.271,2.294,2.294,0,0,0,.664.1m-.035.555a3.071,3.071,0,0,1-.842-.115,2.461,2.461,0,0,1-.746-.355,1.876,1.876,0,0,1-.539-.6,1.6,1.6,0,0,1-.207-.83V3.329A1.733,1.733,0,0,1,.3,1.872a2.552,2.552,0,0,1,.832-.381,4.113,4.113,0,0,1,1.078-.127,7.708,7.708,0,0,1,1.1.068,7.856,7.856,0,0,1,.9.191v-.26A1.735,1.735,0,0,0,3.689-.015,2.153,2.153,0,0,0,2.226-.474,3.57,3.57,0,0,0,1.2-.337a4.887,4.887,0,0,0-.877.35L.115-.5A6.236,6.236,0,0,1,1.123-.886a4.113,4.113,0,0,1,1.139-.148,2.584,2.584,0,0,1,1.908.666,2.3,2.3,0,0,1,.615,1.7V5.106H4.216V4.1a2.92,2.92,0,0,1-.373.422,2.494,2.494,0,0,1-.5.367,3.039,3.039,0,0,1-.646.262,2.955,2.955,0,0,1-.787.1" transform="translate(0.428 1.034)" fill="#fff"/>
    </g>
    <path id="path1835" d="M47.75,8.484h.58v8.65h-.58Z" transform="translate(214.721 35.398)" fill="#fff"/>
    <g id="g1837" transform="translate(30.287 30.651)">
      <path id="path1839" d="M0,0,15.44,28.8l4.746-8.62L28.8,15.091Z" fill="#fff"/>
    </g>
  </g>
</svg>
