<svg xmlns="http://www.w3.org/2000/svg" width="123.609" height="123.609" viewBox="0 0 123.609 123.609">
  <g id="Caminho_1764" data-name="Caminho 1764" fill="none">
    <path d="M61.8,0A61.8,61.8,0,1,1,0,61.8,61.8,61.8,0,0,1,61.8,0Z" stroke="none"/>
    <path d="M 61.8046989440918 2.999992370605469 C 53.86479187011719 2.999992370605469 46.16397094726562 4.554351806640625 38.91616821289062 7.619918823242188 C 35.43238830566406 9.09344482421875 32.07205963134766 10.91738891601562 28.92852020263672 13.0411376953125 C 25.81406402587891 15.14521026611328 22.88526153564453 17.56171417236328 20.22348022460938 20.22348022460938 C 17.56171417236328 22.88526153564453 15.14521026611328 25.81406402587891 13.0411376953125 28.92852020263672 C 10.91738891601562 32.07205963134766 9.09344482421875 35.43238830566406 7.619918823242188 38.91616821289062 C 4.554351806640625 46.16397094726562 2.999992370605469 53.86479187011719 2.999992370605469 61.8046989440918 C 2.999992370605469 69.74461364746094 4.554351806640625 77.44542694091797 7.619918823242188 84.69322204589844 C 9.09344482421875 88.17698669433594 10.91738891601562 91.53733825683594 13.0411376953125 94.68087768554688 C 15.14521026611328 97.79533386230469 17.56171417236328 100.72412109375 20.22348022460938 103.3858947753906 C 22.88526153564453 106.0476837158203 25.81406402587891 108.4641723632812 28.92852020263672 110.568244934082 C 32.07205963134766 112.6919860839844 35.43238830566406 114.5159530639648 38.91616821289062 115.9894638061523 C 46.16397094726562 119.0550231933594 53.86479187011719 120.6093902587891 61.8046989440918 120.6093902587891 C 66.44839477539062 120.6093902587891 71.07377624511719 120.0670471191406 75.5523681640625 118.9973907470703 C 79.8953857421875 117.9601364135742 84.12315368652344 116.4223709106445 88.11820983886719 114.4268264770508 C 92.03636932373047 112.4696807861328 95.73722839355469 110.0695877075195 99.11797332763672 107.2931900024414 C 102.475715637207 104.5356826782227 105.51611328125 101.4085159301758 108.154914855957 97.99832153320312 C 116.3026962280273 87.47068023681641 120.6093902587891 74.95511627197266 120.6093902587891 61.8046989440918 C 120.6093902587891 53.86479187011719 119.0550231933594 46.16397094726562 115.9894638061523 38.91616821289062 C 114.5159530639648 35.43238830566406 112.6919860839844 32.07205963134766 110.568244934082 28.92852020263672 C 108.4641723632812 25.81406402587891 106.0476837158203 22.88526153564453 103.3858947753906 20.22348022460938 C 100.72412109375 17.56171417236328 97.79533386230469 15.14521026611328 94.68087768554688 13.0411376953125 C 91.53733825683594 10.91738891601562 88.17698669433594 9.09344482421875 84.69322204589844 7.619918823242188 C 77.44542694091797 4.554351806640625 69.74461364746094 2.999992370605469 61.8046989440918 2.999992370605469 M 61.8046989440918 -7.62939453125e-06 C 95.93849945068359 -7.62939453125e-06 123.6093902587891 27.6708984375 123.6093902587891 61.8046989440918 C 123.6093902587891 76.03848266601562 118.797737121582 89.14844512939453 110.5273742675781 99.83446502685547 C 99.40802764892578 114.2043533325195 81.70469665527344 123.6093902587891 61.8046989440918 123.6093902587891 C 27.6708984375 123.6093902587891 -7.62939453125e-06 95.93849945068359 -7.62939453125e-06 61.8046989440918 C -7.62939453125e-06 27.6708984375 27.6708984375 -7.62939453125e-06 61.8046989440918 -7.62939453125e-06 Z" stroke="none" fill="#5178ed"/>
  </g>
</svg>
