<svg xmlns="http://www.w3.org/2000/svg" width="1440" height="195.332" viewBox="0 0 1440 195.332">
  <g id="divisória" transform="translate(0.438 -1883.392)">
    <g id="Caminho_1753" data-name="Caminho 1753" transform="translate(0.469 1910.63)" fill="#5178ed">
      <path d="M 1.500086665153503 125.8011245727539 L 1.500086665153503 -22.80233192443848 C 2.971757173538208 -20.91147041320801 4.999446868896484 -18.35391998291016 7.473541259765625 -15.35102462768555 C 12.4355411529541 -9.328479766845703 20.26881408691406 -0.2193886339664459 29.40681457519531 8.973520278930664 C 39.70081329345703 19.32933807373047 49.5224494934082 27.68224716186523 58.59917831420898 33.80043029785156 C 64.02117919921875 37.45497512817383 69.24044799804688 40.34679412841797 74.11208343505859 42.3955192565918 C 79.5291748046875 44.67351913452148 84.66027069091797 45.96897506713867 89.36281585693359 46.24570083618164 C 94.943359375 46.57406616210938 100.2477264404297 47.07442855834961 105.3773574829102 47.55806732177734 C 113.3375396728516 48.30879211425781 120.8562698364258 49.01788330078125 128.5309906005859 49.01788330078125 C 134.3302612304688 49.01788330078125 139.6697235107422 48.60588455200195 144.8542633056641 47.75806427001953 C 150.7799072265625 46.78915786743164 156.5299072265625 45.25661087036133 162.4324493408203 43.07279205322266 C 175.3260650634766 38.30266952514648 188.9956817626953 30.32602119445801 204.2027587890625 18.69565010070801 C 226.89794921875 27.99728965759277 249.4673004150391 36.47255706787109 271.29736328125 43.89097595214844 C 288.9702758789062 49.89661026000977 306.2020874023438 55.22733688354492 322.5140991210938 59.7349739074707 C 350.3146362304688 67.41733551025391 366.0353698730469 70.08206939697266 366.1910095214844 70.10806274414062 L 366.6871643066406 70.19097137451172 L 367.1329956054688 69.95806884765625 C 367.3577270507812 69.84078979492188 390.0440979003906 58.03624725341797 427.2497253417969 42.55570220947266 C 449.0986328125 33.4646110534668 471.6055297851562 24.90352058410645 494.1449890136719 17.11024856567383 C 522.0140991210938 7.473922252655029 550.0090942382812 -1.00826621055603 577.3724975585938 -8.107126235961914 C 580.5653686523438 -4.571298122406006 584.4570922851562 -1.180509209632874 588.953369140625 1.981338620185852 C 593.39697265625 5.10606575012207 598.5524291992188 8.092793464660645 604.2767944335938 10.85861110687256 C 614.3406372070312 15.72115707397461 626.5773315429688 20.09806632995605 640.6467895507812 23.86770248413086 C 666.2006225585938 30.7146110534668 693.1002807617188 34.34843063354492 710.9000854492188 36.75297546386719 C 716.7340698242188 37.54097366333008 721.7722778320312 38.22170257568359 725.4517211914062 38.83806610107422 C 727.075927734375 39.11015701293945 728.3677978515625 39.35807037353516 729.3784790039062 39.59173202514648 C 728.2006225585938 39.88486099243164 726.6304931640625 40.20258331298828 724.701904296875 40.53788375854492 C 720.3715209960938 41.29097366333008 714.1764526367188 42.15570068359375 705.2059326171875 43.259521484375 L 705.0297241210938 43.28115844726562 L 704.863525390625 43.34333801269531 C 693.830810546875 47.46952056884766 685.4146118164062 50.76570129394531 679.8484497070312 53.1402473449707 C 677.2655639648438 54.24224853515625 675.3035278320312 55.14406585693359 674.0169677734375 55.82097625732422 C 673.3408203125 56.17661285400391 672.840087890625 56.47515869140625 672.486083984375 56.7335205078125 C 671.298828125 57.60006713867188 671.4461059570312 58.41406631469727 671.4944458007812 58.6815185546875 C 671.5533447265625 59.00715637207031 671.8704223632812 60.06988525390625 673.475341796875 60.06988525390625 C 676.6715698242188 60.06988525390625 690.2986450195312 55.94079208374023 698.1370239257812 53.47951889038086 C 712.4422607421875 48.98770141601562 729.7080688476562 43.09697341918945 746.7542724609375 36.89242935180664 C 773.095458984375 27.30447769165039 821.4436645507812 8.735988616943359 850.2706909179688 -8.230677604675293 C 877.329345703125 -4.396427154541016 900.5469970703125 1.490538954734802 921.234619140625 9.761520385742188 C 939.2901000976562 16.98024749755859 952.7742919921875 24.94588470458984 964.6712036132812 31.97406578063965 C 974.4624633789062 37.75806427001953 983.7108154296875 43.22151947021484 993.6510009765625 47.09243011474609 C 1004.660095214844 51.37970352172852 1015.606994628906 53.37643051147461 1028.101318359375 53.37643051147461 C 1036.185913085938 53.37643051147461 1044.845581054688 52.54661178588867 1054.574829101562 50.83951950073242 C 1064.7724609375 49.05043029785156 1075.8662109375 46.34860992431641 1088.489868164062 42.5800666809082 C 1114.359375 34.85732269287109 1146.373779296875 22.66275978088379 1186.344360351562 5.305222034454346 C 1194.655883789062 13.29287624359131 1203.294189453125 20.32388687133789 1212.034057617188 26.21406555175781 C 1220.591918945312 31.98151969909668 1229.47021484375 36.80551910400391 1238.422607421875 40.55224609375 C 1246.901489257812 44.10079193115234 1255.6650390625 46.77424621582031 1264.469848632812 48.49861145019531 C 1272.76123046875 50.12242889404297 1281.299194335938 50.94570159912109 1289.847045898438 50.94570159912109 C 1299.820434570312 50.94570159912109 1310.078857421875 49.82588577270508 1320.336791992188 47.61715698242188 C 1329.651123046875 45.61151885986328 1339.173950195312 42.66370391845703 1348.640869140625 38.85552215576172 C 1364.561401367188 32.45115661621094 1380.621337890625 23.52533912658691 1396.374267578125 12.32642936706543 C 1410.377563476562 2.371338605880737 1421.54541015625 -7.578115940093994 1428.448120117188 -14.17157077789307 C 1431.971923828125 -17.53756713867188 1434.748657226562 -20.36666870117188 1436.7197265625 -22.44004249572754 C 1436.001220703125 -17.64540481567383 1435.021850585938 -9.331613540649414 1434.39794921875 3.216065883636475 C 1433.777221679688 15.69661140441895 1433.642211914062 29.79970169067383 1433.996826171875 45.13370132446289 C 1434.428955078125 63.83123397827148 1435.594360351562 84.42491912841797 1437.461547851562 106.3675155639648 L 1.500086665153503 125.8011245727539 Z" stroke="none"/>
      <path d="M 2.9998779296875 -18.47983551025391 L 2.9998779296875 124.2807464599609 L 1435.831176757812 104.8894958496094 C 1434.04052734375 83.51664733886719 1432.919311523438 63.44000244140625 1432.496948242188 45.16843795776367 C 1432.141723632812 29.79825592041016 1432.277221679688 15.65843963623047 1432.899536132812 3.141708374023438 C 1433.36181640625 -6.153099060058594 1434.02099609375 -13.15348052978516 1434.627075195312 -18.13311004638672 C 1433.143676757812 -16.63612365722656 1431.426025390625 -14.94187164306641 1429.484130859375 -13.08683776855469 C 1422.545532226562 -6.459197998046875 1411.319702148438 3.541893005371094 1397.243408203125 13.54898071289062 C 1381.394287109375 24.81625366210938 1365.23046875 33.79879760742188 1349.20068359375 40.24716567993164 C 1339.655029296875 44.08716583251953 1330.049926757812 47.06007385253906 1320.652465820312 49.08352661132812 C 1310.291015625 51.31443786621094 1299.926513671875 52.44570922851562 1289.847045898438 52.44570922851562 C 1281.20263671875 52.44570922851562 1272.567749023438 51.61298370361328 1264.181762695312 49.97061920166016 C 1255.27734375 48.22679901123047 1246.415893554688 45.52352905273438 1237.843383789062 41.93589019775391 C 1228.800659179688 38.15134811401367 1219.8349609375 33.28025817871094 1211.195678710938 27.45789337158203 C 1202.638061523438 21.69063568115234 1194.178588867188 14.83975982666016 1186.027587890625 7.077987670898438 C 1146.427001953125 24.24876403808594 1114.6484375 36.33631134033203 1088.9189453125 44.01752853393555 C 1076.23876953125 47.80279922485352 1065.089599609375 50.5177116394043 1054.834106445312 52.31698226928711 C 1045.01806640625 54.03916549682617 1036.273681640625 54.87643814086914 1028.101318359375 54.87643814086914 C 1015.414672851562 54.87643814086914 1004.294799804688 52.84716415405273 993.1068115234375 48.49025344848633 C 983.0528564453125 44.57498168945312 973.7535400390625 39.08152770996094 963.9082641601562 33.26552581787109 C 952.057861328125 26.26480102539062 938.6262817382812 18.33025360107422 920.677734375 11.15443420410156 C 900.2342529296875 2.980987548828125 877.2957153320312 -2.853195190429688 850.577880859375 -6.671821594238281 C 821.596435546875 10.2835693359375 773.5195922851562 28.74631500244141 747.2671508789062 38.3018913269043 C 730.2008056640625 44.51389312744141 712.9122924804688 50.41225433349609 698.5862426757812 54.91061782836914 C 692.1409912109375 56.93461990356445 686.5028076171875 58.6053466796875 682.2815551757812 59.74261856079102 C 676.2691650390625 61.36225509643555 674.4171752929688 61.56989288330078 673.475341796875 61.56989288330078 C 671.2737426757812 61.56989288330078 670.2371826171875 60.15771102905273 670.0184326171875 58.94843673706055 C 669.8466186523438 57.99880218505859 670.1129760742188 57.05061721801758 670.7682495117188 56.27861785888672 C 670.9907836914062 56.01643753051758 671.2633666992188 55.76898193359375 671.6019287109375 55.52189254760742 C 672.0211791992188 55.21589279174805 672.5668334960938 54.88898086547852 673.318603515625 54.49352645874023 C 674.6409912109375 53.79771041870117 676.639892578125 52.87825393676758 679.2598876953125 51.7606201171875 C 684.8468017578125 49.37716293334961 693.2842407226562 46.0726203918457 704.3380737304688 41.93843841552734 L 704.6704711914062 41.81407165527344 L 705.0226440429688 41.7706184387207 C 711.6494140625 40.95529556274414 716.8699340820312 40.254150390625 720.8546752929688 39.64340972900391 C 717.9134521484375 39.21395111083984 714.4810180664062 38.75028228759766 710.6991577148438 38.23934555053711 C 692.8613891601562 35.8297119140625 665.90478515625 32.18807220458984 640.2584228515625 25.31661987304688 C 626.0982666015625 21.52243804931641 613.7726440429688 17.11261749267578 603.624267578125 12.20916748046875 C 597.8268432617188 9.408073425292969 592.6004638671875 6.379707336425781 588.0904541015625 3.208251953125 C 583.7880249023438 0.1826400756835938 580.0238647460938 -3.052947998046875 576.8768920898438 -6.428581237792969 C 549.8385620117188 0.6116867065429688 522.1876220703125 9.001876831054688 494.6615600585938 18.518798828125 C 472.155517578125 26.29988861083984 449.681884765625 34.84770965576172 427.8648071289062 43.9244384765625 C 390.7086181640625 59.3828010559082 368.0518798828125 71.17044067382812 367.8275146484375 71.28771209716797 L 366.9359130859375 71.75352478027344 L 365.9434814453125 71.5875244140625 C 365.30517578125 71.48080444335938 349.9913330078125 68.88425445556641 322.1146240234375 61.18080139160156 C 305.774658203125 56.66552734375 288.5150146484375 51.32625579833984 270.8145751953125 45.31116485595703 C 249.2108154296875 37.9697380065918 226.884521484375 29.59467315673828 204.4293212890625 20.4091796875 C 189.375732421875 31.84800720214844 175.793701171875 39.72910308837891 162.9530029296875 44.47970962524414 C 156.958984375 46.69734573364258 151.1180419921875 48.25389099121094 145.0963134765625 49.23843765258789 C 139.830810546875 50.09934616088867 134.4122314453125 50.51789093017578 128.531005859375 50.51789093017578 C 120.785400390625 50.51789093017578 113.2322998046875 49.80552673339844 105.235595703125 49.05152893066406 C 100.119140625 48.5689811706543 94.8284912109375 48.06989288330078 89.2747802734375 47.74298095703125 C 84.40185546875 47.45625686645508 79.1048583984375 46.12225723266602 73.5306396484375 43.77825546264648 C 68.5692138671875 41.69189071655273 63.2635498046875 38.75334548950195 57.7606201171875 35.04425811767578 C 48.6031494140625 28.87152862548828 38.70556640625 20.45589447021484 28.3427734375 10.03098297119141 C 19.1639404296875 0.7969818115234375 11.298095703125 -8.349929809570312 6.315673828125 -14.39720153808594 C 5.093994140625 -15.88001251220703 3.9857177734375 -17.24795532226562 2.9998779296875 -18.47983551025391 M -0.0001220703125 -27.23810577392578 C -0.0001220703125 -27.23810577392578 51.4378662109375 42.51098251342773 89.4510498046875 44.74825668334961 C 103.6571044921875 45.58436584472656 115.96875 47.51791381835938 128.531005859375 47.51791381835938 C 149.5828857421875 47.51791381835938 171.347412109375 42.09217071533203 203.97412109375 16.98043823242188 C 304.5272216796875 58.27298355102539 366.4384765625 68.62861633300781 366.4384765625 68.62861633300781 C 366.4384765625 68.62861633300781 456.4795532226562 21.59007263183594 577.8848266601562 -9.789382934570312 C 624.0089721679688 43.08243560791016 800.0062866210938 33.10697937011719 705.3889770507812 44.74825668334961 C 679.3010864257812 54.50531387329102 670.6663208007812 58.56990051269531 673.4752807617188 58.56990051269531 C 682.1517944335938 58.56990051269531 800.0128784179688 19.79087066650391 849.9602661132812 -9.789382934570312 C 962.6783447265625 6.045211791992188 969.0078125 51.87644958496094 1028.101440429688 51.87644958496094 C 1058.97998046875 51.87644958496094 1104.259887695312 39.36876678466797 1186.66552734375 3.530258178710938 C 1221.528564453125 37.34500122070312 1256.971801757812 49.44571685791016 1289.846923828125 49.44571685791016 C 1372.606567382812 49.44571685791016 1439.093505859375 -27.23810577392578 1439.093505859375 -27.23810577392578 C 1439.093505859375 -27.23810577392578 1430.56640625 9.144073486328125 1439.093505859375 107.8455276489258 L -0.0001220703125 127.3215255737305 L -0.0001220703125 -27.23810577392578 Z" stroke="none" fill="#fff"/>
    </g>
    <g id="Caminho_1752" data-name="Caminho 1752" transform="translate(0 1942.198)" fill="#3b58ad">
      <path d="M 1.035193800926208 126.3075942993164 C 1.167899131774902 120.3143615722656 1.837779760360718 89.27643585205078 2.222204208374023 56.1548957824707 C 2.472567796707153 34.59543991088867 2.554749727249146 16.38416862487793 2.466567754745483 2.026713371276855 C 2.388847351074219 -10.61067008972168 2.177873134613037 -20.27913665771484 1.83712911605835 -26.86421394348145 C 3.109103202819824 -24.13418769836426 4.88521671295166 -20.87112045288086 7.335840702056885 -17.31110572814941 C 12.72293186187744 -9.485104560852051 19.81547737121582 -2.417832136154175 28.41656875610352 3.694349765777588 C 39.41093063354492 11.5074405670166 52.79020309448242 17.66925811767578 68.18257141113281 22.00871276855469 C 77.011474609375 24.49762153625488 86.63656616210938 26.41780471801758 96.79038238525391 27.71580505371094 C 107.7789306640625 29.12053108215332 119.6711120605469 29.83289527893066 132.1367492675781 29.83289527893066 C 142.5703887939453 29.83289527893066 153.6556549072266 29.33362197875977 165.0845642089844 28.34907722473145 C 177.1162109375 27.31271362304688 189.8598480224609 25.70980453491211 202.9614715576172 23.58489608764648 C 216.7043914794922 21.35616874694824 231.2214813232422 18.49143981933594 246.1094818115234 15.07034969329834 C 261.6769409179688 11.49307727813721 278.0823974609375 7.208168029785156 294.8702087402344 2.334713459014893 C 310.5182189941406 -2.208013772964478 325.7542114257812 -6.204013824462891 340.1549377441406 -9.542559623718262 C 354.1532897949219 -12.78783226013184 367.7789306640625 -15.50837707519531 380.6532897949219 -17.62837791442871 C 393.1343994140625 -19.6838321685791 405.2853088378906 -21.23674201965332 416.7682189941406 -22.24401473999023 C 427.8641967773438 -23.21728706359863 438.6758422851562 -23.71074104309082 448.9025573730469 -23.71074104309082 C 459.6629333496094 -23.71074104309082 470.1343994140625 -23.16455841064453 480.0258483886719 -22.08746910095215 C 489.4529418945312 -21.06074142456055 498.6669311523438 -19.51728630065918 507.4122009277344 -17.50001335144043 C 515.6803588867188 -15.59255886077881 523.8211059570312 -13.19383239746094 531.6080322265625 -10.37019538879395 C 538.8883666992188 -7.730377674102783 546.1401977539062 -4.616559505462646 553.161865234375 -1.115468382835388 C 559.705810546875 2.147440671920776 566.0707397460938 5.734713554382324 572.620361328125 9.851259231567383 C 578.4613037109375 13.52253150939941 584.318359375 17.53507614135742 590.5260009765625 22.11816787719727 C 602.0733032226562 30.64344024658203 613.135498046875 39.92234802246094 623.83349609375 48.89580535888672 C 637.116943359375 60.03798675537109 650.8525390625 71.55925750732422 665.7919921875 81.89125823974609 C 673.84619140625 87.46144104003906 681.5844116210938 92.24125671386719 689.4483642578125 96.50362396240234 C 698.283447265625 101.292350769043 707.0458374023438 105.308349609375 716.2362060546875 108.780891418457 L 716.6989135742188 108.9558029174805 L 717.1185913085938 108.6941680908203 C 740.8674926757812 93.89107513427734 761.691650390625 76.62907409667969 781.8302001953125 59.93562316894531 C 794.4600219726562 49.46616744995117 807.52001953125 38.64035034179688 820.9544067382812 28.74489593505859 C 828.173828125 23.42707633972168 834.94677734375 18.7756233215332 841.660400390625 14.5243501663208 C 849.1827392578125 9.760894775390625 856.4465942382812 5.612895011901855 863.8673095703125 1.843077063560486 C 871.8229370117188 -2.19837760925293 879.9869384765625 -5.790923118591309 888.1323852539062 -8.834377288818359 C 896.8363647460938 -12.08674144744873 905.8818359375 -14.84855937957764 915.0169067382812 -17.04328727722168 C 924.669677734375 -19.3625602722168 934.7861938476562 -21.13637733459473 945.0850830078125 -22.31565093994141 C 955.8814697265625 -23.5520133972168 967.258544921875 -24.17874145507812 978.900390625 -24.17874145507812 C 989.3643798828125 -24.17874145507812 1000.361999511719 -23.67328643798828 1011.587646484375 -22.67637825012207 C 1023.178405761719 -21.64692306518555 1035.379516601562 -20.06110572814941 1047.85205078125 -17.96292304992676 C 1060.691284179688 -15.80292320251465 1074.217895507812 -13.03274154663086 1088.055786132812 -9.72946834564209 C 1102.264526367188 -6.337650299072266 1117.238159179688 -2.279650211334229 1132.560424804688 2.33198618888855 C 1152.158935546875 8.230531692504883 1171.210327148438 13.41944026947021 1189.185424804688 17.75435066223145 C 1206.372924804688 21.89944076538086 1223.025146484375 25.37198638916016 1238.679077148438 28.07544136047363 C 1253.604736328125 30.65325927734375 1268.0078125 32.59852981567383 1281.488403320312 33.85725784301758 C 1294.301147460938 35.05344009399414 1306.605712890625 35.6601676940918 1318.060424804688 35.6601676940918 C 1337.887084960938 35.6601676940918 1355.805419921875 33.85198593139648 1371.31787109375 30.28580474853516 C 1385.129638671875 27.11053085327148 1397.22021484375 22.50362205505371 1407.253784179688 16.5928955078125 C 1416.03369140625 11.42071342468262 1423.267333984375 5.244894981384277 1428.75341796875 -1.763104796409607 C 1431.186889648438 -4.871468544006348 1433.281127929688 -8.156923294067383 1434.978149414062 -11.52801418304443 C 1435.597412109375 -12.75833797454834 1436.166015625 -14.00403308868408 1436.681762695312 -15.25979900360107 C 1436.638427734375 23.81537246704102 1437.923706054688 97.39247131347656 1438.092407226562 106.8592147827148 L 1.035193800926208 126.3075942993164 Z" stroke="none"/>
      <path d="M 978.9005737304688 -23.17874145507812 C 967.29638671875 -23.17801666259766 955.95751953125 -22.55274200439453 945.1986083984375 -21.32019805908203 C 934.9398193359375 -20.14492034912109 924.8636474609375 -18.37783050537109 915.25 -16.06783294677734 C 906.1541748046875 -13.88219451904297 897.1478271484375 -11.13201522827148 888.4816284179688 -7.893650054931641 C 880.37109375 -4.863105773925781 872.2416381835938 -1.285648345947266 864.3192749023438 2.738895416259766 C 856.9269409179688 6.494167327880859 849.6898193359375 10.6270751953125 842.1942138671875 15.37343978881836 C 835.500732421875 19.6118049621582 828.7467651367188 24.2503490447998 821.5462036132812 29.55380439758301 C 808.134765625 39.43216705322266 795.0859985351562 50.2481689453125 782.4669189453125 60.70816802978516 C 762.3032836914062 77.42179870605469 741.453125 94.704345703125 717.6476440429688 109.5427169799805 L 716.8080444335938 110.0659866333008 L 715.8827514648438 109.7163467407227 C 706.6498413085938 106.2276229858398 697.8472900390625 102.1932601928711 688.9722290039062 97.38271331787109 C 681.0760498046875 93.10271453857422 673.3080444335938 88.30416870117188 665.2238159179688 82.71307373046875 C 650.2463989257812 72.35417175292969 636.492919921875 60.81689453125 623.1921997070312 49.65943908691406 C 612.5069580078125 40.6961669921875 601.4578247070312 31.4276237487793 589.9369506835938 22.92089462280273 C 583.7501831054688 18.35289573669434 577.9140014648438 14.35416793823242 572.0950927734375 10.696533203125 C 565.5745849609375 6.597805023193359 559.2385864257812 3.026531219482422 552.7252807617188 -0.2214698791503906 C 545.7385864257812 -3.705467224121094 538.5234985351562 -6.804012298583984 531.280029296875 -9.430740356445312 C 523.5322265625 -12.24055862426758 515.4318237304688 -14.62765121459961 507.2042236328125 -16.5260124206543 C 498.498779296875 -18.53437805175781 489.32568359375 -20.07110595703125 479.9392700195312 -21.09346771240234 C 470.08544921875 -22.16655731201172 459.652587890625 -22.71073913574219 448.9271240234375 -22.71073913574219 L 448.9027709960938 -22.71073913574219 C 438.7044067382812 -22.70983123779297 427.9219970703125 -22.21728515625 416.85546875 -21.24637603759766 C 405.39697265625 -20.24110412597656 393.271240234375 -18.69146728515625 380.8157958984375 -16.64056015014648 C 367.961669921875 -14.52401351928711 354.3572998046875 -11.80801391601562 340.3807373046875 -8.568012237548828 C 325.9969482421875 -5.233650207519531 310.77880859375 -1.242378234863281 295.149169921875 3.295078277587891 C 278.34326171875 8.173805236816406 261.9193115234375 12.463623046875 246.33349609375 16.04507637023926 C 231.4244384765625 19.47089576721191 216.8858642578125 22.33980369567871 203.1217041015625 24.57216835021973 C 189.9952392578125 26.70089530944824 177.226806640625 28.30689430236816 165.17041015625 29.34543991088867 C 153.713134765625 30.3325309753418 142.598876953125 30.83289527893066 132.13671875 30.83289527893066 C 119.62890625 30.83289527893066 107.69384765625 30.11798477172852 96.6634521484375 28.70780563354492 C 86.4609375 27.40344047546387 76.787353515625 25.47344017028809 67.9112548828125 22.97125816345215 C 52.408203125 18.6007137298584 38.92529296875 12.38925933837891 27.837158203125 4.509620666503906 C 19.140625 -1.670742034912109 11.9656982421875 -8.821468353271484 6.51220703125 -16.74401473999023 C 5.162109375 -18.70542526245117 4.0133056640625 -20.57895660400391 3.0380859375 -22.32661437988281 C 3.590087890625 -7.199760437011719 3.6527099609375 19.08310699462891 3.22216796875 56.16653060913086 C 2.8560791015625 87.69772338867188 2.2315673828125 117.3423385620117 2.0577392578125 125.293571472168 L 1437.074584960938 105.872802734375 C 1436.857788085938 93.59195709228516 1435.731811523438 28.04873085021973 1435.68212890625 -10.70604705810547 C 1433.990112304688 -7.406486511230469 1431.925170898438 -4.192356109619141 1429.540771484375 -1.146377563476562 C 1423.977172851562 5.960350036621094 1416.649536132812 12.21871185302734 1407.761474609375 17.45453071594238 C 1397.6396484375 23.41725921630859 1385.45361328125 28.06234931945801 1371.5419921875 31.26034927368164 C 1363.96826171875 33.00162124633789 1355.758544921875 34.33889389038086 1347.140869140625 35.23507690429688 C 1338.04931640625 36.18071365356445 1328.265258789062 36.6601676940918 1318.060424804688 36.6601676940918 C 1306.57470703125 36.6601676940918 1294.238891601562 36.05216979980469 1281.3955078125 34.8528938293457 C 1267.88916015625 33.59180450439453 1253.4599609375 31.6430778503418 1238.508911132812 29.06089401245117 C 1222.83349609375 26.35362243652344 1206.15966796875 22.87671279907227 1188.950927734375 18.72653198242188 C 1170.957885742188 14.38725852966309 1151.888427734375 9.193439483642578 1132.272216796875 3.289440155029297 C 1116.96923828125 -1.316196441650391 1102.016723632812 -5.368923187255859 1087.829833984375 -8.756015777587891 C 1074.014892578125 -12.05419540405273 1060.512939453125 -14.81983184814453 1047.69873046875 -16.9761962890625 C 1035.253173828125 -19.07037734985352 1023.080017089844 -20.65310668945312 1011.517456054688 -21.68019866943359 C 1000.322021484375 -22.67474365234375 989.35546875 -23.17892456054688 978.9222412109375 -23.17874145507812 L 978.9005737304688 -23.17874145507812 M 1438.418090820312 -39.81740570068359 C 1438.605346679688 -39.81740570068359 1438.834228515625 -38.51445770263672 1439.109985351562 -35.67001342773438 C 1439.511474609375 -31.52988433837891 1439.152465820312 -26.60783386230469 1437.700927734375 -21.32048797607422 C 1437.763793945312 -32.58275604248047 1437.976196289062 -39.81740570068359 1438.418090820312 -39.81740570068359 Z M -0.403564453125 -37.07435607910156 C -0.3375244140625 -37.07377624511719 -0.181396484375 -36.62989807128906 0.01220703125 -35.67001342773438 C 0.130615234375 -35.08314514160156 0.240478515625 -34.33526611328125 0.342529296875 -33.43643188476562 C -0.361572265625 -35.73471832275391 -0.5185546875 -37.07536315917969 -0.403564453125 -37.07435607910156 Z M 0.342529296875 -33.43643188476562 C 4.5758056640625 -19.62020874023438 28.58642578125 28.83280944824219 132.1368408203125 28.83280944824219 C 172.8101806640625 28.83280944824219 225.7508544921875 21.35898971557617 294.5914306640625 1.374351501464844 C 358.40478515625 -17.15084075927734 408.406005859375 -24.70738220214844 448.9024658203125 -24.71080017089844 C 592.4544067382812 -24.72290802001953 616.892578125 70.17453002929688 716.5896606445312 107.8454437255859 C 800.3859252929688 55.61396026611328 845.1182861328125 -25.17015838623047 978.900390625 -25.17877197265625 C 1020.385009765625 -25.18144989013672 1070.4130859375 -17.41703033447266 1132.8486328125 1.374351501464844 C 1213.235473632812 25.56866836547852 1273.393188476562 34.66009521484375 1318.060302734375 34.66009521484375 C 1401.669189453125 34.66009521484375 1431.067138671875 2.843578338623047 1437.700927734375 -21.32048797607422 C 1437.479614257812 18.30640029907227 1439.109985351562 107.8454437255859 1439.109985351562 107.8454437255859 L 0.01220703125 127.3214416503906 C 0.01220703125 127.3214416503906 3.129150390625 -8.900886535644531 0.342529296875 -33.43643188476562 Z" stroke="none" fill="#fff"/>
    </g>
    <g id="Caminho_1751" data-name="Caminho 1751" transform="translate(0.016 1978.724)" fill="#5178ed">
      <path d="M 1438.09375 98.99996185302734 L 1.000086665153503 98.99996185302734 L 1.000086665153503 8.21458911895752 C 1.718348741531372 7.594414234161377 3.625774383544922 6.007467746734619 6.670632362365723 3.897597312927246 C 10.30554103851318 1.378870010375977 16.35099601745605 -2.421675443649292 24.51045036315918 -6.223857402801514 C 33.67972183227539 -10.49640274047852 43.59590530395508 -13.90076637268066 53.98353958129883 -16.34222030639648 C 66.96917724609375 -19.39422035217285 80.73354339599609 -20.94185638427734 94.89427185058594 -20.94185638427734 C 104.7159042358398 -20.94185638427734 114.8855438232422 -20.19367599487305 125.1206283569336 -18.71822166442871 C 136.2982635498047 -17.10694885253906 147.8433532714844 -14.58640289306641 159.4351806640625 -11.22640228271484 C 183.8475341796875 -4.150584697723389 210.7837219238281 3.338688135147095 242.3080902099609 10.1668701171875 C 275.4053649902344 17.33559799194336 310.281005859375 23.02996063232422 348.9281005859375 27.57523345947266 C 393.4942626953125 32.81668853759766 443.6793518066406 36.64341735839844 502.3509826660156 39.27450561523438 C 533.5527954101562 40.67377853393555 567.6961059570312 41.74177932739258 603.8324584960938 42.44887161254883 C 641.3251953125 43.1825065612793 682.3206176757812 43.55450820922852 725.679931640625 43.55450820922852 C 796.9320678710938 43.55450820922852 855.436279296875 42.66196060180664 904.5357055664062 40.82577896118164 C 950.0516967773438 39.12359619140625 987.8781127929688 36.58469009399414 1020.176086425781 33.06414413452148 C 1048.4189453125 29.98559761047363 1073.002807617188 26.12214279174805 1097.54248046875 20.90559768676758 C 1119.711669921875 16.19286918640137 1140.012084960938 10.75905227661133 1161.504272460938 5.006324768066406 C 1180.743896484375 -0.1434936076402664 1200.638793945312 -5.468766212463379 1225.028442382812 -11.2136754989624 C 1242.973876953125 -15.44058418273926 1260.873901367188 -18.60403823852539 1278.231201171875 -20.61585807800293 C 1293.8310546875 -22.42422103881836 1309.321044921875 -23.34112930297852 1324.270874023438 -23.34112930297852 C 1341.220825195312 -23.34112930297852 1357.7861328125 -22.1685848236084 1373.506225585938 -19.85640335083008 C 1386.076416015625 -18.00731086730957 1398.136596679688 -15.42967510223389 1409.351684570312 -12.19513034820557 C 1426.003051757812 -7.392416000366211 1435.813232421875 -2.552961826324463 1438.09375 -1.369303822517395 L 1438.09375 98.99996185302734 Z" stroke="none"/>
      <path d="M 1324.270751953125 -24.34113311767578 L 1324.270751953125 -22.34113311767578 C 1309.358154296875 -22.34058380126953 1293.906860351562 -21.42585754394531 1278.346313476562 -19.62222290039062 C 1261.026489257812 -17.61476898193359 1243.164794921875 -14.45822143554688 1225.257690429688 -10.24021911621094 C 1200.882568359375 -4.498767852783203 1180.995361328125 0.8243255615234375 1161.7626953125 5.972324371337891 C 1140.257568359375 11.72850799560547 1119.945068359375 17.16559600830078 1097.750244140625 21.8837776184082 C 1073.1767578125 27.1074161529541 1048.5615234375 30.97596168518066 1020.284301757812 34.05832672119141 C 987.9624633789062 37.58141326904297 950.11279296875 40.1219596862793 904.572998046875 41.82505035400391 C 855.4609985351562 43.66159820556641 796.9446411132812 44.55450439453125 725.679931640625 44.55450439453125 C 682.3140869140625 44.55450439453125 641.3120727539062 44.1825065612793 603.8128051757812 43.44868850708008 C 567.6680908203125 42.74141693115234 533.5164794921875 41.67304992675781 502.3060913085938 40.27359771728516 C 443.6102905273438 37.64141464233398 393.4014892578125 33.81269073486328 348.8111572265625 28.56832504272461 C 310.1319580078125 24.0194149017334 275.2252197265625 18.31977844238281 242.096435546875 11.14414215087891 C 210.542236328125 4.309597015380859 183.5863037109375 -3.185131072998047 159.1568603515625 -10.26603698730469 C 147.609375 -13.61312866210938 136.110107421875 -16.12385559082031 124.97802734375 -17.72858428955078 C 114.7899169921875 -19.19712829589844 104.66845703125 -19.94185638427734 94.8944091796875 -19.94185638427734 C 80.8341064453125 -19.94185638427734 67.16845703125 -18.40840148925781 54.2769775390625 -15.38404083251953 C 43.965576171875 -12.96495056152344 34.1219482421875 -9.5916748046875 25.01953125 -5.357856750488281 C 16.9180908203125 -1.589492797851562 10.9150390625 2.177413940429688 7.3056640625 4.674140930175781 C 4.6630859375 6.502017974853516 2.8829345703125 7.934070587158203 1.9998779296875 8.676509857177734 L 1.9998779296875 97.99996185302734 L 1437.093505859375 97.99996185302734 L 1437.093505859375 -0.7585792541503906 C 1435.930541992188 -1.346481323242188 1433.792236328125 -2.380657196044922 1430.725952148438 -3.678401947021484 C 1426.255004882812 -5.570583343505859 1418.840942382812 -8.425857543945312 1408.910034179688 -11.28240203857422 C 1397.748291015625 -14.49295043945312 1385.746948242188 -17.05113220214844 1373.23974609375 -18.88567352294922 C 1357.604125976562 -21.17894744873047 1341.128662109375 -22.34149169921875 1324.270751953125 -22.34113311767578 L 1324.270751953125 -24.34113311767578 M 1324.270751953125 -24.341064453125 C 1398.794799804688 -24.3431396484375 1439.093505859375 -1.970767974853516 1439.093505859375 -1.970767974853516 L 1439.093505859375 99.99996185302734 L -0.0001220703125 99.99996185302734 L -0.0001220703125 7.762870788574219 C -0.0001220703125 7.762870788574219 32.3704833984375 -21.94178771972656 94.8944091796875 -21.94178771972656 C 113.7747802734375 -21.94178771972656 135.3916015625 -19.23671722412109 159.7135009765625 -12.18695068359375 C 264.5792236328125 18.2085075378418 371.07568359375 42.55450439453125 725.679931640625 42.55450439453125 C 1080.284057617188 42.55450439453125 1087.274780273438 20.20614242553711 1224.799194335938 -12.18695068359375 C 1262.671997070312 -21.10770416259766 1295.947509765625 -24.34027862548828 1324.270751953125 -24.341064453125 Z" stroke="none" fill="#fff"/>
    </g>
    <g id="Caminho_1750" data-name="Caminho 1750" transform="translate(0.016 1978.724)" fill="#182447">
      <path d="M 1438.09375 98.99999237060547 L 1.000086665153503 98.99999237060547 L 1.000086665153503 1.719588756561279 C 2.83234977722168 2.725213289260864 6.336902618408203 4.547625064849854 11.62754154205322 6.887444972991943 C 19.04990577697754 10.16980838775635 31.53063201904297 15.12217235565186 48.83845138549805 20.07453536987305 C 68.27517700195312 25.63599014282227 89.72263336181641 30.0669002532959 112.5848159790039 33.24380874633789 C 141.1502685546875 37.21344375610352 172.020263671875 39.22617340087891 204.3373565673828 39.22617340087891 C 221.9920806884766 39.22617340087891 240.3653564453125 38.62162780761719 258.9464416503906 37.42908096313477 C 278.1766357421875 36.19490051269531 296.5435485839844 34.34090042114258 315.0968017578125 31.76144409179688 C 331.6251831054688 29.46344566345215 347.9220886230469 26.63799095153809 364.91845703125 23.12362670898438 C 396.4811706542969 16.59726333618164 425.6937255859375 8.625263214111328 453.9446411132812 0.9156267642974854 C 471.1224365234375 -3.772191524505615 488.8851623535156 -8.619646072387695 506.9773559570312 -13.08691883087158 C 527.2586059570312 -18.09491920471191 545.827880859375 -22.08691787719727 563.7459106445312 -25.29109954833984 C 585.2435302734375 -29.13546371459961 606.2813720703125 -31.95800971984863 628.0617065429688 -33.92000961303711 C 639.8629760742188 -34.98310089111328 652.0355224609375 -35.79655456542969 664.2413330078125 -36.337646484375 C 677.0477294921875 -36.90528106689453 690.3360595703125 -37.19309997558594 703.737548828125 -37.19309997558594 C 706.933349609375 -37.19309997558594 710.0586547851562 -37.17764663696289 713.2919311523438 -37.14582824707031 C 727.0413818359375 -37.01091766357422 740.4780883789062 -36.60855484008789 753.2286376953125 -35.95019149780273 C 765.3809814453125 -35.32255554199219 777.3133544921875 -34.44146347045898 788.694091796875 -33.33128356933594 C 809.6961059570312 -31.28237342834473 829.349365234375 -28.43873596191406 848.776611328125 -24.63764572143555 C 864.96826171875 -21.46964645385742 881.2919311523438 -17.56037330627441 898.6806030273438 -12.68600940704346 C 914.1950073242188 -8.337100028991699 929.1192016601562 -3.635282278060913 943.5518798828125 0.9119904041290283 C 967.9002685546875 8.583081245422363 993.0775146484375 16.51526260375977 1021.957885742188 23.03453636169434 C 1037.509887695312 26.54508209228516 1052.854858398438 29.37489891052246 1068.869750976562 31.68599128723145 C 1086.844604492188 34.27980804443359 1105.194580078125 36.15835571289062 1124.96826171875 37.42908096313477 C 1143.526611328125 38.62162780761719 1162.4775390625 39.22617340087891 1181.294677734375 39.22617340087891 C 1215.735229492188 39.22617340087891 1250.734252929688 37.21453475952148 1285.319213867188 33.24689865112305 C 1312.987670898438 30.07271766662598 1340.455200195312 25.6467170715332 1366.958984375 20.0918083190918 C 1390.54296875 15.14889907836914 1408.983764648438 10.2079906463623 1420.300415039062 6.933444976806641 C 1429.450439453125 4.285813331604004 1435.552856445312 2.268848896026611 1438.09375 1.403903961181641 L 1438.09375 98.99999237060547 Z" stroke="none"/>
      <path d="M 703.737548828125 -38.19309997558594 L 703.737548828125 -36.19309997558594 C 690.3511962890625 -36.19273376464844 677.077880859375 -35.90492248535156 664.28662109375 -35.337646484375 C 652.0960693359375 -34.79692077636719 639.9388427734375 -33.984375 628.15283203125 -32.92255401611328 C 606.402099609375 -30.96273803710938 585.392822265625 -28.14401245117188 563.9242553710938 -24.30473327636719 C 546.028076171875 -21.10455322265625 527.4799194335938 -17.11710357666016 507.2202758789062 -12.11455535888672 C 489.1400756835938 -7.650375366210938 471.3837280273438 -2.804920196533203 454.2120971679688 1.881080627441406 C 425.9457397460938 9.594535827636719 396.7171630859375 17.57053756713867 365.1234130859375 24.10308074951172 C 348.1048583984375 27.62199020385742 331.7864990234375 30.45108222961426 315.2357177734375 32.75199127197266 C 296.6573486328125 35.33489990234375 278.265869140625 37.19108200073242 259.0106201171875 38.42689895629883 C 240.4083251953125 39.62089920043945 222.0135498046875 40.22617340087891 204.33740234375 40.22617340087891 C 171.9744873046875 40.22617340087891 141.05810546875 38.21017456054688 112.4471435546875 34.23435211181641 C 89.53857421875 31.05071830749512 68.0447998046875 26.61017227172852 48.563232421875 21.03599166870117 C 31.20068359375 16.06798934936523 18.674072265625 11.09708023071289 11.2230224609375 7.801990509033203 C 7.0875244140625 5.973068237304688 4.02880859375 4.453964233398438 1.9998779296875 3.389610290527344 L 1.9998779296875 97.99998474121094 L 1437.093505859375 97.99998474121094 L 1437.093505859375 2.795860290527344 C 1434.03662109375 3.815288543701172 1428.421752929688 5.624462127685547 1420.578247070312 7.893989562988281 C 1409.244995117188 11.17326354980469 1390.778442382812 16.12126159667969 1367.163940429688 21.07053756713867 C 1340.630249023438 26.63180923461914 1313.132080078125 31.06271743774414 1285.433227539062 34.2403564453125 C 1250.810424804688 38.21217346191406 1215.77294921875 40.22617340087891 1181.29443359375 40.22617340087891 C 1162.456298828125 40.22617340087891 1143.483764648438 39.62089920043945 1124.904052734375 38.42689895629883 C 1105.103759765625 37.15453338623047 1086.727905273438 35.27344512939453 1068.726806640625 32.67580795288086 C 1052.685791015625 30.36089897155762 1037.3154296875 27.5263557434082 1021.737731933594 24.00999069213867 C 992.8167724609375 17.48162841796875 967.619384765625 9.542900085449219 943.2513427734375 1.865627288818359 C 928.8260498046875 -2.679100036621094 913.9097290039062 -7.378555297851562 898.41064453125 -11.72309875488281 C 881.0479125976562 -16.59019470214844 864.7496948242188 -20.49346160888672 848.5846557617188 -23.65618896484375 C 829.1890258789062 -27.45110321044922 809.5668334960938 -30.29019165039062 788.5969848632812 -32.33600616455078 C 777.2313842773438 -33.44474029541016 765.314453125 -34.32473754882812 753.177001953125 -34.95146179199219 C 740.4402465820312 -35.60910034179688 727.0177001953125 -36.01110076904297 713.2821044921875 -36.14601135253906 C 710.0590209960938 -36.17764282226562 706.93701171875 -36.19309997558594 703.737548828125 -36.19309997558594 L 703.737548828125 -38.19309997558594 M 703.7374877929688 -38.19306945800781 C 706.9005737304688 -38.19315338134766 710.0711669921875 -38.17755889892578 713.3016967773438 -38.14582824707031 C 921.6871948242188 -36.09909820556641 945.2569580078125 24.87889862060547 1125.0322265625 36.43108367919922 C 1144.344116210938 37.67205810546875 1163.142578125 38.22625732421875 1181.29443359375 38.22625732421875 C 1332.120239257812 38.22625732421875 1439.093505859375 -1.1444091796875e-05 1439.093505859375 -1.1444091796875e-05 L 1439.093505859375 99.99998474121094 L -0.0001220703125 99.99998474121094 L -0.0001220703125 -1.1444091796875e-05 C -0.0001220703125 -1.1444091796875e-05 62.856689453125 38.22625732421875 204.33740234375 38.22625732421875 C 221.3753662109375 38.22625732421875 239.5357666015625 37.67276382446289 258.8824462890625 36.43108367919922 C 436.0899658203125 25.05799102783203 502.8671875 -38.18764495849609 703.7374877929688 -38.19306945800781 Z" stroke="none" fill="#fff"/>
    </g>
  </g>
</svg>
