<svg xmlns="http://www.w3.org/2000/svg" width="1401.228" height="195.689" viewBox="0 0 1401.228 195.689">
  <g id="divisória" transform="translate(1.493 -1883.035)">
    <path id="Caminho_1754" data-name="Caminho 1754" d="M-.962-27.482v84.6S73.514,46.246,93.5,6.52c24.519,56.389,117.648,50.66,79.177,100.531C102.365,76.788,241.254,36.259,263.625,6.52c21.76,36.311,142.078,40.285,77.521,87C290.02,63.928,467.535,23.381,488.379-11.151c47.416,35.683,52.693-11.012,71.454,56.757,35.944,7.817,115.611-23.377,129.145-56.757C692.8,29.515,964.424,62.47,826.36,45.605c-16.75-18.032,70.77-41.593,87-65.167,17.7,30.062,204.2,109.646,107.586,113.085-99.445,3.185,41.167-38.656,65.881-104.675C1117.3,24.742,1144,17.768,1182.586,57.114c36.746,4.806,65.377-30.125,70.654-50.594,158.881,90.707,144.638-34,144.638-34" transform="translate(0.469 1910.631)" fill="none" stroke="#5178ed" stroke-width="2"/>
    <g id="Caminho_1753" data-name="Caminho 1753" transform="translate(-0.438 1910.63)" fill="#5178ed" opacity="0.999">
      <path d="M 0.99993896484375 126.3075942993164 L 0.99993896484375 -24.19991302490234 C 2.449246168136597 -22.26622581481934 4.716633319854736 -19.29723930358887 7.616302490234375 -15.67938899993896 C 12.43702983856201 -9.664843559265137 20.04702949523926 -0.5684795379638672 28.9239387512207 8.611156463623047 C 38.91684722900391 18.94479370117188 48.4481201171875 27.27770233154297 57.25339508056641 33.3784294128418 C 62.50375747680664 37.0162467956543 67.55521392822266 39.89370346069336 72.267578125 41.93061065673828 C 77.49176025390625 44.18879318237305 82.43502807617188 45.47261047363281 86.96066284179688 45.74642944335938 C 92.39702606201172 46.07534027099609 97.56121063232422 46.57588577270508 102.5552139282227 47.06006622314453 C 110.2886657714844 47.8097038269043 117.593391418457 48.51788330078125 125.0393905639648 48.51788330078125 C 130.6575775146484 48.51788330078125 135.8290252685547 48.10770416259766 140.8495788574219 47.26388549804688 C 146.5863037109375 46.29970169067383 152.1533966064453 44.77442932128906 157.8690338134766 42.60079193115234 C 170.426513671875 37.82529449462891 183.7509002685547 29.81899833679199 198.5888366699219 18.1314811706543 C 220.7377777099609 27.4682731628418 242.7639312744141 35.97333145141602 264.0671997070312 43.414794921875 C 281.2521057128906 49.41770172119141 298.007568359375 54.74588394165039 313.8684692382812 59.25115585327148 C 340.8921203613281 66.92733764648438 356.16357421875 69.58824920654297 356.3146667480469 69.61406707763672 L 356.6539306640625 69.67243194580078 L 356.9572143554688 69.50970458984375 C 357.1759338378906 69.39206695556641 379.2548522949219 57.58242797851562 415.4644775390625 42.09515762329102 C 436.7292175292969 32.99988555908203 458.6344909667969 24.43479347229004 480.5715637207031 16.63751983642578 C 507.7840881347656 6.965408802032471 535.1217651367188 -1.545234441757202 561.8368530273438 -8.661581039428711 C 564.9529418945312 -5.077204704284668 568.7755737304688 -1.639120578765869 573.207763671875 1.564793229103088 C 577.510498046875 4.674974918365479 582.504638671875 7.64879322052002 588.0513916015625 10.40370273590088 C 597.8168334960938 15.25370216369629 609.69482421875 19.6206111907959 623.3554077148438 23.38297462463379 C 648.1882934570312 30.2224292755127 674.3404541015625 33.85388565063477 691.6459350585938 36.25697326660156 C 697.4457397460938 37.06224822998047 702.4546508789062 37.75788497924805 706.0643310546875 38.38715744018555 C 707.94287109375 38.71479415893555 709.3570556640625 39.00879287719727 710.3875732421875 39.28606414794922 C 710.7872314453125 39.39365005493164 711.097900390625 39.49067687988281 711.3386840820312 39.57519912719727 C 711.08349609375 39.67036056518555 710.7489013671875 39.78116607666016 710.311767578125 39.90552139282227 C 709.1406860351562 40.23843002319336 707.5306396484375 40.58915710449219 705.3895874023438 40.97733688354492 C 701.1654052734375 41.74315643310547 695.0363159179688 42.62606430053711 686.1011962890625 43.75606536865234 L 685.9810180664062 43.77133941650391 L 685.8677368164062 43.81479263305664 C 675.1370239257812 47.94024658203125 666.9535522460938 51.23479461669922 661.5448608398438 53.60697555541992 C 659.0433959960938 54.70406723022461 657.1463012695312 55.60042953491211 655.9063110351562 56.27133941650391 C 654.5057373046875 57.02897644042969 653.5281372070312 57.63933944702148 653.7059326171875 58.59788513183594 C 653.7603149414062 58.8902473449707 654.0125122070312 59.56988525390625 655.1801147460938 59.56988525390625 C 656.3357543945312 59.56988525390625 658.97705078125 58.99406433105469 663.2548217773438 57.80952072143555 C 667.3368530273438 56.67915725708008 672.7959594726562 55.01606750488281 679.0419311523438 53.00006484985352 C 692.9525146484375 48.51024627685547 709.74267578125 42.6217041015625 726.3197631835938 36.41952133178711 C 751.9718627929688 26.82170677185059 799.0859985351562 8.221469879150391 827.0827026367188 -8.748149871826172 C 853.5055541992188 -4.909326076507568 876.1734008789062 0.9933958053588867 896.3704833984375 9.293702125549316 C 913.9672241210938 16.52533912658691 927.1010131835938 24.50079345703125 938.6886596679688 31.53733825683594 C 948.6106567382812 37.56224822998047 957.1795654296875 42.76570129394531 966.81591796875 46.6231575012207 C 977.4737548828125 50.88933944702148 988.0730590820312 52.87643051147461 1000.172668457031 52.87643051147461 C 1008.012145996094 52.87643051147461 1016.412109375 52.04879379272461 1025.852172851562 50.34624862670898 C 1035.755981445312 48.56006622314453 1046.532104492188 45.86224746704102 1058.796508789062 42.09879302978516 C 1084.003540039062 34.36354064941406 1115.218383789062 22.13626861572266 1154.2109375 4.723087787628174 C 1162.343017578125 12.77919387817383 1170.799072265625 19.865234375 1179.354614257812 25.79206657409668 C 1187.655395507812 31.54261207580566 1196.266357421875 36.35206604003906 1204.948486328125 40.087158203125 C 1213.169555664062 43.62388229370117 1221.66650390625 46.28842926025391 1230.203002929688 48.00697326660156 C 1238.24169921875 49.62515640258789 1246.519897460938 50.44570159912109 1254.8076171875 50.44570159912109 C 1264.479736328125 50.44570159912109 1274.4287109375 49.32915496826172 1284.3779296875 47.12715530395508 C 1293.415161132812 45.12697601318359 1302.655151367188 42.18661117553711 1311.841796875 38.38788223266602 C 1327.297241210938 31.99715614318848 1342.889526367188 23.08897590637207 1358.185546875 11.91115665435791 C 1371.785766601562 1.972611308097839 1382.632080078125 -7.960115909576416 1389.336181640625 -14.54266166687012 C 1393.376953125 -18.51023483276367 1396.443115234375 -21.77448272705078 1398.377197265625 -23.90034103393555 C 1397.675659179688 -19.47911643981934 1396.568237304688 -10.76983261108398 1395.890258789062 3.242247819900513 C 1395.287231445312 15.7100658416748 1395.155883789062 29.80024719238281 1395.50048828125 45.12152099609375 C 1395.924194335938 63.96146011352539 1397.072387695312 84.72679138183594 1398.9140625 106.8606109619141 L 0.99993896484375 126.3075942993164 Z" stroke="none"/>
      <path d="M 1.9998779296875 -21.22450256347656 L 1.9998779296875 125.2935028076172 L 1397.829223632812 105.8755187988281 C 1396.03759765625 84.12254333496094 1394.918090820312 63.69977951049805 1394.500854492188 45.14407348632812 C 1394.15576171875 29.79934692382812 1394.287231445312 15.68534851074219 1394.891357421875 3.194076538085938 C 1395.434448242188 -8.028968811035156 1396.254760742188 -15.87680816650391 1396.923706054688 -20.853515625 C 1395.125732421875 -18.94219970703125 1392.81982421875 -16.56173706054688 1390.036865234375 -13.82920074462891 C 1383.30908203125 -7.223381042480469 1372.42431640625 2.744621276855469 1358.775634765625 12.71862030029297 C 1343.415161132812 23.94334411621094 1327.752807617188 32.89080047607422 1312.223876953125 39.31207275390625 C 1302.983764648438 43.13298416137695 1293.687744140625 46.09080123901367 1284.594116210938 48.1035270690918 C 1274.573974609375 50.32116317749023 1264.55224609375 51.44570922851562 1254.8076171875 51.44570922851562 C 1246.453735351562 51.44570922851562 1238.109252929688 50.61861801147461 1230.005737304688 48.98734664916992 C 1221.401245117188 47.25516510009766 1212.837768554688 44.56970977783203 1204.55322265625 41.00571060180664 C 1195.81005859375 37.24443817138672 1187.140502929688 32.40243530273438 1178.78515625 26.6142578125 C 1170.352783203125 20.77245330810547 1162.01806640625 13.81298828125 1153.994262695312 5.914779663085938 C 1115.25537109375 23.19662475585938 1084.201416015625 35.34896850585938 1059.089965820312 43.05480194091797 C 1046.786987304688 46.83007431030273 1035.973022460938 49.53716278076172 1026.02978515625 51.33043670654297 C 1016.5302734375 53.04352951049805 1008.072509765625 53.87643814086914 1000.172668457031 53.87643814086914 C 987.9415893554688 53.87643814086914 977.2243041992188 51.86661911010742 966.4444580078125 47.55152893066406 C 956.731201171875 43.66334533691406 947.7152099609375 38.18843841552734 938.1697998046875 32.39207458496094 C 926.6134033203125 25.37443542480469 913.5150146484375 17.42061614990234 895.9902954101562 10.21862030029297 C 875.9600219726562 1.98681640625 853.4829711914062 -3.878791809082031 827.2935180664062 -7.706954956054688 C 799.1904907226562 9.25445556640625 752.2607421875 27.78126525878906 726.6701049804688 37.35607528686523 C 710.0792236328125 43.56352996826172 693.2735595703125 49.45734786987305 679.3490600585938 53.95170974731445 C 673.0899658203125 55.97207260131836 667.6170043945312 57.63934707641602 663.521728515625 58.77334594726562 C 657.7061157226562 60.38370895385742 655.9757690429688 60.56989288330078 655.1801147460938 60.56989288330078 C 653.1574096679688 60.56989288330078 652.7783203125 59.07916259765625 652.7228393554688 58.78043746948242 C 652.3983154296875 57.03225708007812 654.1508178710938 56.08407211303711 655.4304809570312 55.39170837402344 C 656.6944580078125 54.70789337158203 658.6166381835938 53.79916381835938 661.1433715820312 52.69116592407227 C 666.56591796875 50.31298446655273 674.7637329101562 47.01243591308594 685.509033203125 42.88152694702148 L 685.7352294921875 42.79443740844727 L 685.9757690429688 42.76407241821289 C 694.405029296875 41.69807434082031 700.5148315429688 40.82425689697266 704.654296875 40.09298324584961 C 705.5916748046875 39.92733383178711 706.4439086914062 39.76615142822266 707.2066040039062 39.61035537719727 C 706.6654052734375 39.50813293457031 706.0743408203125 39.40243530273438 705.4301147460938 39.29261779785156 C 701.8817749023438 38.68789291381836 697.074462890625 38.02025604248047 691.50830078125 37.24734497070312 C 674.177001953125 34.84062194824219 647.9857788085938 31.20371246337891 623.0897827148438 24.34698486328125 C 609.3675537109375 20.56752777099609 597.42919921875 16.17771148681641 587.6065063476562 11.29916381835938 C 582.0106811523438 8.519889831542969 576.9690551757812 5.517524719238281 572.6219482421875 2.375167846679688 C 568.3214721679688 -0.7335891723632812 564.583984375 -4.063034057617188 561.4953002929688 -7.535575866699219 C 535.0029296875 -0.4601669311523438 507.9013061523438 7.985443115234375 480.9241333007812 17.57352447509766 C 459.009765625 25.36225891113281 437.1270141601562 33.91807556152344 415.8837280273438 43.00334548950195 C 379.7075805664062 58.47534561157227 357.648681640625 70.27334594726562 357.43017578125 70.39061737060547 L 356.8236083984375 70.71643829345703 L 356.14501953125 70.59970855712891 C 355.993408203125 70.57370758056641 340.66943359375 67.90370941162109 313.594970703125 60.21316528320312 C 297.7152099609375 55.70243835449219 280.940673828125 50.36825561523438 263.7374267578125 44.35879898071289 C 242.5889892578125 36.97144317626953 220.728271484375 28.53668212890625 198.74365234375 19.28178405761719 C 184.010498046875 30.83503723144531 170.746826171875 38.77335739135742 158.2244873046875 43.53552627563477 C 152.4468994140625 45.7327995300293 146.817626953125 47.27479934692383 141.0152587890625 48.25007247924805 C 135.939453125 49.10316467285156 130.7137451171875 49.51789093017578 125.0394287109375 49.51789093017578 C 117.5447998046875 49.51789093017578 110.2164306640625 48.80752944946289 102.4578857421875 48.05534744262695 C 97.4730224609375 47.57207489013672 92.318359375 47.07243728637695 86.9002685546875 46.7446174621582 C 82.258544921875 46.46371078491211 77.2017822265625 45.15298080444336 71.870849609375 42.84861755371094 C 67.097900390625 40.78534698486328 61.98828125 37.87589263916016 56.6839599609375 34.200439453125 C 47.8250732421875 28.06243896484375 38.243408203125 19.68698120117188 28.2052001953125 9.306434631347656 C 19.3013916015625 0.0991668701171875 11.670166015625 -9.022834777832031 6.836181640625 -15.05410766601562 C 4.9368896484375 -17.42351531982422 3.307373046875 -19.51651000976562 1.9998779296875 -21.22450256347656 M -0.0001220703125 -27.23810577392578 C -0.0001220703125 -27.23810577392578 50.0406494140625 42.51098251342773 87.02099609375 44.74825668334961 C 100.84130859375 45.58436584472656 112.818359375 47.51791381835938 125.0394287109375 47.51791381835938 C 145.51953125 47.51791381835938 166.6927490234375 42.09217071533203 198.4329833984375 16.98043823242188 C 296.2545166015625 58.27298355102539 356.48388671875 68.62861633300781 356.48388671875 68.62861633300781 C 356.48388671875 68.62861633300781 444.0790405273438 21.59007263183594 562.186279296875 -9.789382934570312 C 607.0575561523438 43.08243560791016 778.2737426757812 33.10697937011719 686.2266845703125 44.74825668334961 C 660.8474731445312 54.50531387329102 652.4473876953125 58.56990051269531 655.1800537109375 58.56990051269531 C 663.6209716796875 58.56990051269531 778.2803344726562 19.79087066650391 826.8706665039062 -9.789382934570312 C 936.5267333984375 6.045211791992188 942.6842651367188 51.87644958496094 1000.172607421875 51.87644958496094 C 1030.212280273438 51.87644958496094 1074.26220703125 39.36876678466797 1154.42919921875 3.530258178710938 C 1188.345092773438 37.34500122070312 1222.825439453125 49.44571685791016 1254.8076171875 49.44571685791016 C 1335.319091796875 49.44571685791016 1400 -27.23810577392578 1400 -27.23810577392578 C 1400 -27.23810577392578 1391.704467773438 9.144073486328125 1400 107.8455276489258 L -0.0001220703125 127.3215255737305 L -0.0001220703125 -27.23810577392578 Z" stroke="none" fill="#fff"/>
    </g>
    <g id="Caminho_1752" data-name="Caminho 1752" transform="translate(0 1942.198)" fill="#3b58ad">
      <path d="M 1.022109150886536 126.3071975708008 C 1.151141762733459 120.3141250610352 1.802385807037354 89.27608489990234 2.176309585571289 56.15471267700195 C 2.419582366943359 34.59543991088867 2.49940037727356 16.38434982299805 2.413763999938965 2.02725887298584 C 2.338708639144897 -10.52720737457275 2.135746240615845 -20.15166282653809 1.808270215988159 -26.73306083679199 C 3.040045976638794 -24.03240966796875 4.74810791015625 -20.82047462463379 7.089582443237305 -17.3216495513916 C 12.32758235931396 -9.495104789733887 19.2241268157959 -2.426741123199463 27.58794593811035 3.686713457107544 C 38.28012847900391 11.50216770172119 51.29176330566406 17.66598701477051 66.26139831542969 22.0067138671875 C 74.84739685058594 24.4963493347168 84.20758056640625 26.41689491271973 94.08194732666016 27.71525955200195 C 104.7674026489258 29.1203498840332 116.3317642211914 29.83289527893066 128.4533996582031 29.83289527893066 C 138.5988616943359 29.83289527893066 149.3775787353516 29.33362197875977 160.4906768798828 28.34889602661133 C 172.1892242431641 27.31234931945801 184.5801239013672 25.70925903320312 197.3192138671875 23.58416748046875 C 210.681396484375 21.35525894165039 224.7963104248047 18.49034881591797 239.2717590332031 15.06889533996582 C 254.4077606201172 11.49144077301025 270.3583068847656 7.206349849700928 286.6806640625 2.332531690597534 C 301.8930358886719 -2.209831953048706 316.7046813964844 -6.205650329589844 330.7043151855469 -9.544013977050781 C 344.3126831054688 -12.78910446166992 357.5586853027344 -15.50928688049316 370.0743103027344 -17.62928581237793 C 382.2072143554688 -19.68437767028809 394.01904296875 -21.23692321777344 405.1815795898438 -22.24419593811035 C 415.9677734375 -23.21728706359863 426.4773864746094 -23.71074104309082 436.4183044433594 -23.71074104309082 C 446.8775939941406 -23.71074104309082 457.0561218261719 -23.16474151611328 466.6708679199219 -22.08783149719238 C 475.8337707519531 -21.06128692626953 484.7897644042969 -19.51837730407715 493.2899475097656 -17.50146865844727 C 501.3264770507812 -15.59455966949463 509.2390441894531 -13.19619560241699 516.8077392578125 -10.37328624725342 C 523.8843383789062 -7.73401403427124 530.9330444335938 -4.620923042297363 537.75830078125 -1.120559334754944 C 544.119384765625 2.141804218292236 550.3065185546875 5.728531360626221 556.6732177734375 9.844532012939453 C 562.3511962890625 13.5152587890625 568.0448608398438 17.52725791931152 574.07958984375 22.1099853515625 C 585.305419921875 30.63489532470703 596.0601196289062 39.91362380981445 606.4605102539062 48.88689422607422 C 619.3754272460938 60.02925872802734 632.729736328125 71.55107879638672 647.2552490234375 81.88362121582031 C 655.0864868164062 87.45452880859375 662.6104736328125 92.23489379882812 670.2572021484375 96.497802734375 C 678.8485107421875 101.2874374389648 687.3690185546875 105.3041687011719 696.3059692382812 108.7774429321289 L 696.77978515625 108.9618072509766 L 697.2079467773438 108.687255859375 C 720.2984619140625 93.88326263427734 740.544677734375 76.62071228027344 760.1243286132812 59.92671203613281 C 772.4030151367188 49.45743942260742 785.0997924804688 38.63198471069336 798.1604614257812 28.73689460754395 C 805.1788330078125 23.41944122314453 811.7630615234375 18.76835060119629 818.2894287109375 14.51744079589844 C 825.6019287109375 9.754531860351562 832.6632080078125 5.607077121734619 839.87646484375 1.837804317474365 C 847.6097412109375 -2.202923059463501 855.5455932617188 -5.794741153717041 863.4630126953125 -8.837650299072266 C 871.923583984375 -12.08928680419922 880.7157592773438 -14.85055923461914 889.5950317382812 -17.04492378234863 C 898.9776000976562 -19.36346817016602 908.8108520507812 -21.13692283630371 918.8214111328125 -22.31601333618164 C 929.3157348632812 -23.5520133972168 940.3746948242188 -24.17874145507812 951.6908569335938 -24.17874145507812 C 961.8624877929688 -24.17874145507812 972.5528564453125 -23.67328643798828 983.4650268554688 -22.67655944824219 C 994.7322998046875 -21.64728736877441 1006.593017578125 -20.06164932250977 1018.717590332031 -17.96364974975586 C 1031.199096679688 -15.80383205413818 1044.348510742188 -13.03401374816895 1057.800903320312 -9.731104850769043 C 1071.613891601562 -6.339468479156494 1086.170532226562 -2.281650304794312 1101.06591796875 2.329622507095337 C 1120.120849609375 8.228531837463379 1138.643920898438 13.41762256622314 1156.120483398438 17.75289535522461 C 1172.831787109375 21.89816856384277 1189.022338867188 25.37089538574219 1204.24267578125 28.0747127532959 C 1218.7548828125 30.65271377563477 1232.75927734375 32.59816741943359 1245.86669921875 33.85689544677734 C 1258.325073242188 35.05344009399414 1270.28955078125 35.6601676940918 1281.427734375 35.6601676940918 C 1300.707763671875 35.6601676940918 1318.132446289062 33.8514404296875 1333.217895507812 30.28434944152832 C 1346.650634765625 27.10798645019531 1358.409545898438 22.49944114685059 1368.16796875 16.5865306854248 C 1376.70654296875 11.41289520263672 1383.740844726562 5.235440731048584 1389.075561523438 -1.773832082748413 C 1391.44140625 -4.882195472717285 1393.477416992188 -8.16728687286377 1395.127075195312 -11.53801345825195 C 1395.706176757812 -12.72134208679199 1396.239501953125 -13.91878795623779 1396.7255859375 -15.12580680847168 C 1396.686401367188 23.98623847961426 1397.93359375 97.41197967529297 1398.09716796875 106.8595886230469 L 1.022109150886536 126.3071975708008 Z" stroke="none"/>
      <path d="M 951.6910400390625 -23.17874145507812 C 940.41357421875 -23.17801666259766 929.3939208984375 -22.55292510986328 918.9381103515625 -21.3209228515625 C 908.9686279296875 -20.14619445800781 899.1768798828125 -18.37983322143555 889.83447265625 -16.07073974609375 C 880.9952392578125 -13.88619613647461 872.2430419921875 -11.13710403442383 863.8212280273438 -7.900196075439453 C 855.9390258789062 -4.870742797851562 848.0385131835938 -1.294742584228516 840.3388671875 2.728351593017578 C 833.1539306640625 6.482711791992188 826.1197509765625 10.61434936523438 818.8342895507812 15.35962295532227 C 812.3279418945312 19.59725952148438 805.7626953125 24.23489570617676 798.7632446289062 29.53780364990234 C 785.7255859375 39.41507720947266 773.0397338867188 50.230712890625 760.7717895507812 60.69034957885742 C 741.1670532226562 77.40489196777344 720.8948364257812 94.68871307373047 697.74755859375 109.5290756225586 L 696.8914184570312 110.0779876708984 L 695.943603515625 109.7096252441406 C 686.9635620117188 106.2194366455078 678.4022827148438 102.1836242675781 669.7706909179688 97.37107849121094 C 662.0917358398438 93.08998107910156 654.5374145507812 88.29034423828125 646.6761474609375 82.69779968261719 C 632.1128540039062 72.33744049072266 618.740478515625 60.7994384765625 605.8084716796875 49.64144134521484 C 595.420654296875 40.67853164672852 584.67919921875 31.41035079956055 573.4793701171875 22.90453147888184 C 567.4657592773438 18.33744049072266 561.7930297851562 14.33962249755859 556.1370239257812 10.68289566040039 C 549.7993774414062 6.585258483886719 543.6416015625 3.01507568359375 537.3114013671875 -0.2318305969238281 C 530.5216064453125 -3.714378356933594 523.5099487304688 -6.811470031738281 516.4708251953125 -9.437103271484375 C 508.9419555664062 -12.24546813964844 501.0704956054688 -14.6314697265625 493.0753784179688 -16.52873992919922 C 484.615966796875 -18.53619384765625 475.7019653320312 -20.07219696044922 466.5806884765625 -21.09401702880859 C 457.0045166015625 -22.16692352294922 446.8656005859375 -22.71073913574219 436.442138671875 -22.71073913574219 L 436.4185180664062 -22.71073913574219 C 426.5066528320312 -22.70983123779297 416.0272216796875 -22.21728515625 405.2714233398438 -21.24674224853516 C 394.1339721679688 -20.24165344238281 382.3479614257812 -18.69255828857422 370.2412109375 -16.64201354980469 C 357.7464599609375 -14.52583312988281 344.5223388671875 -11.81037902832031 330.936279296875 -8.5709228515625 C 316.9539794921875 -5.236923217773438 302.1602783203125 -1.246013641357422 286.9666748046875 3.290714263916016 C 270.6259765625 8.170169830322266 254.656494140625 12.46035003662109 239.501708984375 16.04216766357422 C 225.004638671875 19.46871376037598 210.8677978515625 22.33798599243164 197.4837646484375 24.57071304321289 C 184.7196044921875 26.69980430603027 172.302978515625 28.30616760253906 160.578857421875 29.34507751464844 C 149.4366455078125 30.33234977722168 138.628173828125 30.83289527893066 128.453369140625 30.83289527893066 C 43.8983154296875 30.83289527893066 13.433349609375 -3.111747741699219 3.0035400390625 -22.14426422119141 C 3.5343017578125 -6.991420745849609 3.593017578125 19.22858810424805 3.1761474609375 56.16580200195312 C 2.8203125 87.69908142089844 2.2130126953125 117.3441390991211 2.0439453125 125.2927780151367 L 1397.079833984375 105.8735504150391 C 1396.869506835938 93.61433410644531 1395.7783203125 28.28267669677734 1395.726440429688 -10.49729537963867 C 1394.103393554688 -7.278938293457031 1392.1357421875 -4.143402099609375 1389.871215820312 -1.168193817138672 C 1384.460083007812 5.941440582275391 1377.33251953125 12.20271301269531 1368.686157226562 17.44162178039551 C 1358.838256835938 23.40889549255371 1346.982543945312 28.05707740783691 1333.447998046875 31.25762176513672 C 1326.080444335938 32.9996223449707 1318.0947265625 34.33762359619141 1309.7119140625 35.23453140258789 C 1300.869018554688 36.1805305480957 1291.352905273438 36.6601676940918 1281.427734375 36.6601676940918 C 1270.2578125 36.6601676940918 1258.26123046875 36.05198669433594 1245.771240234375 34.85234832763672 C 1232.63720703125 33.5910758972168 1218.606079101562 31.64198684692383 1204.067749023438 29.05925750732422 C 1188.825439453125 26.35162162780762 1172.612670898438 22.87416839599609 1155.879760742188 18.72344017028809 C 1138.384887695312 14.38362312316895 1119.84326171875 9.189441680908203 1100.770263671875 3.284896850585938 C 1085.89453125 -1.320194244384766 1071.359252929688 -5.372379302978516 1057.568359375 -8.759105682373047 C 1044.139770507812 -12.05673980712891 1031.015258789062 -14.82183074951172 1018.559204101562 -16.97783279418945 C 1006.462280273438 -19.07146835327148 994.630126953125 -20.65383148193359 983.3917236328125 -21.68074035644531 C 972.5106811523438 -22.6749267578125 961.8521728515625 -23.17892456054688 951.712158203125 -23.17874145507812 L 951.6910400390625 -23.17874145507812 M 1398.441650390625 -39.81740570068359 C 1398.623657226562 -39.81740570068359 1398.84619140625 -38.51445770263672 1399.1142578125 -35.67001342773438 C 1399.504638671875 -31.52988433837891 1399.155639648438 -26.60810089111328 1397.744384765625 -21.32076263427734 C 1397.805541992188 -32.58303070068359 1398.011962890625 -39.81740570068359 1398.441650390625 -39.81740570068359 Z M -0.404541015625 -37.07435607910156 C -0.3402099609375 -37.07377624511719 -0.1884765625 -36.62989807128906 -0.000244140625 -35.67001342773438 C 0.1148681640625 -35.08314514160156 0.2216796875 -34.33531188964844 0.3209228515625 -33.43647766113281 C -0.3636474609375 -35.73476409912109 -0.5162353515625 -37.07536315917969 -0.404541015625 -37.07435607910156 Z M 0.3209228515625 -33.43647766113281 C 4.4365234375 -19.62025451660156 27.7801513671875 28.83280944824219 128.4534912109375 28.83280944824219 C 167.996826171875 28.83280944824219 219.466552734375 21.35898971557617 286.39453125 1.374351501464844 C 348.4349365234375 -17.15084075927734 397.046875 -24.70738220214844 436.418212890625 -24.71080017089844 C 575.9818115234375 -24.72290802001953 599.7409057617188 70.17453002929688 696.6681518554688 107.8454437255859 C 778.1361694335938 55.61396026611328 821.625732421875 -25.17015838623047 951.69091796875 -25.17877197265625 C 992.02294921875 -25.18144989013672 1040.661010742188 -17.41703033447266 1101.36181640625 1.374351501464844 C 1179.515258789062 25.56866836547852 1238.001586914062 34.66009521484375 1281.427734375 34.66009521484375 C 1362.713745117188 34.66009521484375 1391.294799804688 2.843303680419922 1397.744384765625 -21.32076263427734 C 1397.529296875 18.30612754821777 1399.1142578125 107.8454437255859 1399.1142578125 107.8454437255859 L -0.000244140625 127.3214416503906 C -0.000244140625 127.3214416503906 3.030029296875 -8.900936126708984 0.3209228515625 -33.43647766113281 Z" stroke="none" fill="#fff"/>
    </g>
    <g id="Caminho_1751" data-name="Caminho 1751" transform="translate(0.016 1978.724)" fill="#5178ed">
      <path d="M 1398.09375 98.99996185302734 L 1.000086665153503 98.99996185302734 L 1.000086665153503 8.206182479858398 C 1.69740903377533 7.586819171905518 3.551848888397217 5.999666690826416 6.513177394866943 3.889051914215088 C 10.04590511322021 1.371233701705933 15.92190456390381 -2.428220987319946 23.85226821899414 -6.229129791259766 C 32.7639045715332 -10.50040245056152 42.40135955810547 -13.90349388122559 52.4968147277832 -16.34403991699219 C 65.11717987060547 -19.39494895935059 78.49427032470703 -20.94185638427734 92.25681304931641 -20.94185638427734 C 101.8026351928711 -20.94185638427734 111.6868133544922 -20.19385719299316 121.6349945068359 -18.7187671661377 C 132.4995422363281 -17.10785675048828 143.7211761474609 -14.58785724639893 154.9886322021484 -11.22858428955078 C 178.7231750488281 -4.152402877807617 204.9117279052734 3.337051868438721 235.5613555908203 10.1655969619751 C 267.7402648925781 17.33468818664551 301.6482543945312 23.02941513061523 339.2228088378906 27.57486915588379 C 382.5517272949219 32.81632614135742 431.3433532714844 36.64341735839844 488.3855285644531 39.27450561523438 C 518.720458984375 40.6735954284668 551.9153442382812 41.74159622192383 587.0477294921875 42.44887161254883 C 623.4988403320312 43.1825065612793 663.35498046875 43.55450820922852 705.509521484375 43.55450820922852 C 774.7819213867188 43.55450820922852 831.66064453125 42.66196060180664 879.3960571289062 40.82559585571289 C 923.6482543945312 39.12341690063477 960.4244384765625 36.58450698852539 991.8261108398438 33.06377792358398 C 1019.285888671875 29.98505210876465 1043.188110351562 26.12141609191895 1067.047485351562 20.90432548522949 C 1088.601928710938 16.19141578674316 1108.338500976562 10.75741577148438 1129.23388671875 5.004506587982178 C 1147.938598632812 -0.1453117877244949 1167.279907226562 -5.470402717590332 1190.990966796875 -11.21512985229492 C 1208.435668945312 -15.44149398803711 1225.836059570312 -18.60458374023438 1242.708862304688 -20.61640357971191 C 1257.873046875 -22.42440223693848 1272.930297851562 -23.34112930297852 1287.462280273438 -23.34112930297852 C 1303.938598632812 -23.34112930297852 1320.040649414062 -22.16876602172852 1335.321166992188 -19.85694885253906 C 1347.539672851562 -18.00840187072754 1359.262329101562 -15.43131160736084 1370.163330078125 -12.19713020324707 C 1386.338500976562 -7.398529052734375 1395.87060546875 -2.563786029815674 1398.09375 -1.377272725105286 L 1398.09375 98.99996185302734 Z" stroke="none"/>
      <path d="M 1287.462280273438 -24.34113311767578 L 1287.462280273438 -22.34113311767578 C 1272.968505859375 -22.34058380126953 1257.950927734375 -21.42622375488281 1242.8271484375 -19.62294769287109 C 1225.992797851562 -17.61603546142578 1208.631713867188 -14.46022033691406 1191.226440429688 -10.24313354492188 C 1167.530517578125 -4.502220153808594 1148.196655273438 0.8208694458007812 1129.49951171875 5.968505859375 C 1108.5908203125 11.72523498535156 1088.841552734375 17.16250610351562 1067.26123046875 21.88123321533203 C 1043.3671875 27.10577964782715 1019.432495117188 30.9748706817627 991.9375 34.05759811401367 C 960.5113525390625 37.5810546875 923.7113647460938 40.12178039550781 879.4344482421875 41.82487106323242 C 831.6860961914062 43.66159820556641 774.7947998046875 44.55450439453125 705.509521484375 44.55450439453125 C 663.3484497070312 44.55450439453125 623.4853515625 44.1825065612793 587.0275268554688 43.44868850708008 C 551.8866577148438 42.74123382568359 518.6829833984375 41.67304992675781 488.33935546875 40.27341461181641 C 431.2722778320312 37.64105224609375 382.4564208984375 33.81214141845703 339.102783203125 28.56759643554688 C 301.4951171875 24.01814270019531 267.555419921875 18.31814193725586 235.3438720703125 11.14159774780273 C 204.6639404296875 4.306324005126953 178.4549560546875 -3.188949584960938 154.70263671875 -10.27040100097656 C 143.4808349609375 -13.61603546142578 132.305908203125 -16.12567901611328 121.48828125 -17.72967529296875 C 111.5885009765625 -19.19767761230469 101.7535400390625 -19.94185638427734 92.256591796875 -19.94185638427734 C 78.596435546875 -19.94185638427734 65.3199462890625 -18.40949249267578 52.79541015625 -15.38749694824219 C 42.77734375 -12.97022247314453 33.2137451171875 -9.599311828613281 24.3702392578125 -5.368583679199219 C 16.4984130859375 -1.602584838867188 10.6654052734375 2.162143707275391 7.1580810546875 4.657234191894531 C 4.5877685546875 6.48590087890625 2.8572998046875 7.918121337890625 1.9998779296875 8.659568786621094 L 1.9998779296875 97.99996185302734 L 1397.093505859375 97.99996185302734 L 1397.093505859375 -0.7742881774902344 C 1395.96142578125 -1.362613677978516 1393.886108398438 -2.394474029541016 1390.91357421875 -3.688404083251953 C 1386.56884765625 -5.579673767089844 1379.363891601562 -8.433311462402344 1369.713134765625 -11.28840637207031 C 1358.866455078125 -14.497314453125 1347.203857421875 -17.05403900146484 1335.049560546875 -18.88749694824219 C 1319.855346679688 -21.17967224121094 1303.844604492188 -22.34149169921875 1287.462280273438 -22.34113311767578 L 1287.462280273438 -24.34113311767578 M 1287.462280273438 -24.341064453125 C 1359.914916992188 -24.3431396484375 1399.093505859375 -1.970767974853516 1399.093505859375 -1.970767974853516 L 1399.093505859375 99.99996185302734 L -0.0001220703125 99.99996185302734 L -0.0001220703125 7.762870788574219 C -0.0001220703125 7.762870788574219 31.470703125 -21.94178771972656 92.2567138671875 -21.94178771972656 C 110.6123046875 -21.94178771972656 131.6282958984375 -19.23671722412109 155.2740478515625 -12.18695068359375 C 257.2252197265625 18.2085075378418 360.7615966796875 42.55450439453125 705.509521484375 42.55450439453125 C 1050.25732421875 42.55450439453125 1057.053955078125 20.20614242553711 1190.755493164062 -12.18695068359375 C 1227.57568359375 -21.10770416259766 1259.92626953125 -24.34027862548828 1287.462280273438 -24.341064453125 Z" stroke="none" fill="#fff"/>
    </g>
    <g id="Caminho_1750" data-name="Caminho 1750" transform="translate(0.016 1978.724)" fill="#182447">
      <path d="M 1398.09375 98.99999237060547 L 1.000086665153503 98.99999237060547 L 1.000086665153503 1.742892622947693 C 2.796147584915161 2.754864454269409 6.188258647918701 4.565326690673828 11.28354167938232 6.883081436157227 C 18.50081443786621 10.16617202758789 30.63681411743164 15.11944484710693 47.46608734130859 20.07235336303711 C 66.36481475830078 25.63453674316406 87.21863555908203 30.06599044799805 109.4479064941406 33.24326324462891 C 137.2219085693359 37.21326446533203 167.2364501953125 39.22617340087891 198.6578979492188 39.22617340087891 C 215.822998046875 39.22617340087891 233.6868133544922 38.62162780761719 251.7526397705078 37.42889785766602 C 270.4495544433594 36.19471740722656 288.307373046875 34.34071731567383 306.3462829589844 31.76089859008789 C 322.4166259765625 29.46290016174316 338.2615356445312 26.63708114624023 354.78662109375 23.12253570556641 C 385.4735412597656 16.5958080291748 413.8751831054688 8.623444557189941 441.3413696289062 0.9136267900466919 C 458.0415344238281 -3.774009704589844 475.3100891113281 -8.621282577514648 492.8988037109375 -13.08855533599854 C 512.6153564453125 -18.09619140625 530.6673583984375 -22.08800888061523 548.0860595703125 -25.2920093536377 C 568.984619140625 -29.13600921630859 589.436279296875 -31.9583740234375 610.6095581054688 -33.92019271850586 C 622.0820922851562 -34.98328399658203 633.91552734375 -35.79655456542969 645.7811889648438 -36.337646484375 C 658.2306518554688 -36.90528106689453 671.1488037109375 -37.19309997558594 684.177001953125 -37.19309997558594 C 687.2837524414062 -37.19309997558594 690.3218994140625 -37.17764663696289 693.4651489257812 -37.14582824707031 C 706.8317260742188 -37.01091766357422 719.8941040039062 -36.60855484008789 732.28955078125 -35.95019149780273 C 744.1033325195312 -35.32273864746094 755.7031860351562 -34.44164657592773 766.7667846679688 -33.33146286010742 C 787.183349609375 -31.28273773193359 806.2886352539062 -28.43928146362305 825.1742553710938 -24.63873672485352 C 840.9142456054688 -21.47091865539551 856.7830200195312 -17.56200981140137 873.68701171875 -12.68800926208496 C 888.7693481445312 -8.33946418762207 903.2782592773438 -3.637645959854126 917.3095703125 0.9094449281692505 C 940.9821166992188 8.580899238586426 965.4606323242188 16.5134449005127 993.540283203125 23.0330810546875 C 1008.661376953125 26.54399108886719 1023.581176757812 29.37417221069336 1039.152221679688 31.68544578552246 C 1056.629028320312 34.27944564819336 1074.47021484375 36.15817260742188 1093.695922851562 37.42889785766602 C 1111.73974609375 38.62162780761719 1130.1650390625 39.22617340087891 1148.460327148438 39.22617340087891 C 1181.945678710938 39.22617340087891 1215.97412109375 37.21435546875 1249.599853515625 33.24653625488281 C 1276.5009765625 30.07217216491699 1303.206665039062 25.6459903717041 1328.975341796875 20.09071731567383 C 1351.905517578125 15.1472635269165 1369.834838867188 10.2059907913208 1380.837890625 6.931262969970703 C 1389.680786132812 4.299401760101318 1395.596313476562 2.290515661239624 1398.09375 1.416783452033997 L 1398.09375 98.99999237060547 Z" stroke="none"/>
      <path d="M 684.177001953125 -38.19309997558594 L 684.177001953125 -36.19309997558594 C 671.1642456054688 -36.19273376464844 658.2615356445312 -35.90492248535156 645.8275146484375 -35.33782958984375 C 633.9775390625 -34.79710388183594 622.159912109375 -33.98473358154297 610.7031860351562 -32.92292022705078 C 589.5602416992188 -30.96364593505859 569.1378784179688 -28.14510345458984 548.2693481445312 -24.30655670166016 C 530.872802734375 -21.10673522949219 512.8424682617188 -17.11964416503906 493.1480712890625 -12.11782836914062 C 475.5717163085938 -7.653831481933594 458.3093872070312 -2.808555603027344 441.6155395507812 1.877082824707031 C 414.133544921875 9.591079711914062 385.7156982421875 17.567626953125 354.996826171875 24.1007194519043 C 338.44921875 27.62017059326172 322.58203125 30.44962692260742 306.489013671875 32.75090026855469 C 288.4244384765625 35.33417129516602 270.54150390625 37.19071960449219 251.818603515625 38.42671966552734 C 233.73095703125 39.62071990966797 215.84521484375 40.22617340087891 198.65771484375 40.22617340087891 C 167.189208984375 40.22617340087891 137.126953125 38.20980834960938 109.3062744140625 34.23326110839844 C 87.029541015625 31.04908180236816 66.12841796875 26.60744476318359 47.18359375 21.0316276550293 C 30.2984619140625 16.06217193603516 18.1158447265625 11.08962631225586 10.869384765625 7.793262481689453 C 6.916015625 5.994937896728516 3.973876953125 4.495803833007812 1.9998779296875 3.433601379394531 L 1.9998779296875 97.99998474121094 L 1397.093505859375 97.99998474121094 L 1397.093505859375 2.820987701416016 C 1394.101196289062 3.846199035644531 1388.674438476562 5.642299652099609 1381.123046875 7.889808654785156 C 1370.10302734375 11.1694450378418 1352.147216796875 16.11817169189453 1329.185913085938 21.06817245483398 C 1303.386474609375 26.62998962402344 1276.6494140625 31.06162643432617 1249.717041015625 34.2396240234375 C 1216.052490234375 38.21199035644531 1181.98486328125 40.22617340087891 1148.460205078125 40.22617340087891 C 1130.143310546875 40.22617340087891 1111.695678710938 39.62071990966797 1093.630126953125 38.42671966552734 C 1074.376953125 37.1541748046875 1056.509155273438 35.27272033691406 1039.005615234375 32.67453765869141 C 1023.407348632812 30.35926246643066 1008.461547851562 27.52417373657227 993.3140869140625 24.00726318359375 C 965.1928100585938 17.47780990600586 940.6937255859375 9.538536071777344 917.001220703125 1.8607177734375 C 902.9775390625 -2.683826446533203 888.4764404296875 -7.383102416992188 873.409912109375 -11.72727966308594 C 856.532470703125 -16.59346771240234 840.6898803710938 -20.49619293212891 824.976806640625 -23.65837097167969 C 806.1237182617188 -27.45236968994141 787.05029296875 -30.29109954833984 766.6668090820312 -32.33655548095703 C 755.6188354492188 -33.44509887695312 744.0347900390625 -34.32492065429688 732.2364501953125 -34.95164489746094 C 719.8553466796875 -35.60928344726562 706.807373046875 -36.01110076904297 693.4552001953125 -36.14601135253906 C 690.3220825195312 -36.17764282226562 687.2871704101562 -36.19309997558594 684.177001953125 -36.19309997558594 L 684.177001953125 -38.19309997558594 M 684.1769409179688 -38.19306945800781 C 687.2521362304688 -38.19315338134766 690.3345947265625 -38.17755889892578 693.475341796875 -38.14582824707031 C 896.068603515625 -36.09909820556641 918.9833984375 24.87889862060547 1093.761962890625 36.43108367919922 C 1112.536987304688 37.67205810546875 1130.812866210938 38.22625732421875 1148.460205078125 38.22625732421875 C 1295.093627929688 38.22625732421875 1399.093505859375 -1.1444091796875e-05 1399.093505859375 -1.1444091796875e-05 L 1399.093505859375 99.99998474121094 L -0.0001220703125 99.99998474121094 L -0.0001220703125 -1.1444091796875e-05 C -0.0001220703125 -1.1444091796875e-05 61.1094970703125 38.22625732421875 198.65771484375 38.22625732421875 C 215.2222900390625 38.22625732421875 232.8778076171875 37.67276382446289 251.686767578125 36.43108367919922 C 423.9686279296875 25.05799102783203 488.8897705078125 -38.18764495849609 684.1769409179688 -38.19306945800781 Z" stroke="none" fill="#fff"/>
    </g>
  </g>
</svg>
