<svg xmlns="http://www.w3.org/2000/svg" xmlns:xlink="http://www.w3.org/1999/xlink" width="555.076" height="427.159" viewBox="0 0 555.076 427.159">
  <defs>
    <linearGradient id="linear-gradient" x1="1.123" y1="1.309" x2="2.186" y2="2.691" gradientUnits="objectBoundingBox">
      <stop offset="0" stop-color="#4042e2"/>
      <stop offset="1" stop-color="#4f52ff"/>
    </linearGradient>
    <linearGradient id="linear-gradient-2" x1="0.942" y1="-0.58" x2="0.44" y2="0.646" xlink:href="#linear-gradient"/>
    <linearGradient id="linear-gradient-3" x1="0.971" y1="1.112" x2="2.034" y2="2.494" xlink:href="#linear-gradient"/>
    <linearGradient id="linear-gradient-4" x1="1.462" y1="-0.896" x2="0.668" y2="0.256" xlink:href="#linear-gradient"/>
    <linearGradient id="linear-gradient-5" x1="-1.535" y1="1.338" x2="0.1" y2="0.665" gradientUnits="objectBoundingBox">
      <stop offset="0" stop-color="#e1473d"/>
      <stop offset="1" stop-color="#e9605a"/>
    </linearGradient>
    <linearGradient id="linear-gradient-6" x1="0.482" y1="1.777" x2="0.503" y2="0.254" gradientUnits="objectBoundingBox">
      <stop offset="0" stop-color="#e49b31"/>
      <stop offset="1" stop-color="#fbc343"/>
    </linearGradient>
    <linearGradient id="linear-gradient-7" x1="-0.223" y1="-0.878" x2="0.065" y2="-0.329" gradientUnits="objectBoundingBox">
      <stop offset="0" stop-color="#4042e2"/>
      <stop offset="1" stop-color="#bf1c2d"/>
    </linearGradient>
    <linearGradient id="linear-gradient-8" x1="0.5" y1="1.46" x2="0.5" y2="-0.02" xlink:href="#linear-gradient-6"/>
    <linearGradient id="linear-gradient-9" x1="-0.224" y1="-0.878" x2="0.065" y2="-0.329" xlink:href="#linear-gradient-7"/>
    <linearGradient id="linear-gradient-10" x1="0.5" y1="1.46" x2="0.5" y2="-0.02" gradientUnits="objectBoundingBox">
      <stop offset="0" stop-color="#e49b31"/>
      <stop offset="0.811" stop-color="#fbc343"/>
      <stop offset="1" stop-color="#ffe19d"/>
    </linearGradient>
    <linearGradient id="linear-gradient-11" x1="-0.224" y1="-0.878" x2="0.065" y2="-0.329" xlink:href="#linear-gradient-7"/>
    <linearGradient id="linear-gradient-13" x1="184.506" y1="-42.846" x2="173.273" y2="-42.455" gradientUnits="objectBoundingBox">
      <stop offset="0" stop-color="#09005d"/>
      <stop offset="1" stop-color="#1a0f91"/>
    </linearGradient>
    <linearGradient id="linear-gradient-14" x1="45.629" y1="-167.131" x2="45.24" y2="-168.073" xlink:href="#linear-gradient-13"/>
    <linearGradient id="linear-gradient-15" x1="231.821" y1="-61.479" x2="223.305" y2="-61.087" xlink:href="#linear-gradient-13"/>
    <linearGradient id="linear-gradient-16" x1="57.108" y1="-180.386" x2="56.72" y2="-181.328" xlink:href="#linear-gradient-13"/>
    <linearGradient id="linear-gradient-17" x1="277.218" y1="-50.785" x2="266.255" y2="-50.394" xlink:href="#linear-gradient-13"/>
    <linearGradient id="linear-gradient-18" x1="68.224" y1="-192.932" x2="67.836" y2="-193.874" xlink:href="#linear-gradient-13"/>
    <linearGradient id="linear-gradient-19" x1="0.982" y1="-0.027" x2="-0.161" y2="0.597" xlink:href="#linear-gradient-13"/>
    <linearGradient id="linear-gradient-20" x1="67.855" y1="-167.038" x2="67.467" y2="-167.98" xlink:href="#linear-gradient-13"/>
    <linearGradient id="linear-gradient-21" x1="-17.132" y1="-0.025" x2="-18.275" y2="0.599" xlink:href="#linear-gradient-13"/>
    <linearGradient id="linear-gradient-22" x1="45.407" y1="-39.589" x2="45.019" y2="-40.531" xlink:href="#linear-gradient-13"/>
    <linearGradient id="linear-gradient-23" x1="0" y1="0.5" x2="1" y2="0.5" xlink:href="#linear-gradient-13"/>
  </defs>
  <g id="ilustracao-processos" transform="translate(-162.555)">
    <g id="Layer_1" data-name="Layer 1">
      <path id="Caminho_1156" data-name="Caminho 1156" d="M132.557,1.463,687.628,0" transform="translate(30 413.254)" fill="none" stroke="#102048" stroke-width="2"/>
      <path id="Caminho_636" data-name="Caminho 636" d="M867.661,811.578H340.1C356.61,689.595,468.4,595.24,603.871,595.24S851.15,689.595,867.661,811.578Z" transform="translate(-169.661 -397.682)" fill="#5178ed" opacity="0.231"/>
      <path id="Caminho_635" data-name="Caminho 635" d="M882.589,597.765c28.2,50.452-12.6,149.44-271.34,80.646-129.727-34.493-226.636,43.212-246.6-11.028C318.137,541.049,508.088,394.919,613.718,496.937,710.267,590.2,831.275,505.94,882.589,597.765Z" transform="translate(-183.105 -294.932)" fill="none" stroke="#5178ed" stroke-miterlimit="10" stroke-width="4" stroke-dasharray="32.09 32.09"/>
      <rect id="Retângulo_104" data-name="Retângulo 104" width="273.983" height="375.837" rx="74.32" transform="translate(320.01 36.792)" fill="#a9bae6"/>
      <rect id="Retângulo_105" data-name="Retângulo 105" width="225.509" height="327.578" transform="translate(344.773 51.939)" fill="#f6f5f5"/>
      <path id="Caminho_637" data-name="Caminho 637" d="M1522.031,195.33c.072,127.736,4.2,281.8-10.153,315.91-63.2,6.159-137.213,8.134-215.359,8.509l29.708-323.443Z" transform="translate(-951.753 -143.388)" fill="#e4e4e4"/>
      <path id="Caminho_638" data-name="Caminho 638" d="M1467.318,500.948c-98.506,15.766-164.337,16.6-217.739,12.634,6.914-73.659,9.693-196.029,12.482-318.2l118.7.266,107.431,7.092C1489.762,329.538,1489.932,446.667,1467.318,500.948Z" transform="translate(-917.295 -143.425)" fill="#fff"/>
      <path id="Caminho_639" data-name="Caminho 639" d="M1629.161,39.069V64.352H1527.58V39.069a14.593,14.593,0,0,1,4.276-10.328,12.111,12.111,0,0,1,1.032-.925,14.5,14.5,0,0,1,9.307-3.351,17.2,17.2,0,0,0,7.467-1.7,17.9,17.9,0,0,0,2.808-1.691,17.188,17.188,0,0,0,6.222-8.839A17.261,17.261,0,0,1,1575.2,0h6.34a17.26,17.26,0,0,1,16.507,12.229,17.189,17.189,0,0,0,6.229,8.843,17.9,17.9,0,0,0,2.808,1.691,17.2,17.2,0,0,0,7.467,1.7,14.625,14.625,0,0,1,14.6,14.6Z" transform="translate(-1121.37)" fill="#ee6f57"/>
      <path id="Caminho_640" data-name="Caminho 640" d="M1614.647,195.32v18.8H1496.58v-18.8h8.243v12.413H1606.4V195.32Z" transform="translate(-1098.613 -143.381)" fill="#e4e4e4"/>
      <ellipse id="Elipse_47" data-name="Elipse 47" cx="9.009" cy="8.563" rx="9.009" ry="8.563" transform="translate(447.991 6.592)" fill="#fff"/>
      <path id="Caminho_641" data-name="Caminho 641" d="M1328.5,414.435c-3.6-.681-6.972-6.7-8.142-9.009a2.853,2.853,0,0,1-.266-1.832l1.433-7.6s3.308.561,3.053,4.967a3.237,3.237,0,0,0,.231,1.343l1.266,3.313,3.744-2.9-2.053-5.8s-2.747.755-4.167.3c-2.925-.931.907-3.191,2.127-3.444s3.864-1.207,5.074.846,1.93,3.263,1.93,3.263,1.33-4.592.423-14.859c-.04-.463,1.117-.452,1.444-.12.971.989,2.521,4,2.6,13.166,0,0,.162-10.679,1.994-11.777,1.51-.907,2.271,4.321,1.207,13.184,0,0,1.973-7.674,3.382-7.688,2.393-.024.032,20.5-5.951,26.613Z" transform="translate(-969.021 -266.91)" fill="#f9b384"/>
      <path id="Caminho_642" data-name="Caminho 642" d="M1346.615,490.32q-.16,1.532-.351,2.968h0a86.21,86.21,0,0,1-1.574,9.041c-.032.128-.053.245-.085.362-1.819,7.446-2.149,11.1-8.36,10.126l-6.382-7.276-.064-.074-.468-.532,1.3-3.829.17-.5.957-2.787.117-.362,1.638-4.787.66-1.947Z" transform="translate(-975.838 -345.935)" fill="#f9b384"/>
      <path id="Caminho_643" data-name="Caminho 643" d="M893.3,1486.58l-1.627,5.087c-11.168,3.665-17.665,7.863-18.082,12.764h32.266l2.585-17.019A25.078,25.078,0,0,1,893.3,1486.58Z" transform="translate(-641.287 -1077.272)" fill="#1f3c88"/>
      <path id="Caminho_644" data-name="Caminho 644" d="M951.757,1439l-4.047,12.642a25.011,25.011,0,0,0,15.141.822l1.67-10.982Z" transform="translate(-695.697 -1042.345)" fill="#f9b384"/>
      <path id="Caminho_645" data-name="Caminho 645" d="M1128.85,1448.916l.947-12.876-15.157.8-.83,11.871A24.8,24.8,0,0,0,1128.85,1448.916Z" transform="translate(-817.628 -1040.172)" fill="#f9b384"/>
      <path id="Caminho_646" data-name="Caminho 646" d="M1143.5,1502.3c-.418-4.9-6.116-11.613-18.614-13.208l.383-5.207a24.807,24.807,0,0,1-15.04-.208l-1.3,18.614Z" transform="translate(-814.046 -1075.143)" fill="#1f3c88"/>
      <path id="Caminho_647" data-name="Caminho 647" d="M1073.694,438.568l-18.284.128V411.04h17.731l.011,1.691.085,8.765.128,14.072Z" transform="translate(-774.758 -287.737)" fill="#f9b384"/>
      <path id="Caminho_648" data-name="Caminho 648" d="M1079.726,431.135c-3.287,3.457-11.86-.447-15.476-4.255l15.391-4.521Z" transform="translate(-781.247 -296.047)" fill="#e28b6d"/>
      <path id="Caminho_649" data-name="Caminho 649" d="M1058.535,336.143a39.541,39.541,0,0,1-.479,6.222c-.893,5.584-3.255,10.392-8.7,10.541-12.87.372-16.54-6.988-18.965-13.009s1.51-20.529,1.51-20.529l16.657-1.649,9.148,7.5A68.235,68.235,0,0,1,1058.535,336.143Z" transform="translate(-755.812 -219.233)" fill="#f9b384"/>
      <path id="Caminho_650" data-name="Caminho 650" d="M1008.52,306.2s3.672-.168,4.3-9.645c6.565,2.2,11.363.194,15.157-4.18,3.241,4.284,12.323,5.627,15.388-3.146,2.218-6.337-3.9-15.777-12.806-10.06-8.73-4.412-21.973-4.108-25.794,6.712,0,0-13.248,6.116.779,19.556A16.862,16.862,0,0,0,1008.52,306.2Z" transform="translate(-733.423 -188.978)" fill="#102048"/>
      <path id="Caminho_651" data-name="Caminho 651" d="M1131.452,888.34l-10.1,152.823H1097.59l5.941-148.294,3.632-1.683Z" transform="translate(-805.722 -638.115)" fill="#102048"/>
      <path id="Caminho_652" data-name="Caminho 652" d="M946.255,778.387,929.59,952.119h25.884l24.64-144.305,28.012-8.509,1.239-30.846-62.4-1.417Z" transform="translate(-682.396 -549.071)" fill="#1f3c88"/>
      <path id="Caminho_653" data-name="Caminho 653" d="M991.725,762.6c14.139,5.076,47.307-.723,54.194-7.794l-4.893-9.786-54.556,7.249Z" transform="translate(-724.15 -532.906)" fill="#102048" opacity="0.6"/>
      <path id="Caminho_654" data-name="Caminho 654" d="M1068.153,556.5c-.457.192-.925.394-1.4.574a96.012,96.012,0,0,1-17.721,5.276,81.322,81.322,0,0,1-11.881,1.457,68.651,68.651,0,0,1-18.657-1.51l7.924-73.883.968-9.009s10.371,12.764,21.805-1.33Z" transform="translate(-747.656 -336.95)" fill="#fff"/>
      <path id="Caminho_655" data-name="Caminho 655" d="M1037.147,581.023a68.646,68.646,0,0,1-18.657-1.51l7.924-73.883,2.829-4.09C1036.232,518.538,1043.39,556.175,1037.147,581.023Z" transform="translate(-747.656 -354.172)" fill="#1f3c88" opacity="0.3"/>
      <path id="Caminho_656" data-name="Caminho 656" d="M812.566,472c7.879,33.452,11.121,67.875-.489,106.1-8.608,3.273-17.979,3.236-28.009.354l2.481-69.492-58.411,40.154-3.547-21.893C747.036,505.771,785.86,473.33,812.566,472Z" transform="translate(-531.909 -332.487)" fill="#708cd5"/>
      <path id="Caminho_657" data-name="Caminho 657" d="M1142.273,601.113a96.016,96.016,0,0,1-17.729,5.286c-3.521-20.188-4.3-53.354-1.436-68.32Z" transform="translate(-823.172 -380.995)" fill="#1f3c88" opacity="0.3"/>
      <path id="Caminho_658" data-name="Caminho 658" d="M1345.982,522.112c-.032.128-.053.245-.085.362-1.819,7.446-2.149,11.1-8.36,10.126l-6.382-7.276-.064-.074.83-4.361.17-.5.957-2.787.117-.362Z" transform="translate(-977.13 -365.697)" fill="#e28b6d" opacity="0.6"/>
      <path id="Caminho_659" data-name="Caminho 659" d="M1191.518,494.566s-15.689,33.24-25,34.037c-9.023.774-13.3-7.977-13.3-7.977l6.382,48.578a40.741,40.741,0,0,1-25.177,3.542c-8.435-27.39-11.623-62.8-12.251-102.245,6.829.425,20.353,1.008,25.2,4.122,8.685,5.584,19.412,25.528,19.412,25.528l12.5-17.019Z" transform="translate(-823.773 -331.386)" fill="#708cd5"/>
      <path id="Caminho_660" data-name="Caminho 660" d="M663.67,343s.949-15.9,2.569-15.157,4.864,14.578,4.864,14.578l-3.457,5.6Z" transform="translate(-487.189 -226.643)" fill="#6f3428"/>
      <path id="Caminho_661" data-name="Caminho 661" d="M747.151,1464.71l.471,5.233a16.8,16.8,0,0,1-15.224,18.245l-1.346.12a16.8,16.8,0,0,1-18.231-15.224l-.471-5.233Z" transform="translate(-522.924 -1061.218)" fill="#ee6f57"/>
      <rect id="Retângulo_106" data-name="Retângulo 106" width="34.942" height="254.43" transform="translate(166.651 153.222) rotate(-5.13)" fill="#fbc343"/>
      <rect id="Retângulo_107" data-name="Retângulo 107" width="12.41" height="223.017" transform="translate(177.412 147.132) rotate(-5.13)" fill="none" stroke="#6f3428" stroke-miterlimit="10" stroke-width="8" opacity="0.3"/>
      <path id="Caminho_662" data-name="Caminho 662" d="M737.443,1356.751l-34.793,3.127-.915-10.211-.638-7.095-1.968-21.805,34.8-3.127,1.957,21.805.638,7.095Z" transform="translate(-513.219 -953.257)" fill="#102048"/>
      <rect id="Retângulo_108" data-name="Retângulo 108" width="34.934" height="7.124" transform="translate(187.903 389.302) rotate(-5.14)" fill="#fbc343"/>
      <path id="Caminho_663" data-name="Caminho 663" d="M626.72,413.743,636.386,375a8.308,8.308,0,0,0,7.385-1.018l17.753,36.635Z" transform="translate(-460.064 -260.532)" fill="#ee6f57"/>
      <path id="Caminho_664" data-name="Caminho 664" d="M1018.62,377.354c-.157-.572-2.752-1.356-3.327-1.513a3.976,3.976,0,0,0-2.712.024c-3.141,1.42-2.72,5.917-1.093,8.281a7.089,7.089,0,0,0,3.843,2.819c.569.162,5.972.229,5.736-.641C1021.077,386.321,1018.625,377.376,1018.62,377.354Z" transform="translate(-741.598 -261.731)" fill="#f9b384"/>
      <path id="Caminho_665" data-name="Caminho 665" d="M631.121,712.722a4.731,4.731,0,0,0-6.044-3.111c-3.96,1.367-7.408,3.686-7.94,7.632-.487,3.592,1.308,15.067,9.336,16.543l-.652-5.906s4.914-1.146,5.9-3.276C632.4,723.122,632.448,716.9,631.121,712.722Z" transform="translate(-452.975 -506.73)" fill="#f9b384"/>
      <path id="Caminho_666" data-name="Caminho 666" d="M1228.562,573.62c.423,2.51.782,5.029,1.127,7.549s.638,5.052.963,7.571l.824,7.584c.242,2.534.476,5.052.633,7.611l-.415.048c-.433-2.51-.8-5.029-1.141-7.549l-.947-7.571c-.266-2.532-.577-5.052-.811-7.589s-.476-5.052-.646-7.605Z" transform="translate(-901.563 -407.084)" fill="#1f3c88"/>
      <path id="Caminho_667" data-name="Caminho 667" d="M955.16,572.021c0,2.819-.074,5.637-.16,8.453s-.215,5.632-.319,8.446l-.463,8.44c-.189,2.813-.38,5.624-.654,8.432l-.415-.021c0-2.821.064-5.637.141-8.454l.351-8.445c.16-2.813.282-5.629.476-8.44s.38-5.624.641-8.432Z" transform="translate(-699.691 -405.895)" fill="#1f3c88"/>
      <path id="Caminho_668" data-name="Caminho 668" d="M1082.789,376.866a1.671,1.671,0,0,1-.923,2.114c-.734.165-1.51-.516-1.736-1.518a1.693,1.693,0,0,1,.923-2.127C1081.786,375.156,1082.566,375.863,1082.789,376.866Z" transform="translate(-792.859 -261.506)" fill="#102048"/>
      <path id="Caminho_669" data-name="Caminho 669" d="M1122.646,371.215c-.042,1.026-.689,1.832-1.439,1.8s-1.33-.888-1.284-1.917.689-1.832,1.441-1.8S1122.691,370.186,1122.646,371.215Z" transform="translate(-822.114 -257.094)" fill="#102048"/>
      <path id="Caminho_670" data-name="Caminho 670" d="M1106.814,379.67a21.376,21.376,0,0,1,.532,2.547,2,2,0,0,0,.516.886,3.3,3.3,0,0,0,1,.489,2.777,2.777,0,0,1,1.26.949,1.653,1.653,0,0,1,.13,1.742,3.293,3.293,0,0,1-1.04,1.05c-.367.247-.718.508-1.1.739l-.266-.314c.279-.343.588-.657.88-.984a3.148,3.148,0,0,0,.686-.9c.226-.492-.266-1.032-.955-1.308a3.741,3.741,0,0,1-1.3-.737,2.6,2.6,0,0,1-.681-1.407c-.176-.984.024-1.827-.072-2.659Z" transform="translate(-812.194 -264.709)" fill="#e28b6d"/>
      <path id="Caminho_671" data-name="Caminho 671" d="M1071.22,364.413a3.092,3.092,0,0,1,1.085-1.657,3.311,3.311,0,0,1,1.928-.723,3.563,3.563,0,0,1,3.353,1.885l-.324.266a4.579,4.579,0,0,0-2.978-1.085,3.471,3.471,0,0,0-2.686,1.5Z" transform="translate(-786.364 -251.758)" fill="#102048"/>
      <path id="Caminho_672" data-name="Caminho 672" d="M1112.5,360.273a3.193,3.193,0,0,1,.835-1.343,2.793,2.793,0,0,1,1.51-.747,2.652,2.652,0,0,1,2.821,1.407l-.332.25a3.367,3.367,0,0,0-2.332-.609,2.977,2.977,0,0,0-1.111.4,7.436,7.436,0,0,0-1.032.851Z" transform="translate(-816.667 -248.91)" fill="#102048"/>
      <path id="Caminho_673" data-name="Caminho 673" d="M1090.38,418.41c1.861,2.906,4.332,3.223,6.241.165Z" transform="translate(-800.429 -293.147)" fill="#fff"/>
      <path id="Caminho_674" data-name="Caminho 674" d="M1130.985,384.37a49.064,49.064,0,0,1-.532,6.932,3.191,3.191,0,0,1-2.223-3.053C1128.235,386.644,1129.464,384.615,1130.985,384.37Z" transform="translate(-828.214 -268.159)" fill="#fc8879" opacity="0.4"/>
      <circle id="Elipse_48" data-name="Elipse 48" cx="3.43" cy="3.43" r="3.43" transform="translate(281.987 118.561)" fill="#fc8879" opacity="0.4"/>
      <path id="Caminho_675" data-name="Caminho 675" d="M1022.267,388.182a17.118,17.118,0,0,0-1.917-1.263,1.69,1.69,0,0,0-.846-.218,1.9,1.9,0,0,0-.885.4l-.348-.223a1.651,1.651,0,0,1,1.01-1.088,1.97,1.97,0,0,1,1.54.178,3.989,3.989,0,0,1,1.779,1.96Z" transform="translate(-747.494 -269.145)" fill="#e28b6d"/>
      <path id="Caminho_676" data-name="Caminho 676" d="M655.717,766.71l-4.938,15-1.018-11.732A10.176,10.176,0,0,0,655.717,766.71Z" transform="translate(-476.977 -548.828)" fill="#6f3428" opacity="0.6"/>
      <circle id="Elipse_49" data-name="Elipse 49" cx="23.342" cy="23.342" r="23.342" transform="translate(429.181 120.211) rotate(-80.65)" fill="url(#linear-gradient)"/>
      <circle id="Elipse_50" data-name="Elipse 50" cx="21.688" cy="21.688" r="21.688" transform="translate(432.596 120.137) rotate(-83.68)" fill="url(#linear-gradient-2)"/>
      <circle id="Elipse_51" data-name="Elipse 51" cx="23.342" cy="23.342" r="23.342" transform="translate(429.245 350.783) rotate(-80.78)" fill="url(#linear-gradient-3)"/>
      <circle id="Elipse_52" data-name="Elipse 52" cx="21.688" cy="21.688" r="21.688" transform="translate(432.601 350.626) rotate(-83.74)" fill="url(#linear-gradient-4)"/>
      <rect id="Retângulo_109" data-name="Retângulo 109" width="38.114" height="38.114" transform="matrix(0.709, -0.705, 0.705, 0.709, 429.049, 181.491)" fill="url(#linear-gradient-5)"/>
      <rect id="Retângulo_110" data-name="Retângulo 110" width="34.995" height="34.995" transform="matrix(0.709, -0.705, 0.705, 0.709, 431.257, 181.496)" fill="url(#linear-gradient-6)"/>
      <path id="Caminho_677" data-name="Caminho 677" d="M1940.51,888.481a14.891,14.891,0,0,1-14.891,14.891h-19.3a14.891,14.891,0,0,1-14.891-14.891h0a14.891,14.891,0,0,1,14.891-14.891h19.3a14.891,14.891,0,0,1,14.891,14.891Z" transform="translate(-1388.466 -641.287)" fill="url(#linear-gradient-7)"/>
      <path id="Caminho_678" data-name="Caminho 678" d="M1943.309,891.535a13.692,13.692,0,0,1-13.7,13.785H1911.7a13.692,13.692,0,0,1-13.7-13.785h0a13.692,13.692,0,0,1,13.7-13.785h17.912a13.692,13.692,0,0,1,13.7,13.785Z" transform="translate(-1393.288 -644.341)" fill="url(#linear-gradient-8)"/>
      <path id="Caminho_679" data-name="Caminho 679" d="M1673.07,888.481a14.891,14.891,0,0,1-14.891,14.891h-19.287A14.891,14.891,0,0,1,1624,888.482h0a14.891,14.891,0,0,1,14.891-14.891h19.3a14.891,14.891,0,0,1,14.891,14.891Z" transform="translate(-1192.15 -641.287)" fill="url(#linear-gradient-9)"/>
      <path id="Caminho_680" data-name="Caminho 680" d="M1675.8,891.535a13.692,13.692,0,0,1-13.7,13.785h-17.918a13.692,13.692,0,0,1-13.7-13.785h0a13.692,13.692,0,0,1,13.7-13.785H1662.1a13.692,13.692,0,0,1,13.7,13.785Z" transform="translate(-1196.913 -644.341)" fill="url(#linear-gradient-10)"/>
      <path id="Caminho_681" data-name="Caminho 681" d="M1399.313,888.481a14.891,14.891,0,0,1-14.891,14.891h-19.3a14.891,14.891,0,0,1-14.891-14.891h0a14.891,14.891,0,0,1,14.891-14.891h19.3a14.891,14.891,0,0,1,14.891,14.891Z" transform="translate(-991.18 -641.287)" fill="url(#linear-gradient-11)"/>
      <path id="Caminho_682" data-name="Caminho 682" d="M1402.1,891.535a13.692,13.692,0,0,1-13.7,13.785h-17.912a13.692,13.692,0,0,1-13.7-13.785h0a13.692,13.692,0,0,1,13.7-13.785H1388.4a13.692,13.692,0,0,1,13.7,13.785Z" transform="translate(-995.995 -644.341)" fill="url(#linear-gradient-8)"/>
      <path id="Caminho_683" data-name="Caminho 683" d="M1713.977,499.108a.827.827,0,0,1-.827-.827V477.327a.827.827,0,1,1,1.654,0v20.954A.827.827,0,0,1,1713.977,499.108Z" transform="translate(-1257.594 -349.79)" fill="url(#linear-gradient-13)"/>
      <path id="Caminho_684" data-name="Caminho 684" d="M1708.873,545.97l-3.385,5.866-3.388-5.866Z" transform="translate(-1249.482 -400.787)" fill="url(#linear-gradient-14)"/>
      <path id="Caminho_685" data-name="Caminho 685" d="M1713.977,806.713a.827.827,0,0,1-.827-.827V790.447a.827.827,0,1,1,1.654,0v15.439A.827.827,0,0,1,1713.977,806.713Z" transform="translate(-1257.594 -579.646)" fill="url(#linear-gradient-15)"/>
      <path id="Caminho_686" data-name="Caminho 686" d="M1708.873,838.35l-3.385,5.866-3.388-5.866Z" transform="translate(-1249.482 -615.418)" fill="url(#linear-gradient-16)"/>
      <path id="Caminho_687" data-name="Caminho 687" d="M1709.827,1072.948a.827.827,0,0,1-.827-.827v-20.4a.827.827,0,0,1,1.654,0v20.4a.827.827,0,0,1-.827.83Z" transform="translate(-1254.547 -771.44)" fill="url(#linear-gradient-17)"/>
      <path id="Caminho_688" data-name="Caminho 688" d="M1705.683,1118.29l-3.385,5.866-3.388-5.866Z" transform="translate(-1247.14 -820.917)" fill="url(#linear-gradient-18)"/>
      <path id="Caminho_689" data-name="Caminho 689" d="M1429.887,719.762a.827.827,0,0,1-.827-.827V679.507a.827.827,0,0,1,.827-.827h45.49a.827.827,0,1,1,0,1.654H1430.7v38.6A.827.827,0,0,1,1429.887,719.762Z" transform="translate(-1049.048 -498.207)" fill="url(#linear-gradient-19)"/>
      <path id="Caminho_690" data-name="Caminho 690" d="M1424.783,827.98l-3.385,5.866-3.388-5.866Z" transform="translate(-1040.936 -607.806)" fill="url(#linear-gradient-20)"/>
      <path id="Caminho_691" data-name="Caminho 691" d="M1874.528,719.762a.827.827,0,0,1-.827-.827v-38.6h-44.674a.827.827,0,1,1,0-1.654h45.493a.827.827,0,0,1,.827.827v39.428A.827.827,0,0,1,1874.528,719.762Z" transform="translate(-1342.05 -498.207)" fill="url(#linear-gradient-21)"/>
      <path id="Caminho_692" data-name="Caminho 692" d="M1990.04,827.98l3.388,5.866,3.385-5.866Z" transform="translate(-1460.854 -607.806)" fill="url(#linear-gradient-22)"/>
      <path id="Caminho_693" data-name="Caminho 693" d="M1579.464,1011.162h-151.64a.827.827,0,0,1-.824-.819V995.717a.827.827,0,1,1,1.654,0V1009.5h149.977V995.717a.83.83,0,0,1,1.657,0v14.625A.827.827,0,0,1,1579.464,1011.162Z" transform="translate(-1047.536 -730.331)" fill="url(#linear-gradient-23)"/>
      <rect id="Retângulo_111" data-name="Retângulo 111" width="63.964" height="7.169" rx="3.585" transform="translate(351.338 84.527)" fill="#7d97f4"/>
      <rect id="Retângulo_112" data-name="Retângulo 112" width="63.964" height="7.169" rx="3.585" transform="translate(351.338 100.517)" fill="#7d97f4"/>
    </g>
  </g>
</svg>
