<svg xmlns="http://www.w3.org/2000/svg" width="663.694" height="379.64" viewBox="0 0 663.694 379.64">
  <g id="ilustracao-financas" transform="translate(67 -152.151)">
    <g id="Layer_1" data-name="Layer 1" transform="translate(-126 79)">
      <g id="fundo" transform="translate(74.23 84.332)" opacity="0.998">
        <path id="Caminho_1043" data-name="Caminho 1043" d="M524.37,118.775c-43.3-133.683-276.077-139.5-293.956,10.493,0,0-13.8,2.749-25.967.877-66.371-10.2-182.5,117.406-93.374,214.931h497.76C662.662,251.942,623.983,156.657,524.37,118.775Z" transform="translate(-16.636 -4.692)" fill="#5178ed" opacity="0.196"/>
        <g id="Grupo_90" data-name="Grupo 90">
          <path id="Caminho_1044" data-name="Caminho 1044" d="M511.915,197.059l-.859-.829c55.531-57.116,57.74-88.339,61.08-135.642,1.181-16.749,2.525-35.692,6.371-58.555C552.195,14.268,530.866,31.2,515.1,52.4a161.727,161.727,0,0,0-27.281,59.45c-9.072,37.931-3.714,69.726-3.67,70.034l-1.174.206c-.059-.323-5.461-32.294,3.67-70.46a163.029,163.029,0,0,1,27.479-59.891c16.1-21.637,37.931-38.9,64.911-51.23L580.07,0l-.191,1.116c-3.985,23.31-5.351,42.569-6.547,59.553C569.971,108.222,567.747,139.635,511.915,197.059Z" transform="translate(-123.757)" fill="#5178ed"/>
          <path id="Caminho_1045" data-name="Caminho 1045" d="M508.27,203.219l-1.16-.3c.22-.851,22.349-86.262,50.18-133.668l1.035.609C530.574,117.118,508.5,202.36,508.27,203.219Z" transform="translate(-130.614 -18.424)" fill="#5178ed"/>
          <path id="Caminho_1046" data-name="Caminho 1046" d="M546.994,111.452l-1.2-.037A73.975,73.975,0,0,0,537.35,77.6l1.057-.565A75.061,75.061,0,0,1,546.994,111.452Z" transform="translate(-138.659 -20.256)" fill="#5178ed"/>
          <path id="Caminho_1047" data-name="Caminho 1047" d="M532.807,164.929l-.807-.851c12.727-12.646,29.358-16.551,29.527-16.587l.264,1.167C561.593,148.694,545.284,152.532,532.807,164.929Z" transform="translate(-137.236 -38.808)" fill="#5178ed"/>
          <path id="Caminho_1048" data-name="Caminho 1048" d="M580.5,250.234l-.118-1.189c21.659-2.15,39.237-16.668,53.718-44.382,12.837-24.558,21.651-55.935,30.173-86.276C669.8,98.716,675.031,80.11,681.152,64c-62.342,15.574-88.177,65-88.434,65.5l-1.071-.543c.264-.506,26.635-51,90.335-66.393l1.108-.272-.411,1.064c-6.253,16.308-11.589,35.274-17.226,55.355-8.565,30.4-17.4,61.843-30.305,86.489C620.469,233.316,602.589,248.046,580.5,250.234Z" transform="translate(-150.107 -16.572)" fill="#5178ed"/>
          <path id="Caminho_1049" data-name="Caminho 1049" d="M572.914,239.643l-1.094-.484c.36-.822,36.778-82.372,67.37-106.078l.734.947c-12.543,9.718-28.1,31.054-44.991,61.652C582.147,218.894,573,239.445,572.914,239.643Z" transform="translate(-147.83 -34.87)" fill="#5178ed"/>
          <path id="Caminho_1050" data-name="Caminho 1050" d="M627.712,164.814l-1.182-.22c0-.088,1.71-9.321,3.215-31.633l1.2.081C629.429,155.441,627.726,164.726,627.712,164.814Z" transform="translate(-162.385 -34.967)" fill="#5178ed"/>
          <path id="Caminho_1051" data-name="Caminho 1051" d="M600.073,217.387l-.683-.983A125.178,125.178,0,0,1,638,200l.264,1.167a124.118,124.118,0,0,0-38.2,16.22Z" transform="translate(-155.165 -52.625)" fill="#5178ed"/>
          <path id="Caminho_1052" data-name="Caminho 1052" d="M181.307,356.185c-53.8-55.311-55.935-85.564-59.171-131.378-1.16-16.36-2.466-34.907-6.3-57.344l-.191-1.123,1.028.477c58.856,26.943,80.874,73.065,88.985,107.018,8.807,36.756,3.582,67.56,3.53,67.869L208,341.5c.051-.3,5.211-30.907-3.523-67.428-8-33.476-29.652-78.885-87.274-105.689,3.67,22.019,4.984,40.228,6.121,56.338,3.222,45.505,5.351,75.6,58.841,130.644Z" transform="translate(-26.465 -42.957)" fill="#5178ed"/>
          <path id="Caminho_1053" data-name="Caminho 1053" d="M201.369,362.121c-.205-.822-21.476-82.937-48.2-128.442l1.035-.609c26.811,45.659,48.118,127.906,48.331,128.736Z" transform="translate(-36.45 -60.711)" fill="#5178ed"/>
          <path id="Caminho_1054" data-name="Caminho 1054" d="M178.588,273.757a72.434,72.434,0,0,1,8.279-33.167l1.05.573a71.129,71.129,0,0,0-8.132,32.551Z" transform="translate(-43.211 -63.269)" fill="#5178ed"/>
          <path id="Caminho_1055" data-name="Caminho 1055" d="M185.24,325.262c-12.015-11.927-27.714-15.619-27.89-15.655l.264-1.167c.161.037,16.147,3.795,28.448,15.978Z" transform="translate(-37.562 -81.159)" fill="#5178ed"/>
          <path id="Caminho_1056" data-name="Caminho 1056" d="M119.075,401.458c-46.224-4.3-64.727-55.516-81.051-100.75C32.5,285.427,27.294,270.99,21.246,258.6l-.536-1.1,1.2.25c31.222,6.5,52.742,20.118,65.322,30.4,13.622,11.156,19.949,20.925,20.015,21.028l-1.013.646c-.242-.382-24.954-38.063-83.355-50.643,5.872,12.228,10.929,26.29,16.294,41.153,16.184,44.874,34.555,95.7,80.016,99.92Z" transform="translate(-1.209 -67.21)" fill="#5178ed"/>
          <path id="Caminho_1057" data-name="Caminho 1057" d="M137.827,393.641c-.345-.624-35.23-62.621-63.927-80.808l.646-1.013c28.918,18.349,63.979,80.61,64.331,81.241Z" transform="translate(-15.36 -81.661)" fill="#5178ed"/>
          <path id="Caminho_1058" data-name="Caminho 1058" d="M107.226,336.552c0-.074-1.725-7.141-3.406-24.147l1.189-.125c1.673,16.881,3.362,23.92,3.383,23.986Z" transform="translate(-23.32 -82.148)" fill="#5178ed"/>
          <path id="Caminho_1059" data-name="Caminho 1059" d="M122.084,376.6A134.3,134.3,0,0,0,86.12,363.822l.235-1.182a135.967,135.967,0,0,1,36.331,12.917Z" transform="translate(-18.611 -95.43)" fill="#5178ed"/>
          <path id="Caminho_1060" data-name="Caminho 1060" d="M727.334,396.718l-.286-1.167c50.892-12.426,60.485-67.091,69.77-119.957,3.251-18.562,6.605-37.733,11.743-54.313-50.643,9.71-79.355,44.691-94.533,72.419a201.6,201.6,0,0,0-21.109,59l-1.189-.176a203.223,203.223,0,0,1,21.226-59.362c15.413-28.147,44.624-63.707,96.368-73.234l.983-.183-.3.954c-5.3,16.734-8.72,36.25-12.037,55.127C788.649,329.048,778.983,384.1,727.334,396.718Z" transform="translate(-179.732 -57.164)" fill="#5178ed"/>
          <path id="Caminho_1061" data-name="Caminho 1061" d="M733.882,385.909l-1.152-.323c.183-.668,18.951-67.384,49.469-93.726l.778.9C752.745,318.9,734.066,385.27,733.882,385.909Z" transform="translate(-190.639 -76.351)" fill="#5178ed"/>
          <path id="Caminho_1062" data-name="Caminho 1062" d="M763.264,331.5l-1.174-.242c0-.132,2.767-13.725,1.805-33.681l1.2-.059C766.061,317.638,763.294,331.37,763.264,331.5Z" transform="translate(-198.45 -78.238)" fill="#5178ed"/>
          <path id="Caminho_1063" data-name="Caminho 1063" d="M741.434,375.331l-.734-.947A159.369,159.369,0,0,1,780.752,353.1l.4,1.123a158.1,158.1,0,0,0-39.714,21.109Z" transform="translate(-192.76 -92.893)" fill="#5178ed"/>
          <path id="Caminho_1064" data-name="Caminho 1064" d="M578.837,124.325a3.9,3.9,0,1,1,3.9-3.9A3.9,3.9,0,0,1,578.837,124.325Zm0-6.606a2.686,2.686,0,1,1,0,.015Z" transform="translate(-148.66 -30.672)" fill="#5178ed"/>
          <path id="Caminho_1065" data-name="Caminho 1065" d="M139.045,206.335a3.9,3.9,0,1,1,3.89-3.9A3.9,3.9,0,0,1,139.045,206.335Zm0-6.606a2.686,2.686,0,1,1,0,.015Z" transform="translate(-31.653 -52.257)" fill="#5178ed"/>
          <path id="Caminho_1066" data-name="Caminho 1066" d="M631.057,324.515a3.9,3.9,0,1,1,3.9-3.89A3.9,3.9,0,0,1,631.057,324.515Zm0-6.606a2.694,2.694,0,1,1,0,.015Z" transform="translate(-162.553 -83.363)" fill="#5178ed"/>
          <path id="Caminho_1067" data-name="Caminho 1067" d="M811.523,267.94a3.89,3.89,0,1,1,3.9-3.89A3.89,3.89,0,0,1,811.523,267.94Zm0-6.606a2.683,2.683,0,1,1,0,.022Z" transform="translate(-210.568 -68.476)" fill="#5178ed"/>
          <circle id="Elipse_71" data-name="Elipse 71" cx="2.694" cy="2.694" r="2.694" transform="translate(452.938 182.963)" fill="#5178ed"/>
          <circle id="Elipse_72" data-name="Elipse 72" cx="2.694" cy="2.694" r="2.694" transform="translate(577.005 282.776)" fill="#5178ed"/>
          <circle id="Elipse_73" data-name="Elipse 73" cx="2.694" cy="2.694" r="2.694" transform="translate(378.671 111.085) rotate(-89.92)" fill="#5178ed"/>
          <circle id="Elipse_74" data-name="Elipse 74" cx="2.694" cy="2.694" r="2.694" transform="translate(81.146 291.561)" fill="#5178ed"/>
        </g>
      </g>
      <g id="calculadora">
        <rect id="Retângulo_113" data-name="Retângulo 113" width="257.219" height="362.745" rx="49.31" transform="translate(204.659 73.151)" fill="#86a7ff"/>
        <rect id="Retângulo_114" data-name="Retângulo 114" width="90.658" height="15.216" transform="translate(287.944 87.79)" fill="#d3dfff"/>
        <rect id="Retângulo_115" data-name="Retângulo 115" width="205.902" height="45.668" transform="translate(230.317 126.396)" fill="#dadada"/>
        <rect id="Retângulo_116" data-name="Retângulo 116" width="187.879" height="33.173" transform="translate(239.329 132.657)" fill="#fff"/>
        <rect id="Retângulo_117" data-name="Retângulo 117" width="29.199" height="18.437" rx="9.218" transform="translate(360.928 193.479)" fill="#1f3c88"/>
        <rect id="Retângulo_118" data-name="Retângulo 118" width="29.199" height="18.437" rx="9.218" transform="translate(407.029 193.479)" fill="#1f3c88"/>
        <rect id="Retângulo_119" data-name="Retângulo 119" width="35.339" height="24.077" rx="12.038" transform="translate(400.88 234.377)" fill="#1f3c88"/>
        <rect id="Retângulo_120" data-name="Retângulo 120" width="35.339" height="24.077" rx="12.038" transform="translate(344.497 234.377)" fill="#1f3c88"/>
        <rect id="Retângulo_121" data-name="Retângulo 121" width="35.339" height="24.077" rx="12.038" transform="translate(288.114 234.377)" fill="#1f3c88"/>
        <rect id="Retângulo_122" data-name="Retângulo 122" width="35.339" height="24.077" rx="12.038" transform="translate(231.73 234.377)" fill="#1f3c88"/>
        <rect id="Retângulo_123" data-name="Retângulo 123" width="35.339" height="24.077" rx="12.038" transform="translate(400.88 278.091)" fill="#1f3c88"/>
        <rect id="Retângulo_124" data-name="Retângulo 124" width="35.339" height="24.077" rx="12.038" transform="translate(344.497 278.091)" fill="#d3dfff"/>
        <rect id="Retângulo_125" data-name="Retângulo 125" width="35.339" height="24.077" rx="12.038" transform="translate(288.114 278.091)" fill="#d3dfff"/>
        <rect id="Retângulo_126" data-name="Retângulo 126" width="35.339" height="24.077" rx="12.038" transform="translate(231.73 278.091)" fill="#d3dfff"/>
        <rect id="Retângulo_127" data-name="Retângulo 127" width="35.339" height="24.077" rx="12.038" transform="translate(400.88 321.805)" fill="#1f3c88"/>
        <rect id="Retângulo_128" data-name="Retângulo 128" width="35.339" height="24.077" rx="12.038" transform="translate(344.497 321.805)" fill="#d3dfff"/>
        <rect id="Retângulo_129" data-name="Retângulo 129" width="35.339" height="24.077" rx="12.038" transform="translate(288.114 321.805)" fill="#d3dfff"/>
        <rect id="Retângulo_130" data-name="Retângulo 130" width="35.339" height="24.077" rx="12.038" transform="translate(231.73 321.805)" fill="#d3dfff"/>
        <rect id="Retângulo_131" data-name="Retângulo 131" width="35.339" height="24.077" rx="12.038" transform="translate(400.88 367.262)" fill="#fbc343"/>
        <rect id="Retângulo_132" data-name="Retângulo 132" width="35.339" height="24.077" rx="12.038" transform="translate(344.497 367.262)" fill="#d3dfff"/>
        <rect id="Retângulo_133" data-name="Retângulo 133" width="35.339" height="24.077" rx="12.038" transform="translate(288.114 367.262)" fill="#d3dfff"/>
        <rect id="Retângulo_134" data-name="Retângulo 134" width="35.339" height="24.077" rx="12.038" transform="translate(231.73 367.262)" fill="#d3dfff"/>
        <path id="Caminho_1068" data-name="Caminho 1068" d="M410.162,164.851a10.584,10.584,0,0,0,2.024-.085,7.024,7.024,0,0,0,3.889-1.8,8.125,8.125,0,0,0,2.448-4.943h-.085a5.433,5.433,0,0,1-4.369,2,5.367,5.367,0,0,1-5.48-5.65,6.365,6.365,0,0,1,6.337-6.591c3.766,0,6.139,3.088,6.139,7.825,0,4.087-1.365,6.94-3.192,8.71a9.256,9.256,0,0,1-5.4,2.486,11.194,11.194,0,0,1-2.307.151Zm.941-10.678c0,2.307,1.394,3.936,3.569,3.936a4.152,4.152,0,0,0,3.653-1.94,1.676,1.676,0,0,0,.226-.942c0-3.173-1.167-5.6-3.766-5.6-2.194.028-3.71,1.921-3.71,4.548Z" transform="translate(-23.857 -8.079)" fill="#3a6bea"/>
        <path id="Caminho_1069" data-name="Caminho 1069" d="M425.732,164.851a10.585,10.585,0,0,0,2.025-.085,7.024,7.024,0,0,0,3.889-1.8,8.126,8.126,0,0,0,2.448-4.943h-.085a5.433,5.433,0,0,1-4.369,2,5.367,5.367,0,0,1-5.48-5.65,6.365,6.365,0,0,1,6.337-6.591c3.767,0,6.139,3.088,6.139,7.825,0,4.087-1.365,6.94-3.192,8.71a9.256,9.256,0,0,1-5.4,2.486,11.193,11.193,0,0,1-2.307.151Zm.942-10.678c0,2.307,1.393,3.936,3.569,3.936a4.152,4.152,0,0,0,3.653-1.94,1.673,1.673,0,0,0,.226-.942c0-3.173-1.168-5.6-3.766-5.6-2.194.028-3.71,1.921-3.71,4.548Z" transform="translate(-24.767 -8.079)" fill="#3a6bea"/>
      </g>
      <g id="moedas">
        <rect id="Retângulo_135" data-name="Retângulo 135" width="140.337" height="102.946" transform="translate(529.467 333.722)" fill="#fbc343"/>
        <rect id="Retângulo_136" data-name="Retângulo 136" width="37.391" height="1.535" transform="translate(632.422 357.027)" fill="#e49b31"/>
        <rect id="Retângulo_137" data-name="Retângulo 137" width="65.046" height="1.535" transform="translate(604.758 413.373)" fill="#e49b31"/>
        <path id="Caminho_1070" data-name="Caminho 1070" d="M632.261,389.957a118.144,118.144,0,0,1-5.406,35.333,42.128,42.128,0,0,1-40.2,29.525H562.3V352.66h63.926A118.314,118.314,0,0,1,632.261,389.957Z" transform="translate(-32.833 -18.928)" fill="#e49b31"/>
        <rect id="Retângulo_138" data-name="Retângulo 138" width="129.641" height="24.924" rx="7.41" transform="translate(341.437 411.744)" fill="#fbc343"/>
        <path id="Caminho_1071" data-name="Caminho 1071" d="M477.03,416v10.988a6.977,6.977,0,0,1-6.977,6.977h-115.7a6.977,6.977,0,0,1-6.977-6.977V416a6.987,6.987,0,0,1,6.977-6.977h115.7A7,7,0,0,1,477.03,416Z" transform="translate(-20.284 -22.219)" fill="#fbc343"/>
        <path id="Caminho_1072" data-name="Caminho 1072" d="M493.811,440.939v10.97a6.968,6.968,0,0,1-6.977,6.977H403.878c-5.734-7.071-9.237-16.186-11.3-24.924A122.788,122.788,0,0,1,389.34,409H472.5a7,7,0,0,1,6.977,6.977v11.008a6.977,6.977,0,0,1-6.977,6.977h14.331a6.968,6.968,0,0,1,6.977,6.977Z" transform="translate(-22.734 -22.218)" fill="#e49b31"/>
      </g>
      <g id="saco_de_dinheiro" data-name="saco de dinheiro" transform="translate(-647.94 -17.277)">
        <path id="Caminho_1073" data-name="Caminho 1073" d="M558.854,225.579l-9.341,28.691-.687,2.119-4.331,13.324v.094L530.53,269.5l-53.6-1.215-3.917-11.215-.659-1.883L462,225.569C494.118,236.718,520.643,212.359,558.854,225.579Z" transform="translate(626.023 3.674)" fill="#fbc343"/>
        <path id="Caminho_1074" data-name="Caminho 1074" d="M549.507,258.549l-4.331,13.324-14-.216-53.6-1.215-3.917-11.215C492.078,258.907,523.782,258.474,549.507,258.549Z" transform="translate(625.342 1.576)" fill="#e49b31"/>
        <path id="Caminho_1075" data-name="Caminho 1075" d="M605.176,421.348a42.1,42.1,0,0,1-40.2,29.557H443.587a39.02,39.02,0,0,1-37.608-28.663,122.466,122.466,0,0,1-4.369-29.595v-2.825c0-1.121,0-2.25.047-3.371.989-35.781,18.484-69.17,46.572-91.4L477.24,272l66.459,1.535L580.233,308.5a80.61,80.61,0,0,1,13.389,16.5A118.257,118.257,0,0,1,605.176,421.348Z" transform="translate(629.55 1.505)" fill="#fbc343"/>
        <path id="Caminho_1076" data-name="Caminho 1076" d="M501.574,421.046V408.2c-9.068-.4-17.891-2.825-23-5.819l4.068-15.828a47.77,47.77,0,0,0,22.457,5.951c7.712,0,12.985-2.975,12.985-8.38,0-5.141-4.331-8.39-14.341-11.78-14.473-4.868-24.35-11.629-24.35-24.746,0-11.9,8.39-21.233,22.862-24.077V310.67h13.258v11.9c9.068.414,15.16,2.307,19.614,4.463l-3.917,15.292c-3.512-1.488-9.736-4.6-19.482-4.6-8.795,0-11.629,3.766-11.629,7.58,0,4.454,4.708,7.3,16.233,11.629,16.092,5.65,22.6,13.117,22.6,25.3,0,12.034-8.531,22.316-24.077,25.019v13.795Z" transform="translate(625.056 -0.753)" fill="#fff"/>
        <rect id="Retângulo_139" data-name="Retângulo 139" width="108.153" height="17.147" rx="8.573" transform="translate(1083.165 268.084)" fill="#ed7545"/>
        <path id="Caminho_1077" data-name="Caminho 1077" d="M605.176,426.06a42.1,42.1,0,0,1-40.2,29.557H443.587a39.02,39.02,0,0,1-37.608-28.663,122.465,122.465,0,0,1-4.369-29.595c20.084,19.152,43.747,44.18,99.067,44.952,68.69.942,98.295-31.242,103.577-89.622a118.078,118.078,0,0,1,.923,73.37Z" transform="translate(629.55 -3.207)" fill="#e49b31" opacity="0.4"/>
      </g>
      <rect id="Retângulo_144" data-name="Retângulo 144" width="663.694" height="1.535" transform="translate(59 435.133)" fill="#102048"/>
      <g id="Mulher" transform="translate(-26 11)">
        <path id="Caminho_1107" data-name="Caminho 1107" d="M686.015,426.191l2.561,32.777H645.94l21.506-14.849-.377-20.49Z" transform="translate(-37.717 -23.073)" fill="#102048"/>
        <path id="Caminho_1108" data-name="Caminho 1108" d="M754.079,411.52,765.6,439.57l-29.19,24.585,4.228-27.664-5.763-18.437Z" transform="translate(-42.91 -22.365)" fill="#102048"/>
        <path id="Caminho_1109" data-name="Caminho 1109" d="M697.723,243.56a33.21,33.21,0,0,0-1.073,4.087c-.565,2.825-1.055,6.469-1.478,10.744-1.346,13.955-1.883,34.68-2.071,56.7-.32,49.585,1.554,105.7,1.554,105.7l-7.806-.122-19.209-.292-6.789-.1c-10.3-78.559-7.364-144.895-5.81-167.993.047-.8.1-1.535.141-2.232.32-4.237.537-6.5.537-6.5Z" transform="translate(-38.155 -12.558)" fill="#1f3c88"/>
        <path id="Caminho_1110" data-name="Caminho 1110" d="M758.172,409.209l-3.9.942-20.47,5.122-12.5,3.135s-14.812-54.971-26.647-103.144c-5.65-23.239-10.7-44.887-12.995-58.031A83.344,83.344,0,0,1,680.32,246.8l17.891,1.017,22.6,1.29s.556,3.239,1.629,9.068C726.741,281.414,739.34,345.707,758.172,409.209Z" transform="translate(-39.725 -12.747)" fill="#1f3c88"/>
        <path id="Caminho_1111" data-name="Caminho 1111" d="M720.716,258a194.589,194.589,0,0,1-25.7.386c-5.386-.282-10.442-.753-15.066-1.328a191.6,191.6,0,0,1-25.065-4.774c-2.627-.706-4.058-1.168-4.058-1.168l4.2-1.064,25.876-6.5h16.666a33.17,33.17,0,0,0-1.073,4.087l22.6,1.29S719.643,252.176,720.716,258Z" transform="translate(-38.003 -13.324)" fill="#102048"/>
        <path id="Caminho_1112" data-name="Caminho 1112" d="M695.185,323.422c-1.243-5.217-7.109-29.887-7.881-34.067l-11.874-4.444.537-1.441,12.8,4.8v.527c.085,1.139,4.784,21.13,7.919,34.275Z" transform="translate(-39.439 -15.442)" fill="#3a6bea"/>
        <path id="Caminho_1113" data-name="Caminho 1113" d="M663.811,349.6a26.827,26.827,0,0,1-9.341-1.469l.574-1.422a29.931,29.931,0,0,0,15.188.725l.292,1.507a35.018,35.018,0,0,1-6.713.659Z" transform="translate(-38.215 -19.002)" fill="#3a6bea"/>
        <path id="Caminho_1114" data-name="Caminho 1114" d="M711.208,348.421a40.547,40.547,0,0,1-6.808-.6l.283-1.516c.1,0,10.5,1.949,15.292-1.412l.885,1.262C718.3,347.941,714.513,348.421,711.208,348.421Z" transform="translate(-41.131 -18.901)" fill="#3a6bea"/>
        <rect id="Retângulo_142" data-name="Retângulo 142" width="1.535" height="7.58" transform="translate(629.281 421.702) rotate(-52.54)" fill="#fff"/>
        <rect id="Retângulo_143" data-name="Retângulo 143" width="1.535" height="8.842" transform="translate(697.393 414.792) rotate(-67.9)" fill="#fff"/>
        <path id="Caminho_1115" data-name="Caminho 1115" d="M674.491,154.35s-26.365,3.324-33.041,33.032l7.938,35.376L645.8,246.3s35.857,3.578,72.739-2.561l-11.205-60.065Z" transform="translate(-37.455 -8.316)" fill="#ed7545"/>
        <path id="Caminho_1116" data-name="Caminho 1116" d="M693.76,232.364s-7.938-5.819,2.439-31.374l6.911,25.169Z" transform="translate(-40.34 -10.966)" fill="#6e3620"/>
        <path id="Caminho_1117" data-name="Caminho 1117" d="M2.043,0h0A2.053,2.053,0,0,1,4.1,2.053V35.084H0V2.053A2.053,2.053,0,0,1,2.043,0Z" transform="matrix(0.468, 0.884, -0.884, 0.468, 651.609, 169.155)" fill="#102048"/>
        <path id="Caminho_1118" data-name="Caminho 1118" d="M698.949,223.07l-.782-.424-10.188-5.5-17.071-9.237c-.311-2.062-.076-3.814,1.149-5.009l-.838-.339a4.492,4.492,0,0,1-2.674-3.324v-.179a7.738,7.738,0,0,1-.085-3.644l.4-.527a14.038,14.038,0,0,1,2.74-2.994l-2.184.122s-5.377,1.478-2.872-1.977c1.714-2.4,5.574-4.425,7.768-5.442a2.429,2.429,0,0,1,2.759.49c7.382,7.674,20.386,16.855,20.386,16.855l.141,1.883,1.262,17.25Z" transform="translate(-38.881 -10.046)" fill="#f9b384"/>
        <path id="Caminho_1119" data-name="Caminho 1119" d="M678.919,194.085l-4.651-2.269a2.477,2.477,0,0,0-1.554-.226l-4.962.866-.132-.763,4.953-.857a3.362,3.362,0,0,1,2.034.282l4.651,2.279Z" transform="translate(-38.983 -10.456)" fill="#e28b6d"/>
        <path id="Caminho_1120" data-name="Caminho 1120" d="M678.109,198.741l-5.574-2.137a2.206,2.206,0,0,0-.782-.141H668.58v-.772h3.22a2.872,2.872,0,0,1,1.055.2l5.574,2.137Z" transform="translate(-39.039 -10.725)" fill="#e28b6d"/>
        <path id="Caminho_1121" data-name="Caminho 1121" d="M677.363,203.375l-5.066-1.883a2.74,2.74,0,0,0-1.262-.16l-2.072.235-.094-.763,2.081-.235a3.543,3.543,0,0,1,1.62.207l5.056,1.883Z" transform="translate(-39.056 -10.992)" fill="#e28b6d"/>
        <path id="Caminho_1122" data-name="Caminho 1122" d="M700.2,222.045l-.65,1.572-10.188-5.5L696.1,201l2.834,3.795Z" transform="translate(-40.252 -10.982)" fill="#e28b6d"/>
        <path id="Caminho_1123" data-name="Caminho 1123" d="M693.94,234.13S709.185,248.6,721.6,248.254l-3.588-17.034Z" transform="translate(-40.52 -12.645)" fill="#ba5c36"/>
        <path id="Caminho_1124" data-name="Caminho 1124" d="M676.54,154.342a40.084,40.084,0,0,1,5-.094c30.763,1.055,54.321,27.523,52.824,58.267-.622,12.712-3.926,25.32-14.548,25.574l-26.892-8.475c2.542-9.51,4.435-19.369,2.438-31.374l12.477,5.96Z" transform="translate(-39.504 -8.326)" fill="#ed7545"/>
        <path id="Caminho_1125" data-name="Caminho 1125" d="M682.543,230.059l-37.58.923-1.036-3.183-3.776-11.61L629.21,182.573l37.589-.913Z" transform="translate(-36.74 -9.879)" fill="#d3dfff"/>
        <path id="Caminho_1126" data-name="Caminho 1126" d="M648.806,214.05s-.066,10.358-4.2,15.64l-3.766-11.61Z" transform="translate(-37.419 -11.708)" fill="#1f3c88" opacity="0.3"/>
        <path id="Caminho_1127" data-name="Caminho 1127" d="M629.88,212.34a35.777,35.777,0,0,1,5.706-10.537c.753-1.007,2.391-3.5,3.974-3.126,3.2.772,0,6.4,0,6.4s3.069-4.6,4.218-2.307-.508,4.868-.508,4.868,4.868-3.2,3.069,3.2c0,0,3.974-.508,1.544,3.842-1.742,3.107-2.825,6.591-5.038,9.416s-6.309,4.491-9.736,2.825c-4.021-1.93-4.539-7.071-4.04-10.989A21.581,21.581,0,0,1,629.88,212.34Z" transform="translate(-36.723 -10.842)" fill="#f9b384"/>
        <path id="Caminho_1128" data-name="Caminho 1128" d="M637.246,211.552a.483.483,0,0,1-.16,0,.4.4,0,0,1-.2-.509l3.654-8.258a.386.386,0,0,1,.508-.2.376.376,0,0,1,.189.508l-3.644,8.258A.386.386,0,0,1,637.246,211.552Z" transform="translate(-37.187 -11.091)" fill="#e28b6d"/>
        <path id="Caminho_1129" data-name="Caminho 1129" d="M641.216,214.876a.358.358,0,0,1-.16,0,.4.4,0,0,1-.188-.508l3.465-7.4a.377.377,0,0,1,.508-.179.386.386,0,0,1,.188.508l-3.465,7.392a.368.368,0,0,1-.348.188Z" transform="translate(-37.419 -11.323)" fill="#e28b6d"/>
        <path id="Caminho_1130" data-name="Caminho 1130" d="M644.276,217.6a.462.462,0,0,1-.179-.047.4.4,0,0,1-.16-.518l2.985-5.65a.386.386,0,0,1,.678.358l-2.975,5.65A.4.4,0,0,1,644.276,217.6Z" transform="translate(-37.598 -11.571)" fill="#e28b6d"/>
        <path id="Caminho_1131" data-name="Caminho 1131" d="M656.523,184.934H643.077l-2.307-4.614h13.446Z" transform="translate(-37.415 -9.88)" fill="#102048"/>
        <path id="Caminho_1132" data-name="Caminho 1132" d="M675.724,170.094a11.761,11.761,0,0,1-6.648-2.006.574.574,0,0,1-.1-.81.584.584,0,0,1,.81-.1c.217.169,5.433,4.049,12.41-.16a.573.573,0,1,1,.593.979A13.559,13.559,0,0,1,675.724,170.094Z" transform="translate(-39.055 -9.149)" fill="#ba5c36"/>
        <path id="Caminho_1133" data-name="Caminho 1133" d="M693.9,232.9h-.16a.565.565,0,0,1-.386-.716c5.518-18.71,2.458-30.941,2.42-31.073l-.216-.866,23.823,3.974a.577.577,0,0,1-.188,1.139l-22.09-3.7c.593,3.126,2.165,14.633-2.618,30.828A.584.584,0,0,1,693.9,232.9Z" transform="translate(-40.484 -10.923)" fill="#ba5c36"/>
        <path id="Caminho_1134" data-name="Caminho 1134" d="M711.909,202.4h0a.565.565,0,0,1-.537-.6A44.989,44.989,0,0,0,703.4,176.54a.584.584,0,0,1,.942-.65,46.139,46.139,0,0,1,8.164,25.97.574.574,0,0,1-.593.537Z" transform="translate(-41.07 -9.595)" fill="#ba5c36"/>
        <path id="Caminho_1135" data-name="Caminho 1135" d="M686.717,139.33v14.83a8.333,8.333,0,1,1-16.657,0V139.33Z" transform="translate(-39.125 -7.612)" fill="#f9b384"/>
        <path id="Caminho_1136" data-name="Caminho 1136" d="M678.845,141.355s-.866,9.162-8.785,11.808V140.15Z" transform="translate(-39.125 -7.669)" fill="#102048"/>
        <path id="Caminho_1137" data-name="Caminho 1137" d="M663.355,121.02s-2.589,20.8,5.518,23.277,15.518-4.708,15.518-4.708l-1.535-17.156L670.87,115.38Z" transform="translate(-38.711 -6.297)" fill="#f9b384"/>
        <path id="Caminho_1138" data-name="Caminho 1138" d="M709.043,161l-16.007,1.055c-2.025-2.222-3.164-5.358-3.917-8.9-.678,3.644-.141,6.667,1.648,9.058l-4.331.292c-3.842-5.753-7.072-18.474-3.258-29.35l.443-2.571s-2.74-8.286-6.7-8.635c0,0-13.6,9.171-19.651-1.064-4.52-7.618-.706-17.636,10.16-10.245,0,0,26.1-12.241,26.045,12.862a15.932,15.932,0,0,0,5.009,11.94,9.106,9.106,0,0,0,.942.782C705.249,140.871,711.567,150.117,709.043,161Z" transform="translate(-38.27 -5.849)" fill="#102048"/>
        <ellipse id="Elipse_78" data-name="Elipse 78" cx="4.557" cy="3.898" rx="4.557" ry="3.898" transform="matrix(0.307, -0.952, 0.952, 0.307, 640.655, 128.046)" fill="#f9b384"/>
        <path id="Caminho_1139" data-name="Caminho 1139" d="M685.216,133.448a.377.377,0,0,1-.386-.377,3.192,3.192,0,0,1,2.825-3.2h0a.4.4,0,0,1,.386.358.386.386,0,0,1-.367.4,2.411,2.411,0,0,0-2.128,2.439A.386.386,0,0,1,685.216,133.448Z" transform="translate(-39.988 -7.117)" fill="#102048"/>
        <path id="Caminho_1140" data-name="Caminho 1140" d="M666.283,129.742a.942.942,0,1,1-.942-.942A.942.942,0,0,1,666.283,129.742Z" transform="translate(-38.795 -7.06)" fill="#102048"/>
        <path id="Caminho_1141" data-name="Caminho 1141" d="M672.443,129.232a.942.942,0,1,1-.942-.942A.942.942,0,0,1,672.443,129.232Z" transform="translate(-39.155 -7.032)" fill="#102048"/>
        <path id="Caminho_1142" data-name="Caminho 1142" d="M667.794,136.27a.415.415,0,0,1-.273-.1,2.382,2.382,0,0,1-.942-2.156,2,2,0,0,1,1.111-1.252l-.085-1.883a.386.386,0,0,1,.367-.4.4.4,0,0,1,.4.367l.1,2.448-.273.094c-.207.075-.781.367-.875.81s.339,1.045.734,1.431a.386.386,0,0,1-.264.659Z" transform="translate(-38.922 -7.148)" fill="#102048"/>
        <path id="Caminho_1143" data-name="Caminho 1143" d="M668.636,139.441a2.827,2.827,0,0,1-.546,0,.367.367,0,0,1-.321-.433.4.4,0,0,1,.433-.32,4.953,4.953,0,0,0,3.682-1.205.367.367,0,0,1,.537,0,.376.376,0,0,1,0,.537A5.705,5.705,0,0,1,668.636,139.441Z" transform="translate(-38.991 -7.53)" fill="#102048"/>
        <circle id="Elipse_79" data-name="Elipse 79" cx="2.524" cy="2.524" r="2.524" transform="translate(634.578 124.087)" fill="#eb5d60" opacity="0.4"/>
      </g>
      <g id="homem" transform="translate(-10.387 11.424)">
        <path id="Caminho_1078" data-name="Caminho 1078" d="M114.537,439.114l-12.288-4.6L73.69,459.6h33.794Z" transform="translate(-4.303 -23.708)" fill="#102048"/>
        <path id="Caminho_1079" data-name="Caminho 1079" d="M116.633,439.4h27.147l-3.07,19.472-31.13,1.017Z" transform="translate(-6.398 -23.993)" fill="#f9b384"/>
        <path id="Caminho_1080" data-name="Caminho 1080" d="M226.4,323.53l-1,6.808-.6,4.1L220.5,363.925l-1.648,11.3-1.46,10.056-3.823,26.186-2.665,18.164A27.8,27.8,0,0,1,183.4,453.416H123.33l.075-.772,1.949-19.972.273-2.825,41.873-8.07,5.65-40.847a85.13,85.13,0,0,1-.885-31.327,76.193,76.193,0,0,1,2.429-11.186l18.681-5.367Z" transform="translate(-7.201 -17.228)" fill="#1f3c88"/>
        <path id="Caminho_1081" data-name="Caminho 1081" d="M217.108,416.88l-2.665,18.164a27.8,27.8,0,0,1-27.514,23.785H183.85C211.373,453.9,206,418.754,217.108,416.88Z" transform="translate(-10.735 -22.678)" fill="#102048"/>
        <rect id="Retângulo_140" data-name="Retângulo 140" width="11.158" height="1.535" transform="matrix(0.528, -0.849, 0.849, 0.528, 88.843, 435.5)" fill="#fff"/>
        <path id="Caminho_1082" data-name="Caminho 1082" d="M225.094,366.43l-3.107,21.318c-8.653-2.477-20.056-14.84-20.056-14.84Z" transform="translate(-11.791 -20.026)" fill="#102048"/>
        <path id="Caminho_1083" data-name="Caminho 1083" d="M291.594,423.444s-14.6,7.533-40.725,2.693l21.7-14.406Z" transform="translate(-14.649 -22.378)" fill="#102048"/>
        <path id="Caminho_1084" data-name="Caminho 1084" d="M284.1,434l-23.333.518-.141-5.038-.367-13.813L281,417.2l.979,5.33Z" transform="translate(-15.197 -22.608)" fill="#f9b384"/>
        <path id="Caminho_1085" data-name="Caminho 1085" d="M281.983,422.534l-21.356,6.949-.367-13.813L281,417.2Z" transform="translate(-15.197 -22.608)" fill="#e28b6d"/>
        <path id="Caminho_1086" data-name="Caminho 1086" d="M310.61,459.838l-25.743-20.753-.725-3.945-23.352.518.65,24.181Z" transform="translate(-15.228 -23.744)" fill="#102048"/>
        <rect id="Retângulo_141" data-name="Retângulo 141" width="10.876" height="1.535" transform="translate(268.595 426.953) rotate(-31.98)" fill="#fff"/>
        <path id="Caminho_1087" data-name="Caminho 1087" d="M177.84,338.471,261.37,325.2a20.415,20.415,0,0,1,11.516,1.516h0a20.471,20.471,0,0,1,12.147,18.051l2.3,73.587s-23.823-4.99-40.725,2.693l-1.535-50.329c-10.216,4.652-27.9,5.65-45.828,3.842Z" transform="translate(-10.384 -17.311)" fill="#1f3c88"/>
        <path id="Caminho_1088" data-name="Caminho 1088" d="M278.288,416.13h-1.525c0-12.73.3-23.3.574-32.627.659-22.712,1.026-35.216-4.764-40.489-4.708-4.284-14.03-4.153-27.608-2.552-14.548,1.695-20.348-13.785-20.4-13.945L226,325.99c.217.593,5.443,14.557,18.785,12.947,14.369-1.695,23.691-1.761,28.832,2.938,6.3,5.772,5.951,17.778,5.254,41.694C278.59,392.854,278.288,403.418,278.288,416.13Z" transform="translate(-13.112 -17.371)" fill="#3a6bea"/>
        <path id="Caminho_1089" data-name="Caminho 1089" d="M250.866,416.847l-.546-1.431c.2-.075,19.68-7.326,41.177-1.949l-.367,1.488C270.113,409.7,251.054,416.772,250.866,416.847Z" transform="translate(-14.616 -22.363)" fill="#3a6bea"/>
        <path id="Caminho_1090" data-name="Caminho 1090" d="M132.34,460.083c-2.392-4.783,1.309-24.614,1.469-25.423l1.507.283c-1.055,5.593-3.4,20.894-1.6,24.482Z" transform="translate(-7.681 -23.717)" fill="#3a6bea"/>
        <path id="Caminho_1091" data-name="Caminho 1091" d="M221.157,332.78a56.073,56.073,0,0,1-19.209,21.007,24.652,24.652,0,0,1-12.938,4.181,15.066,15.066,0,0,1-13.7-7.853,76.192,76.192,0,0,1,2.429-11.186l18.681-5.367,18.832-.593Z" transform="translate(-10.237 -18.175)" fill="#102048"/>
        <path id="Caminho_1092" data-name="Caminho 1092" d="M208.03,252.42v17.787h17.42V254.821Z" transform="translate(-12.147 -13.803)" fill="#ed7545"/>
        <path id="Caminho_1093" data-name="Caminho 1093" d="M225.45,243.29H208.03v8.6l17.42,2.4Z" transform="translate(-12.147 -13.318)" fill="#f9b384"/>
        <path id="Caminho_1094" data-name="Caminho 1094" d="M213.49,245.832c.377,0,4.2,5.979,12.241,8.559l-.113-9.331Z" transform="translate(-12.466 -13.418)" fill="#102048"/>
        <path id="Caminho_1095" data-name="Caminho 1095" d="M227.4,220.61s9.6,25.875-2.825,27.542-14.341-3.974-14.341-3.974l-3.842-13.7L214.977,219Z" transform="translate(-12.051 -11.952)" fill="#f9b384"/>
        <circle id="Elipse_75" data-name="Elipse 75" cx="2.693" cy="2.693" r="2.693" transform="translate(215.809 223.724) rotate(-88.94)" fill="#f9b384"/>
        <path id="Caminho_1096" data-name="Caminho 1096" d="M213.821,232.54s.64-13.832,13.06-12.3c0,0-8.352-10.734-19.369-6.591a15.81,15.81,0,0,0-9.887,13.456c-.706,7.693,3.766,16.469,10.066,18a119.593,119.593,0,0,1,5.49-10.763Z" transform="translate(-11.535 -11.603)" fill="#102048"/>
        <ellipse id="Elipse_76" data-name="Elipse 76" cx="3.776" cy="4.416" rx="3.776" ry="4.416" transform="translate(196.543 219.542) rotate(-25.17)" fill="#f9b384"/>
        <circle id="Elipse_77" data-name="Elipse 77" cx="3.522" cy="3.522" r="3.522" transform="translate(206.697 225.134) rotate(-89.427)" fill="#eb5d60" opacity="0.4"/>
        <path id="Caminho_1097" data-name="Caminho 1097" d="M215,236.12a.377.377,0,0,1-.386-.377,2.656,2.656,0,0,0-2.42-2.571.386.386,0,0,1-.329-.433.4.4,0,0,1,.433-.33,3.437,3.437,0,0,1,3.079,3.333.377.377,0,0,1-.377.377Z" transform="translate(-12.371 -12.736)" fill="#102048"/>
        <path id="Caminho_1098" data-name="Caminho 1098" d="M277,225.47s13.437,1.026,20.715,9.6L281.1,239.152Z" transform="translate(-16.174 -12.337)" fill="#ba5c36"/>
        <path id="Caminho_1099" data-name="Caminho 1099" d="M300.766,216.513c.066,1.224-3.315,7.354-5.81,11.7-1.459,2.5-2.6,4.416-2.6,4.416l-8.955,2.608-6.422-9.633-.3-.48s.085-.414.254-1.149h0v-.094c1.073-4.557,4.887-20.113,7.081-20.631,1.94-.452.8,8.07.8,8.07s4.774-13.851,7.608-13.286c2.251.452-2.175,13.729-2.175,13.729s1.591-1.657,3.183-1.139a2.825,2.825,0,0,1,1.883,2.166,2.222,2.222,0,0,1,2.279-.122c1.139.7,1.026,2.825,1.026,2.825S300.644,214.592,300.766,216.513Z" transform="translate(-16.156 -10.793)" fill="#f9b384"/>
        <path id="Caminho_1100" data-name="Caminho 1100" d="M200.961,264.68l-6.083,23.785-9.416,36.883c-6.412,2.825-13.183,3.889-18.531,2.994-6.224-1.026-10.574-4.708-10.282-11.064C157.4,299.99,200.961,264.68,200.961,264.68Z" transform="translate(-9.146 -14.353)" fill="#ed7545"/>
        <path id="Caminho_1101" data-name="Caminho 1101" d="M200.432,271.85l-4.915,17.034L186.1,325.766c-6.412,2.825-13.183,3.889-18.531,2.994C181.223,289.524,200.432,271.85,200.432,271.85Z" transform="translate(-9.785 -14.761)" fill="#ba5c36"/>
        <path id="Caminho_1102" data-name="Caminho 1102" d="M239,324.94c-12.674.857-52.626,33.9-62.231,12.589,0,0,1.337-79.509,42.372-78.041a17.307,17.307,0,0,1,15.838,12.034A80.638,80.638,0,0,1,237.72,284a166.247,166.247,0,0,1,1.563,19.858C239.462,310.016,239.387,317,239,324.94Z" transform="translate(-10.322 -14.005)" fill="#ed7545"/>
        <path id="Caminho_1103" data-name="Caminho 1103" d="M242.366,305.389c-6.346-4.105-12.966-16.478-12.966-16.478l11.4-3.381A166.237,166.237,0,0,1,242.366,305.389Z" transform="translate(-13.395 -15.608)" fill="#ba5c36"/>
        <path id="Caminho_1104" data-name="Caminho 1104" d="M294.975,229.82c-1.459,2.5-2.6,4.416-2.6,4.416l-8.955,2.608L277,227.212V225.47h0Z" transform="translate(-16.174 -12.342)" fill="#e28b6d"/>
        <path id="Caminho_1105" data-name="Caminho 1105" d="M221.78,257.51s19.708,1.384,31.619,3.691l20.358-35.781a46.307,46.307,0,0,0,20.715,9.6l-17.815,42A24.133,24.133,0,0,1,255.885,290.5l-30.518,1.045Z" transform="translate(-12.95 -12.218)" fill="#ed7545"/>
        <path id="Caminho_1106" data-name="Caminho 1106" d="M252.568,263.713h-.1c-.377-.066-37.6-6.892-43.935-1.29a.574.574,0,1,1-.763-.857c6.761-5.979,43.314.725,44.905,1.017a.574.574,0,0,1,.461.668.565.565,0,0,1-.565.461Z" transform="translate(-12.119 -14.197)" fill="#ba5c36"/>
      </g>
    </g>
  </g>
</svg>
