<svg id="Layer_1" data-name="Layer 1" xmlns="http://www.w3.org/2000/svg" xmlns:xlink="http://www.w3.org/1999/xlink" width="580" height="435.203" viewBox="0 0 580 435.203">
  <defs>
    <clipPath id="clip-path">
      <ellipse id="Elipse_11" data-name="Elipse 11" cx="33.43" cy="33.611" rx="33.43" ry="33.611" fill="#fff"/>
    </clipPath>
  </defs>
  <path id="Caminho_8" data-name="Caminho 8" d="M524.689,398.09l-.74-.454c42.073-68.8,63.995-130.954,65.168-184.749,1.211-55.632-20.248-89.649-38.458-108.383a124.344,124.344,0,0,0-64.475-35.254c-22.575-4.437-44.679-1.614-60.63,7.733l-.433-.754c16.133-9.454,38.458-12.315,61.235-7.84a125.3,125.3,0,0,1,64.927,35.506c18.325,18.86,39.92,53.08,38.7,109.05C588.808,266.855,566.839,329.157,524.689,398.09Z" transform="translate(-16.385 -2.211)" fill="#5178ed"/>
  <path id="Caminho_9" data-name="Caminho 9" d="M543.28,153.632c-19.652-42.794-57.822-76.251-105.3-82.06-37.872-4.64-75.955-5.259-114.01-7.6-40.151-2.5-79.474-9.957-119.144-16.52-25.469-4.2-47.775,2.011-72.475,11.02C98.624,70.779,66.012,110.5,51.32,142.284,15.881,218.844,35.456,315.153,66.7,389.75c1.529,3.654,12.076,32.741,15.239,32.741H494.957c24.921-36.733,45.342-77.15,56.726-118.9C565.114,254.05,564.97,200.883,543.28,153.632Z" transform="translate(-1.248 -1.537)" fill="#5178ed" opacity="0.178"/>
  <path id="Caminho_10" data-name="Caminho 10" d="M40.244,307.811C24.024,256.965,16.89,212.759,18.986,176.4c1.769-30.237,9.961-55.351,24.335-74.636,32.92-44.206,87.925-43.336,88.454-43.316v.87c-.529,0-55.12-.87-87.772,42.978-14.258,19.15-22.392,44.1-24.152,74.163-2.125,36.25,5,80.349,21.152,131.09Z" transform="translate(-0.718 -1.948)" fill="#5178ed"/>
  <rect id="Retângulo_32" data-name="Retângulo 32" width="317.781" height="311.373" rx="30.8" transform="translate(129.374 0.435)" fill="#e5e5ff"/>
  <path id="Caminho_11" data-name="Caminho 11" d="M441.671,312.233H145.234a11.164,11.164,0,0,1-11.124-11.194V11.194A11.164,11.164,0,0,1,145.234,0H441.671A11.174,11.174,0,0,1,452.8,11.194V301.049A11.174,11.174,0,0,1,441.671,312.233ZM145.234.87a10.306,10.306,0,0,0-10.268,10.324V301.049a10.306,10.306,0,0,0,10.259,10.324H441.671a10.306,10.306,0,0,0,10.268-10.324V11.194A10.306,10.306,0,0,0,441.671.87Z" transform="translate(-5.169)" fill="#cbcbff"/>
  <rect id="Retângulo_33" data-name="Retângulo 33" width="67.725" height="4.969" transform="translate(342.962 36.714)" fill="#9192ff"/>
  <rect id="Retângulo_34" data-name="Retângulo 34" width="107.905" height="4.969" transform="translate(321.694 58.097)" fill="#b7b7ff"/>
  <rect id="Retângulo_35" data-name="Retângulo 35" width="97.184" height="4.969" transform="translate(321.694 72.8)" fill="#b7b7ff"/>
  <rect id="Retângulo_36" data-name="Retângulo 36" width="86.022" height="4.969" transform="translate(321.694 87.493)" fill="#cbcbff"/>
  <rect id="Retângulo_37" data-name="Retângulo 37" width="107.905" height="4.969" transform="translate(321.694 102.186)" fill="#cbcbff"/>
  <rect id="Retângulo_38" data-name="Retângulo 38" width="79.647" height="4.969" transform="translate(321.694 116.88)" fill="#cbcbff"/>
  <rect id="Retângulo_39" data-name="Retângulo 39" width="103.559" height="4.969" transform="translate(152.276 197.48)" fill="#b7b7ff"/>
  <rect id="Retângulo_40" data-name="Retângulo 40" width="267.776" height="4.969" transform="translate(152.574 211.014)" fill="#cbcbff"/>
  <rect id="Retângulo_41" data-name="Retângulo 41" width="124.711" height="132.704" transform="translate(152.439 36.714)" fill="#fff"/>
  <rect id="Retângulo_42" data-name="Retângulo 42" width="8.672" height="30.518" transform="translate(163.717 124.371)" fill="#b7b7ff"/>
  <rect id="Retângulo_43" data-name="Retângulo 43" width="8.672" height="26.216" transform="translate(179.302 128.673)" fill="#e0e0ff"/>
  <rect id="Retângulo_44" data-name="Retângulo 44" width="8.672" height="42.843" transform="translate(194.878 112.046)" fill="#b7b7ff"/>
  <rect id="Retângulo_45" data-name="Retângulo 45" width="8.672" height="39.778" transform="translate(210.463 115.12)" fill="#e0e0ff"/>
  <rect id="Retângulo_46" data-name="Retângulo 46" width="8.672" height="53.505" transform="translate(226.049 101.384)" fill="#b7b7ff"/>
  <rect id="Retângulo_47" data-name="Retângulo 47" width="8.672" height="60.919" transform="translate(241.624 93.97)" fill="#e0e0ff"/>
  <rect id="Retângulo_48" data-name="Retângulo 48" width="8.672" height="67.531" transform="translate(257.209 87.358)" fill="#b7b7ff"/>
  <path id="Caminho_12" data-name="Caminho 12" d="M188.764,109.888,172.39,103.3l.317-.783,15.9,6.4,16.22-13.495,15.114.358,45.592-28.3.442.715-45.8,28.439-15.056-.348Z" transform="translate(-6.644 -2.249)" fill="#b7b7ff"/>
  <rect id="Retângulo_49" data-name="Retângulo 49" width="17.787" height="7.434" transform="translate(162.14 63.007)" fill="#b7b7ff"/>
  <rect id="Retângulo_50" data-name="Retângulo 50" width="16.643" height="0.87" transform="translate(185.812 67.27)" fill="#b7b7ff"/>
  <ellipse id="Elipse_8" data-name="Elipse 8" cx="19.421" cy="19.527" rx="19.421" ry="19.527" transform="translate(379.67 139.432)" fill="#fff"/>
  <path id="Caminho_13" data-name="Caminho 13" d="M356.751,183.293a19.527,19.527,0,1,1,19.412-19.523,19.474,19.474,0,0,1-19.412,19.523Z" transform="translate(-13.001 -4.808)" fill="#fff"/>
  <path id="Caminho_14" data-name="Caminho 14" d="M357.409,163.766,354.4,144.432a19.382,19.382,0,0,1,17.46,6.341Z" transform="translate(-13.659 -4.807)" fill="#b7b7ff"/>
  <rect id="Retângulo_51" data-name="Retângulo 51" width="266.516" height="51.504" transform="translate(154.554 234.581)" fill="#fff"/>
  <path id="Caminho_15" data-name="Caminho 15" d="M428.051,294.95H160.89v-52.2H428.051Zm-266.507-.657H427.4V243.446H161.544Z" transform="translate(-6.201 -8.092)" fill="#b7b7ff"/>
  <rect id="Retângulo_52" data-name="Retângulo 52" width="266.507" height="0.657" transform="translate(155.016 275.896)" fill="#b7b7ff"/>
  <rect id="Retângulo_53" data-name="Retângulo 53" width="266.507" height="0.657" transform="translate(155.016 265.601)" fill="#b7b7ff"/>
  <rect id="Retângulo_54" data-name="Retângulo 54" width="266.507" height="0.657" transform="translate(155.016 255.297)" fill="#b7b7ff"/>
  <rect id="Retângulo_55" data-name="Retângulo 55" width="266.507" height="0.657" transform="translate(155.016 244.992)" fill="#b7b7ff"/>
  <rect id="Retângulo_56" data-name="Retângulo 56" width="0.654" height="51.504" transform="translate(376.776 235.026)" fill="#b7b7ff"/>
  <rect id="Retângulo_57" data-name="Retângulo 57" width="0.654" height="51.504" transform="translate(332.357 235.026)" fill="#b7b7ff"/>
  <rect id="Retângulo_58" data-name="Retângulo 58" width="0.654" height="51.504" transform="translate(287.938 235.026)" fill="#b7b7ff"/>
  <rect id="Retângulo_59" data-name="Retângulo 59" width="0.654" height="51.504" transform="translate(243.528 235.026)" fill="#b7b7ff"/>
  <rect id="Retângulo_60" data-name="Retângulo 60" width="0.654" height="51.504" transform="translate(199.108 235.026)" fill="#b7b7ff"/>
  <path id="Caminho_16" data-name="Caminho 16" d="M168.808,286.783c3.846-5.423,4.711-12.412,8.172-18.125,1.692-2.794,3.923-5.558,7.019-6.767,5.326-2.146,6.73,4.766,6.807,8.613.163,5.655-.769,11.784,3.846,16.027a6.161,6.161,0,0,0,5.692,1.7c2.509-.677,4.067-2.987,5.307-5.1,3.557-6.08,5.817-13.04,8.278-19.614,1.25-3.316,2.836-7.569,6.105-9.425,4.653-2.658,5.163,3.209,5.153,6.3,0,3.383,0,6.767.048,10.16,0,1.634-.317,5.027,1.586,5.935,1.125.532,2.009-.483,2.634-1.305s.961-1.547,1.471-2.252a2.43,2.43,0,0,1,1.923-1.15c.856-.068,1.26-.077,1.836.706a4.627,4.627,0,0,1,.606,1.576c.673,2.542,0,5.423,1.413,7.733.8,1.315,2.519,2.61,4.125,2.359,3.259-.512,4.086-5.848,4.471-8.41a84.847,84.847,0,0,1,1.923-10.179c.961-3.374,2.173-7.4,4.721-9.918a4.85,4.85,0,0,1,3.74-1.759c2.1.242,2.759,2.62,3.269,4.321a41.715,41.715,0,0,1,1.846,11.909c0,2.784-.808,6.264,1.038,8.7a4.2,4.2,0,0,0,4.269,1.624c2.346-.59,2.884-2.9,3.394-4.949a8.973,8.973,0,0,1,.317-1.237c.462-1.17.644-1.305,1.923-1.363s1.433.271,1.654,1.421a30.681,30.681,0,0,0,.461,3.49c.433,1.45,1.452,2.784,3.125,2.281s2.365-2.117,2.884-3.519c1.471-4.031,1.327-8.5,1.548-12.712.144-2.794.365-5.8,1.654-8.333.836-1.653,3.3-4.321,5.211-2.581,2.481,2.262,2.231,7.782,2.288,10.836.125,6.535-.961,13.1-.058,19.623.337,2.436,1.029,6.071,3.721,7,3.721,1.276,6.471-2.8,7.461-5.8.788-2.368.961-4.833,1.529-7.269.288-1.276.74-3.606,2.471-2.9,1.49.619,2.106,2.745,3.413,3.7,4.23,3.093,6.826-2.9,7.326-6.216.721-4.775,0-10.034,1.75-14.606a6.533,6.533,0,0,1,2.211-3.084c2.586-1.711,5.134.657,5.913,3.084a20.241,20.241,0,0,1,.519,5.8c0,2.069.087,4.137.125,6.206.067,3.422-.24,6.9,0,10.314a7.164,7.164,0,0,0,3.077,5.858c5.105,3.354,11.076-1.875,14.335-5.549a44.248,44.248,0,0,0,8.105-14.336,40.01,40.01,0,0,1,3.452-7.733c.836-1.3,3.144-4.427,5.038-3.557,1.24.561,1.654,2.8,1.923,3.963a41.449,41.449,0,0,1,.827,5.955c.308,3.8.327,7.608.394,11.407.067,3.229.337,8.091,3.894,9.4,5.567,2.04,8.22-5.974,9.759-9.667,1.279-3.064,2.836-7.221,5.769-9.048,2.519-1.547,4.279.841,5.211,2.968a16.936,16.936,0,0,1,1.385,6.525c0,1.556-.106,3.5,1.586,4.253,3.692,1.634,7.057-4.5,8.49-6.921,1.308-2.214,2.307-4.524,3.4-6.834,1.375-2.9,5.884-8.468,7.759-2.9.711,2.107.462,4.379.327,6.544-.163,2.465-.337,4.94-.26,7.414.087,2.852.606,9.077,4.894,8.42,2.6-.406,5.269-3.277,7.211-4.911a94.888,94.888,0,0,0,8.105-7.627c.375-.406-.231-1.025-.615-.609a94.862,94.862,0,0,1-8.1,7.656,58.312,58.312,0,0,1-4.73,3.7c-2.144,1.45-4.24.793-5.1-1.431-1.683-4.369-.654-9.773-.433-14.316.135-2.707-.2-8.884-4.317-8.139-2.471.454-4.173,3.122-5.2,5.191-1.173,2.339-2.125,4.746-3.442,7.018s-2.807,4.92-4.98,6.428c-1.644,1.141-3.557.609-3.74-1.6-.087-1.015,0-2.02-.1-3.035-.346-2.9-1.452-7.733-4.605-8.961-4.384-1.643-7.576,5.8-8.817,8.7s-2.269,6.767-4.625,9.1c-1.663,1.634-4.365,2.194-6.067.309-1.24-1.382-1.558-3.557-1.731-5.336-.673-6.9.346-14.026-1.606-20.793-.567-1.933-1.644-4.36-4.048-3.509-4.019,1.431-5.855,6.689-7.23,10.314-2.192,5.8-4.625,11.339-8.893,15.94-2.461,2.658-6.038,5.945-9.893,5.868-5.067-.106-5.7-5.191-5.548-9.077s0-7.627-.1-11.436c-.067-3.064.346-6.767-1.163-9.531a5.1,5.1,0,0,0-5.1-2.842c-1.779.319-3.106,2.011-3.846,3.567-1.923,4.176-1.423,9.212-1.865,13.688-.25,2.552-.7,6.931-3.673,7.82-3.74,1.121-3.846-4.534-7-4.64-3.336-.116-3.365,7.936-3.942,10.053-.711,2.62-2.067,5.742-5.028,6.3-1.827.358-3.048-.8-3.759-2.388-1.615-3.606-1.423-8.139-1.317-12,.077-2.9.327-5.752.375-8.632.058-3.113.673-16.433-5.221-15.022-4.077.967-5.125,6.283-5.48,9.792-.49,4.669-.077,9.454-1.4,14.026a6.778,6.778,0,0,1-1.788,3.364c-1.029.841-2.259.116-2.769-.967a7.227,7.227,0,0,1-.394-2.436c-.115-1.334-.279-3.306-1.75-3.867-1.7-.648-3.1,1.1-3.615,2.513-.635,1.74-.423,4.031-2.182,5.181s-3.846.068-4.692-1.643-.567-3.963-.481-5.887a37.069,37.069,0,0,0-.212-5.8,35.163,35.163,0,0,0-2.317-10.034c-1.856-4.205-5.99-3.084-8.442-.068-4.173,5.114-5.23,12.9-6.134,19.217a20.438,20.438,0,0,1-1.538,5.984c-.462.967-1.125,2.069-2.25,2.262-1.923.319-3.442-1.856-3.846-3.412-.663-2.513,0-11.455-5.25-8.7-1.625.851-1.779,2.9-3.154,3.867-2.163,1.595-2.3-1.933-2.307-3.3,0-2.059,0-4.108-.058-6.158a75.581,75.581,0,0,0-.144-8.352c-.212-1.75-.75-3.789-2.538-4.514-4.865-1.933-8.49,5.945-9.8,9.251-2.769,7.008-4.98,14.5-8.874,21-2.134,3.567-5.769,6.235-9.442,2.9-2.615-2.388-3.577-5.887-3.654-9.319-.087-4.456,1.24-13.466-4.077-15.786-4.625-2.011-9.538,4.408-11.489,7.733-3.355,5.645-4.221,12.567-8.019,17.854-.327.464.423.9.75.445Z" transform="translate(-6.476 -8.383)" fill="#9192ff"/>
  <rect id="Retângulo_61" data-name="Retângulo 61" width="74.725" height="52.596" rx="13.12" transform="translate(351.077 368.368)" fill="#e0e0ff"/>
  <rect id="Retângulo_62" data-name="Retângulo 62" width="71.427" height="0.831" transform="translate(352.721 391.162)" fill="#b7b7ff"/>
  <path id="Caminho_17" data-name="Caminho 17" d="M403.759,412.267a6.016,6.016,0,0,1-6-6.022v-1.6h12v1.6a6.016,6.016,0,0,1-6,6.022Zm-5.173-6.767v.764a5.173,5.173,0,1,0,10.345,0V405.5Z" transform="translate(-15.33 -13.488)" fill="#b7b7ff"/>
  <path id="Caminho_18" data-name="Caminho 18" d="M417.577,383.358h-.827V372.57a2.637,2.637,0,0,0-.769-1.863,2.608,2.608,0,0,0-1.855-.767H392.762a2.608,2.608,0,0,0-1.855.767,2.637,2.637,0,0,0-.769,1.863v10.788h-.827V372.57a3.461,3.461,0,0,1,3.452-3.47h21.364a3.461,3.461,0,0,1,3.452,3.47Z" transform="translate(-15.004 -12.303)" fill="#b7b7ff"/>
  <rect id="Retângulo_63" data-name="Retângulo 63" width="4.029" height="4.369" transform="translate(372.719 368.368)" fill="#b7b7ff"/>
  <rect id="Retângulo_64" data-name="Retângulo 64" width="4.029" height="4.369" transform="translate(400.13 368.368)" fill="#b7b7ff"/>
  <rect id="Retângulo_65" data-name="Retângulo 65" width="53.255" height="44.631" transform="translate(160.044 376.333)" fill="#e0e0ff"/>
  <rect id="Retângulo_66" data-name="Retângulo 66" width="61.101" height="9.377" transform="translate(156.122 373.172)" fill="#b7b7ff"/>
  <path id="Caminho_19" data-name="Caminho 19" d="M219.725,434.15H166.46V395.59S188.035,428.186,219.725,434.15Z" transform="translate(-6.416 -13.186)" fill="#b7b7ff" opacity="0.6"/>
  <path id="Caminho_20" data-name="Caminho 20" d="M528.116,40.87a33.234,33.234,0,0,0-18.527,60.687l-1.269,15.3,12.393-10.43a32.927,32.927,0,0,0,33.22-11.616A33.351,33.351,0,0,0,557.9,59.678,33.011,33.011,0,0,0,528.116,40.87Z" transform="translate(-19.082 -1.362)" fill="#fff"/>
  <path id="Caminho_21" data-name="Caminho 21" d="M507.78,117.843l1.336-16.085a33.848,33.848,0,0,1-10.332-44.172,33.6,33.6,0,1,1,22.023,49.3ZM528.1,41.293a32.788,32.788,0,0,0-18.268,59.933l.212.145-1.2,14.5,11.759-9.9h.211a32.74,32.74,0,1,0,7.307-64.689Z" transform="translate(-19.061 -1.34)" fill="#5254cf"/>
  <rect id="Retângulo_67" data-name="Retângulo 67" width="9.816" height="10.247" transform="translate(504.833 79.702)" fill="#fff"/>
  <path id="Caminho_22" data-name="Caminho 22" d="M535.3,93.117H524.62V82H535.3Zm-9.816-.88h8.951V82.87h-8.951Z" transform="translate(-20.22 -2.733)" fill="#5254cf"/>
  <path id="Caminho_23" data-name="Caminho 23" d="M537.821,74.842a7.978,7.978,0,1,0-14.864,3.983,14.21,14.21,0,0,1,2,7.047V87.7h9.816V85.766a13.917,13.917,0,0,1,1.99-6.95,8.057,8.057,0,0,0,1.058-3.973Z" transform="translate(-20.114 -2.226)" fill="#fff"/>
  <path id="Caminho_24" data-name="Caminho 24" d="M535.179,88.12H524.5V85.868a13.657,13.657,0,0,0-1.923-6.834,8.437,8.437,0,0,1-1.134-4.321,8.524,8.524,0,0,1,8-8.323,8.382,8.382,0,0,1,7.6,4.03,8.478,8.478,0,0,1,.1,8.634,13.425,13.425,0,0,0-1.923,6.767Zm-9.816-.841h8.951V85.791a14.248,14.248,0,0,1,2.086-7.211,7.594,7.594,0,0,0-.077-7.726,7.569,7.569,0,0,0-13.09.283,7.6,7.6,0,0,0,.072,7.443,14.559,14.559,0,0,1,2.058,7.269Z" transform="translate(-20.097 -2.213)" fill="#5254cf"/>
  <path id="Caminho_25" data-name="Caminho 25" d="M528.191,74.056a1.513,1.513,0,0,1-2.039-.132,1.533,1.533,0,0,1-.065-2.053,1.513,1.513,0,0,1,2.027-.261,1.776,1.776,0,0,1,.077,2.446Z" transform="translate(-20.262 -2.378)" fill="#fff"/>
  <path id="Caminho_26" data-name="Caminho 26" d="M526.523,75.445a1.59,1.59,0,0,1-.961-.29,1.714,1.714,0,0,1-.7-1.4,2.9,2.9,0,0,1,1.923-2.7,1.646,1.646,0,0,1,1.557.186,1.666,1.666,0,0,1,.7,1.409,2.91,2.91,0,0,1-.519,1.643h0a2.78,2.78,0,0,1-1.365,1.054A2.047,2.047,0,0,1,526.523,75.445Zm.865-3.615a1.129,1.129,0,0,0-.346.058,2.02,2.02,0,0,0-1.288,1.837.969.969,0,0,0,.336.725.957.957,0,0,0,.788.068,1.924,1.924,0,0,0,.961-.725h0a1.941,1.941,0,0,0,.356-1.112.9.9,0,0,0-.317-.715.747.747,0,0,0-.49-.135Z" transform="translate(-20.229 -2.365)" fill="#5254cf"/>
  <path id="Caminho_1144" data-name="Caminho 1144" d="M.017,0,.885,0,.868,6.33,0,6.332Z" transform="translate(493.901 59.292) rotate(-51.55)" fill="#5254cf"/>
  <rect id="Retângulo_69" data-name="Retângulo 69" width="0.864" height="8.526" transform="translate(508.727 51.337) rotate(-1.718)" fill="#5254cf"/>
  <path id="Caminho_1145" data-name="Caminho 1145" d="M0,.019,7.165,0l0,.868L0,.887Z" transform="translate(518.886 61.855) rotate(-44.21)" fill="#5254cf"/>
  <path id="Caminho_27" data-name="Caminho 27" d="M96.144,83.255a28.982,28.982,0,1,0-21.421,28.169L84.809,119.9,83.751,107.17A29.192,29.192,0,0,0,96.144,83.255Z" transform="translate(-1.47 -1.804)" fill="#fff"/>
  <path id="Caminho_28" data-name="Caminho 28" d="M85.3,120.886l-10.7-9a29.675,29.675,0,1,1,9.615-4.524Zm-10.49-9.966,9.461,7.956-.961-11.938.2-.145a28.846,28.846,0,0,0,8.257-37.96,28.514,28.514,0,0,0-36.9-11.556,28.741,28.741,0,0,0,19.72,53.741Z" transform="translate(-1.448 -1.783)" fill="#5254cf"/>
  <path id="Caminho_29" data-name="Caminho 29" d="M67.55,92.956l-8.23-8.275.606-.619,7.336,7.376,8.5-19.469.8.348Z" transform="translate(-2.286 -2.399)" fill="#5254cf"/>
  <path id="Caminho_30" data-name="Caminho 30" d="M228.6,123.479l-7.788,4.582L138.031,176.8c-2.548,1.508-5.528,1.15-6.73-.793h0c-1.183-1.933-.125-4.775,2.365-6.37l80.763-51.659,7.778-4.969Z" transform="translate(-5.042 -3.767)" fill="#5254cf"/>
  <path id="Caminho_31" data-name="Caminho 31" d="M231.954,123.48l-7.788,4.582a24.753,24.753,0,0,1-3.98-4.978A25.321,25.321,0,0,1,217.83,118l7.778-4.969Z" transform="translate(-8.395 -3.768)" fill="#1b1b43" opacity="0.6"/>
  <path id="Caminho_32" data-name="Caminho 32" d="M220.981,126.373a2.6,2.6,0,0,1-3.584-.868,2.628,2.628,0,0,1,.867-3.6,2.616,2.616,0,0,1,2.717,4.471Z" transform="translate(-8.364 -4.051)" fill="#fff"/>
  <ellipse id="Elipse_9" data-name="Elipse 9" cx="41.208" cy="41.431" rx="41.208" ry="41.431" transform="translate(210.646 53.737)" fill="#5254cf"/>
  <ellipse id="Elipse_10" data-name="Elipse 10" cx="33.43" cy="33.611" rx="33.43" ry="33.611" transform="translate(218.424 61.557)" fill="#fff"/>
  <g id="Grupo_25" data-name="Grupo 25" transform="translate(218.424 61.557)" clip-path="url(#clip-path)">
    <rect id="Retângulo_71" data-name="Retângulo 71" width="10.48" height="64.66" transform="translate(9.365 44.969)" fill="#b7b7ff"/>
    <rect id="Retângulo_72" data-name="Retângulo 72" width="10.48" height="73.621" transform="translate(28.19 36.443)" fill="#e0e0ff"/>
    <rect id="Retângulo_73" data-name="Retângulo 73" width="10.48" height="81.616" transform="translate(47.015 27.289)" fill="#b7b7ff"/>
    <path id="Caminho_1146" data-name="Caminho 1146" d="M0,.079,50.437,0l0,1.3L0,1.384Z" transform="translate(-2.244 30.296) rotate(-17.74)" fill="#b7b7ff"/>
    <path id="Caminho_33" data-name="Caminho 33" d="M271.6,85.323l-1.058-.764,3.154-4.466-4.577-1.576.423-1.237,5.057,1.74a.92.92,0,0,1,.413,1.469Zm2.567-5.065Zm-.183-.57Z" transform="translate(-228.796 -64.133)" fill="#b7b7ff"/>
  </g>
  <g id="Grupo_92" data-name="Grupo 92" transform="translate(-24.414 14.645)">
    <path id="Caminho_34" data-name="Caminho 34" d="M175.474,416.96l-17.624.271c.048-2.368.135-4.727.24-6.883.231-5.375.538-9.531.538-9.531l15.028-.106s-.067,1.508,0,3.76a48.5,48.5,0,0,0,1.817,12.489Z" transform="translate(-6.084 -13.357)" fill="#ffbc96"/>
    <path id="Caminho_35" data-name="Caminho 35" d="M181.29,424.905c-2.884-.9-4.682-3.867-5.769-7.385l-17.633.271c-.125,5.568-.077,11.165.452,14.316a2.822,2.822,0,0,0,2.769,2.368h25.834a3.625,3.625,0,0,0,2.692-1.119,3.665,3.665,0,0,0,1.01-2.747C190.337,428.076,187.376,426.8,181.29,424.905Z" transform="translate(-6.083 -13.917)" fill="#1b1b43"/>
    <path id="Caminho_36" data-name="Caminho 36" d="M173.666,404.47,158.1,410.348c.231-5.375.538-9.531.538-9.531l15.028-.106S173.6,402.218,173.666,404.47Z" transform="translate(-6.093 -13.357)" fill="#d28572"/>
    <path id="Caminho_37" data-name="Caminho 37" d="M165.852,434.575c-.548-2.629-1.644-4.456-3.25-5.433a6.115,6.115,0,0,0-4.452-.638l-.24-.841a6.919,6.919,0,0,1,5.125.725c1.836,1.1,3.067,3.122,3.673,6.013Z" transform="translate(-6.086 -14.249)" fill="#656590"/>
    <path id="Caminho_38" data-name="Caminho 38" d="M95.073,397.609a62.977,62.977,0,0,0-2.884,8.7,37.488,37.488,0,0,0-1.154,7.153L74.44,407.44c2.125-5.259,4.4-10.411,5.625-13.118v-.068c.529-1.189.846-1.885.846-1.885Z" transform="translate(-2.869 -13.079)" fill="#ffbc96"/>
    <path id="Caminho_39" data-name="Caminho 39" d="M93.7,422.943c-2.384-1.866-3.029-5.278-2.884-8.98L74.223,407.94c-2.077,5.162-4.009,10.421-4.615,13.533a2.835,2.835,0,0,0,1.759,3.2l24.152,9.183a3.62,3.62,0,0,0,4.807-2.3C101.038,429.12,98.721,426.877,93.7,422.943Z" transform="translate(-2.681 -13.598)" fill="#1b1b43"/>
    <path id="Caminho_40" data-name="Caminho 40" d="M95.279,397.61a62.979,62.979,0,0,0-2.884,8.7l-12.6-10.633.481-1.334v-.068c.529-1.189.846-1.885.846-1.885Z" transform="translate(-3.075 -13.08)" fill="#d28572"/>
    <path id="Caminho_41" data-name="Caminho 41" d="M75.37,426.293l-.779-.406a6.7,6.7,0,0,0-2.7-9.444l.394-.783C72.352,415.7,79,419.295,75.37,426.293Z" transform="translate(-2.771 -13.855)" fill="#656590"/>
    <path id="Caminho_42" data-name="Caminho 42" d="M179.719,397.338l-27.642,2.185-5.769-99.228-8.557-32.625L126.5,225.01l-.586-2.223-2.7-10.285-.394-1.537,5.288-.483,28.536-2.571,1.721,7.849h0l17.114,77.807a43.42,43.42,0,0,1,.961,7.733Z" transform="translate(-4.734 -6.93)" fill="#5254cf"/>
    <path id="Caminho_43" data-name="Caminho 43" d="M138.068,245.7l-2.192,22.079-3.567,35.767A50.118,50.118,0,0,1,129.6,315.6l-29.449,81.877-24.738-9.6,23.008-83.81c5.932-34.491,4.952-60.968,6.471-77.768q.144-1.566.317-3.016c.615-5.143,1.567-9.222,3.192-12.18l12.989,1.537,9.153,1.083,1.99,8.458.394,1.711Z" transform="translate(-2.906 -7.037)" fill="#5254cf"/>
    <path id="Caminho_44" data-name="Caminho 44" d="M157.758,215.73l.3,3.354s-38.776,10.469-51.986,7.047q.144-1.566.317-3.016c.615-5.143,1.567-9.222,3.192-12.18l12.989,1.537-.394-1.537,5.288-.483L156,207.91Z" transform="translate(-4.088 -6.93)" fill="#1b1b43" opacity="0.6"/>
    <path id="Caminho_45" data-name="Caminho 45" d="M145.815,302.048l-12.96-51.485-10.624-3.422.26-.831,11.086,3.567.058.232,13.028,51.726Z" transform="translate(-4.711 -8.21)" fill="#1b1b43"/>
    <path id="Caminho_46" data-name="Caminho 46" d="M167.438,306.11l-.308-.812a61.3,61.3,0,0,0,10.576-4.978l.471.735a60.24,60.24,0,0,1-10.739,5.056Z" transform="translate(-6.441 -10.011)" fill="#1b1b43"/>
    <path id="Caminho_47" data-name="Caminho 47" d="M132.405,315.258a94.5,94.5,0,0,1-13.1-2.417l.231-.841a93.4,93.4,0,0,0,12.932,2.388Z" transform="translate(-4.598 -10.4)" fill="#1b1b43"/>
    <path id="Caminho_1147" data-name="Caminho 1147" d="M.047,0,.917,0,.869,26.842l-.869,0Z" transform="matrix(0.345, -0.939, 0.939, 0.345, 74.51, 374.097)" fill="#1b1b43"/>
    <rect id="Retângulo_76" data-name="Retângulo 76" width="27.7" height="0.862" transform="translate(147.185 385.935) rotate(-4.004)" fill="#1b1b43"/>
    <path id="Caminho_48" data-name="Caminho 48" d="M119.585,145.75,107.836,150.5a13.871,13.871,0,0,0-7.567,7.482L90.414,181.7a11.845,11.845,0,0,0,3.25,13.533h0a11.69,11.69,0,0,0,11.7,2.117l8.326-3.084Z" transform="translate(-3.45 -4.858)" fill="#ffb147"/>
    <path id="Caminho_49" data-name="Caminho 49" d="M205.111,123.442c-2.192,1.092-4.73,5.732-3.769,7.4.788,1.373,2.625-.483,3.23-1.121,1.106-1.16,3.971-4.282,2.394-6.051a1.446,1.446,0,0,0-1.856-.232Z" transform="translate(-7.752 -4.107)" fill="#ffbc96"/>
    <path id="Caminho_50" data-name="Caminho 50" d="M199.65,125.173c-1.817,1.643-3.019,6.767-1.644,8.149,1.125,1.1,2.394-1.179,2.807-1.933.76-1.421,2.682-5.2.683-6.477a1.427,1.427,0,0,0-1.846.261Z" transform="translate(-7.608 -4.156)" fill="#ffbc96"/>
    <path id="Caminho_51" data-name="Caminho 51" d="M195.976,127.853c-1.836,1.585-3.134,6.467-1.8,7.733,1.086.967,2.394-1.16,2.817-1.933.779-1.363,2.769-4.959.817-6.119a1.5,1.5,0,0,0-1.836.319Z" transform="translate(-7.463 -4.245)" fill="#ffbc96"/>
    <path id="Caminho_52" data-name="Caminho 52" d="M192.486,129.1c-1.846,1.585-3.134,6.457-1.808,7.733,1.086.967,2.394-1.16,2.827-1.933.779-1.353,2.769-4.949.817-6.109a1.494,1.494,0,0,0-1.836.309Z" transform="translate(-7.328 -4.287)" fill="#ffbc96"/>
    <path id="Caminho_53" data-name="Caminho 53" d="M120.12,145.795l-12.23,21.131s3.182,34.926.865,39.208-7.528,7.656-4.336,10.111,28.363,6.767,55.563.309c7.528-2.146,2.317-6.129.577-7.965s-4.048-48.092-4.048-48.092l-15.643-14.336-11.537-3.122Z" transform="translate(-3.986 -4.768)" fill="#ffb147"/>
    <path id="Caminho_54" data-name="Caminho 54" d="M141.247,146.2c-2.173,3.818-27.719,7.733-20.508-.5l7.374-1.566Z" transform="translate(-4.604 -4.804)" fill="#1b1b43" opacity="0.2"/>
    <path id="Caminho_55" data-name="Caminho 55" d="M175.233,171.142,165.147,156.11a16.058,16.058,0,0,0-10.518-7.376L142.38,146.26l7.24,27.279s11.288,15.931,21.489,19.643c9.153,3.335,21.3-2.136,28-38.116l-15.181-2.088Z" transform="translate(-5.488 -4.875)" fill="#ffb147"/>
    <path id="Caminho_56" data-name="Caminho 56" d="M209.058,133.25c-1.538-.193-6.807,7.791-6.807,7.791l-8.509,2.9a12.329,12.329,0,0,0-7.105,6.332l-1.086,2.272,15.181,2.088c.25-1.344.49-2.716.731-4.147C206.712,145.768,212.5,133.685,209.058,133.25Z" transform="translate(-7.151 -4.442)" fill="#ffbc96"/>
    <path id="Caminho_57" data-name="Caminho 57" d="M144.422,111.38l3.077,4.282a1.346,1.346,0,0,1-.673,2.059L143.537,119l-2.317-5.181Z" transform="translate(-5.443 -3.713)" fill="#d28572"/>
    <path id="Caminho_58" data-name="Caminho 58" d="M123.85,135.176a132.462,132.462,0,0,0,.461-15.766l14.028.967a40.349,40.349,0,0,0-.077,4.833,66.372,66.372,0,0,0,.779,7.733c.221,1.392.471,2.755.74,4.06Z" transform="translate(-4.773 -3.98)" fill="#ffbc96"/>
    <path id="Caminho_59" data-name="Caminho 59" d="M139.32,133.161a16.276,16.276,0,0,1-8.22-7.811l7.442.106a66.367,66.367,0,0,0,.779,7.7Z" transform="translate(-5.053 -4.178)" fill="#d28572"/>
    <path id="Caminho_60" data-name="Caminho 60" d="M123.724,135.71l-2.884,9.667a51.157,51.157,0,0,0,20.758.5l-1.923-8.352Z" transform="translate(-4.657 -4.524)" fill="#fff5e8"/>
    <path id="Caminho_61" data-name="Caminho 61" d="M143.337,103.825l1.452,19.527a2.673,2.673,0,0,1-1.1,2.272,6.286,6.286,0,0,1-4.6,1.6l-9.941-.416-7.1-7.994,5.5-17.023,9.99-.145Z" transform="translate(-4.704 -3.388)" fill="#ffbc96"/>
    <path id="Caminho_62" data-name="Caminho 62" d="M126.708,115.2s2.606,8.178-2.884,12.325c-5.971-1.933-17.037-20.184-3.25-25.965,0,0,3.8-9.667,14.1-6.119,9.105,3.18,11.538,8.7,11.538,8.7a12.825,12.825,0,0,1-13.893.319S133.006,114.216,126.708,115.2Z" transform="translate(-4.392 -3.155)" fill="#1b1b43"/>
    <path id="Caminho_63" data-name="Caminho 63" d="M130.687,112.387a4.287,4.287,0,0,1-1.1,5.837,4.235,4.235,0,0,1-5.839-.906,4.289,4.289,0,0,1,.705-5.9,4.446,4.446,0,0,1,6.23.967Z" transform="translate(-4.736 -3.685)" fill="#ffbc96"/>
    <path id="Caminho_64" data-name="Caminho 64" d="M128.865,117.183c0-.145-.9-3.47-3.23-2.968l-.135-.638c2.356-.512,3.644,2.03,4,3.441Z" transform="translate(-4.837 -3.784)" fill="#1b1b43"/>
    <path id="Caminho_1148" data-name="Caminho 1148" d="M2.912,0a2.895,2.895,0,1,1-.007,5.79A2.895,2.895,0,1,1,2.912,0Z" transform="translate(130.085 114.829) rotate(-76.72)" fill="#fe5b52" opacity="0.4"/>
    <path id="Caminho_65" data-name="Caminho 65" d="M107.552,218.866c-2.634-.628-4.125-1.6-4.557-3-.7-2.272,1.625-4.833,3.682-7.153l.961-1.034a5.076,5.076,0,0,0,1.125-2.262c1.923-9.077-1.25-37.333-1.279-37.623l.865-.1c.125,1.17,3.2,28.681,1.269,37.893a5.986,5.986,0,0,1-1.327,2.658l-.961,1.044c-1.808,2.011-4.057,4.514-3.5,6.312.327,1.054,1.654,1.866,3.932,2.417Z" transform="translate(-3.965 -5.59)" fill="#1b1b43"/>
    <path id="Caminho_66" data-name="Caminho 66" d="M160.108,218.6v-.87c2.971-.135,4.807-.851,5.25-2.059s-.385-3.055-2.346-5.007a3.768,3.768,0,0,1-.961-1.875c-1.567-7.047-3.23-30.373-3.24-30.6l.865-.068c0,.242,1.673,23.49,3.221,30.489a2.837,2.837,0,0,0,.769,1.44c2.25,2.243,3.163,4.35,2.548,5.935S163.492,218.4,160.108,218.6Z" transform="translate(-6.121 -5.937)" fill="#1b1b43"/>
    <path id="Caminho_67" data-name="Caminho 67" d="M174.889,175.273l-.779-.387L184.9,152.73l15.489,2.127-.115.86-14.874-2.03Z" transform="translate(-6.71 -5.091)" fill="#1b1b43"/>
  </g>
  <g id="Grupo_93" data-name="Grupo 93" transform="translate(-2.591 13.131)">
    <path id="Caminho_68" data-name="Caminho 68" d="M446.388,119.151c-5.144-3.132-6.3-12.083-1.519-14.771s7.817-.29,7.817-.29,16.008-5.877,22.065,9.1c4.557,11.271.961,17.168,4.923,22.842,4.528,6.467,11.788,12.286,2.307,23.635l-22.114-5.452L454.1,126.788Z" transform="translate(-17.029 -3.432)" fill="#1b1b43"/>
    <path id="Caminho_69" data-name="Caminho 69" d="M525.608,379.76l-16.278,7.2s2.336,6.071,4.346,13.147l16.739-5.384Z" transform="translate(-19.63 -12.659)" fill="#ffbc96"/>
    <path id="Caminho_70" data-name="Caminho 70" d="M530.363,395.24l-16.739,5.384c2.288,8.091,4.144,17.5,1.529,20.561-3.4,3.992-6.375,7.289-7.086,10.053a1.94,1.94,0,0,0,.629,2.037,1.915,1.915,0,0,0,2.111.215l21.633-10.972a7.616,7.616,0,0,0,3.519-9.831Z" transform="translate(-19.579 -13.175)" fill="#1b1b43"/>
    <path id="Caminho_1149" data-name="Caminho 1149" d="M0,.028,17.836,0V.866L0,.894Z" transform="translate(493.869 390.629) rotate(-17.526)" fill="#656590"/>
    <path id="Caminho_71" data-name="Caminho 71" d="M512.123,426.118l-.173-.851c4.144-.889,6.557-2.417,7.172-4.553.961-3.509-3.154-7.617-3.192-7.656l.606-.628c.183.184,4.567,4.514,3.413,8.526C519.247,423.431,516.613,425.161,512.123,426.118Z" transform="translate(-19.731 -13.748)" fill="#656590"/>
    <path id="Caminho_72" data-name="Caminho 72" d="M460.112,396.2,441.3,397.94a97.284,97.284,0,0,1-.086,13.456l18.095-.271Z" transform="translate(-17.005 -13.207)" fill="#ffbc96"/>
    <path id="Caminho_73" data-name="Caminho 73" d="M440.527,411.909c-.519,5.964-1.865,11.948-5.125,13.321-6.942,2.9-12.441,4.94-11.864,9.019h26.7a7.575,7.575,0,0,0,7.548-7.184l.836-15.465Z" transform="translate(-16.322 -13.72)" fill="#1b1b43"/>
    <rect id="Retângulo_78" data-name="Retângulo 78" width="0.868" height="17.364" transform="matrix(0.017, -1, 1, 0.017, 424.255, 403.191)" fill="#656590"/>
    <path id="Caminho_74" data-name="Caminho 74" d="M435.259,428.859a18.47,18.47,0,0,1-4.029-.522l.192-.851c3.846.86,6.394.59,7.471-.754,1.442-1.808,0-5.036,0-5.075l.788-.367c.067.155,1.7,3.77-.067,5.984Q438.306,428.859,435.259,428.859Z" transform="translate(-16.62 -14.043)" fill="#656590"/>
    <path id="Caminho_75" data-name="Caminho 75" d="M459.418,394.694a4.786,4.786,0,0,1-.625.174c-3.759.87-16.2,0-16.2,0a13.149,13.149,0,0,1-1.615-.464c-11.634-4.263-10.845-24.708-9.1-42.6,1.606-16.433-5.211-100.1-.51-128.567l29.449-6.486.173,4.988.356,10.179.625,18.009s1.115,17.4,2.634,39.256c2.279,32.741,5.471,75.4,7.211,84.1C474.59,387.231,464.129,393.312,459.418,394.694Z" transform="translate(-16.561 -7.225)" fill="#5254cf"/>
    <path id="Caminho_76" data-name="Caminho 76" d="M526.767,376.71a13.665,13.665,0,0,1-2.144,2.02c-3.961,3.064-9.3,4.186-13.989,5.462a16.868,16.868,0,0,1-2.557.5c-4.365.541-9.134-.464-11.172-4.2-10.432-19.15-22.239-57.169-31.584-91.137-6.826-24.8-12.336-47.454-15.085-58.967-1.2-5.1-1.875-8.033-1.875-8.033l13.345-.406,22.69-.686c.615,3.074,1.317,6.312,2.115,9.667,7.749,33.2,23.037,78.89,28.978,96.406,3.586,10.469,9.018,19.807,11.4,30.769C528.161,363.882,531.113,371.674,526.767,376.71Z" transform="translate(-17.28 -7.376)" fill="#5254cf"/>
    <path id="Caminho_77" data-name="Caminho 77" d="M485.868,230.748a102.482,102.482,0,0,1-24.45,1.2,81.253,81.253,0,0,1-11.826-1.74c-11.884-2.629-18.152-6.941-18.152-6.941l29.449-6.486.173,4.988,22.69-.686C484.368,224.156,485.07,227.394,485.868,230.748Z" transform="translate(-16.628 -7.226)" fill="#1b1b43" opacity="0.6"/>
    <path id="Caminho_78" data-name="Caminho 78" d="M464.841,290.569l-9.086-32.345-9.345-3.412.3-.822,9.759,3.567.067.213,9.143,32.567Z" transform="translate(-17.205 -8.466)" fill="#1b1b43"/>
    <path id="Caminho_79" data-name="Caminho 79" d="M521.751,380.712l-.75-.435c4.375-7.656-4.4-31.223-15.528-61.074-10.8-29-24.238-65.057-29.1-97.237l.865-.126c4.807,32.084,18.268,68.111,29.055,97.053C517.492,348.957,526.337,372.7,521.751,380.712Z" transform="translate(-18.36 -7.395)" fill="#1b1b43"/>
    <path id="Caminho_80" data-name="Caminho 80" d="M437.208,194.643c-1.058,7.376-2.625,17.013-2.625,17.013H417.44l4.182-23.074,1.029-5.732s14.758,3.49,15.383,3.49C438.313,186.34,437.861,190.061,437.208,194.643Z" transform="translate(-16.089 -6.095)" fill="#ffbc96"/>
    <path id="Caminho_81" data-name="Caminho 81" d="M437.375,194.643l-.788,1.73-14.806-7.791,1.029-5.732s14.758,3.49,15.383,3.49C438.481,186.34,438.029,190.061,437.375,194.643Z" transform="translate(-16.256 -6.095)" fill="#d28572"/>
    <path id="Caminho_82" data-name="Caminho 82" d="M433.9,188.732s2.827,16.588-2.606,32.741c0,0,26.921,8.284,52.313-2.185l-5.855-37.323,1.923-18.985-38.853.435-13.22,4.418Z" transform="translate(-16.48 -5.433)" fill="#1b1b43"/>
    <path id="Caminho_83" data-name="Caminho 83" d="M490.281,160.35A16.326,16.326,0,0,0,479.638,150.1l-7.3-2.214c-2.942,4.3-8.22,9.773-15.835,9.773-9,0-14.643-5.191-17.749-9.435l-5.038,1.237a14.781,14.781,0,0,0-10.874,11.1l-5.625,24.563,16.278,3.132.433-18.773,42.3-1.933,1.086,13.968s12.22-5.384,20.325.145Z" transform="translate(-16.08 -4.93)" fill="#1b1b43"/>
    <path id="Caminho_84" data-name="Caminho 84" d="M511.189,158.656c-2.346,4.611-5.49,24.592-6.942,40.155a25.634,25.634,0,0,1-3.932,12.093c-2.952,4.35-7.144,6.322-11.2,5.887a11.2,11.2,0,0,1-4.557-1.537c-6.98-4.166-6.086-21.953-5.307-29.967.24-2.407.471-3.934.471-3.934,4.125-2.281,10.634-2.62,10.634-2.62.087-.9.192-1.808.3-2.736.885-8.043,2.231-17.168,3.394-23.2,1.3-6.767,3.9-4.253,3.9-4.253,1.3-2.407,3.259-.338,3.259-.338,1.731-3.867,3.9-.213,3.9-.213,2.711-3.934,4.192,1.933,4.192,1.933s8.413-6.97,9.845-4.949C519.871,146,514.563,152.111,511.189,158.656Z" transform="translate(-18.451 -4.82)" fill="#ffbc96"/>
    <rect id="Retângulo_79" data-name="Retângulo 79" width="36.468" height="4.398" transform="translate(389.631 201.154)" fill="#fff"/>
    <path id="Caminho_85" data-name="Caminho 85" d="M419.23,211.415H381.608A4.642,4.642,0,0,1,377.4,208.7l-14.643-31.968a1.612,1.612,0,0,1,.1-1.542,1.594,1.594,0,0,1,1.349-.74H399.52a4.4,4.4,0,0,1,3.99,2.571Z" transform="translate(-13.975 -5.815)" fill="#5254cf"/>
    <path id="Caminho_86" data-name="Caminho 86" d="M432.753,212.481a18.638,18.638,0,0,1-1.923,4.708,12.928,12.928,0,0,1-10.22,6.4,25.16,25.16,0,0,1-5.769,0c-17.229-1.721-22.219-11.194-22.219-11.194s-1.923-4.031,2.154-3.1c0,0,.769-2.562,3.913.116,0,0-.375-3.171,2.711-.271,0,0-.433-3.219,2.932-.435a14.731,14.731,0,0,0,10.038,3.76C418.475,212.645,432.753,212.481,432.753,212.481Z" transform="translate(-15.115 -6.919)" fill="#ffbc96"/>
    <rect id="Retângulo_80" data-name="Retângulo 80" width="0.859" height="18.801" transform="translate(415.902 164.538) rotate(-3.33)" fill="#5254cf"/>
    <path id="Caminho_87" data-name="Caminho 87" d="M455.582,164.807a24.782,24.782,0,0,1-5.384-.59,21.1,21.1,0,0,1-8.288-3.731l.558-.667c.115.1,11.845,9.56,28.728-.619l.452.744a30.925,30.925,0,0,1-16.066,4.862Z" transform="translate(-17.032 -5.307)" fill="#5254cf"/>
    <rect id="Retângulo_81" data-name="Retângulo 81" width="0.862" height="8.612" transform="matrix(0.997, -0.076, 0.076, 0.997, 460.186, 168.003)" fill="#5254cf"/>
    <path id="Caminho_88" data-name="Caminho 88" d="M465.434,186.651a5.443,5.443,0,0,1-5.423-4.833l-.7-6.225,11.941-.793-.356,6.689a5.494,5.494,0,0,1-5.375,5.2Zm-5.153-10.285.587,5.307a4.594,4.594,0,0,0,9.163-.271l.3-5.7Z" transform="translate(-17.702 -5.827)" fill="#5254cf"/>
    <path id="Caminho_1150" data-name="Caminho 1150" d="M0,.017,22.154,0V.865L0,.882Z" transform="translate(468.282 195.827) rotate(-81.86)" fill="#d28572"/>
    <path id="Caminho_1151" data-name="Caminho 1151" d="M0,0H.657l0,3.663H0Z" transform="translate(486.338 143.252) rotate(-10.3)" fill="#d28572"/>
    <path id="Caminho_1152" data-name="Caminho 1152" d="M0,0H.657l0,3.663H0Z" transform="translate(482.43 143.353) rotate(-10.3)" fill="#d28572"/>
    <path id="Caminho_1153" data-name="Caminho 1153" d="M0,0H.657l0,3.663H0Z" transform="translate(479.176 143.577) rotate(-10.3)" fill="#d28572"/>
    <path id="Caminho_1154" data-name="Caminho 1154" d="M.01,0H.664L.654,5.815H0Z" transform="translate(489.638 142.886) rotate(-20.47)" fill="#d28572"/>
    <path id="Caminho_89" data-name="Caminho 89" d="M490.363,179.91l-11.153,6.525c.24-2.407.471-3.934.471-3.934C483.815,180.21,490.363,179.91,490.363,179.91Z" transform="translate(-18.469 -5.997)" fill="#d28572"/>
    <path id="Caminho_90" data-name="Caminho 90" d="M500.728,213.129c-2.952,4.35-7.144,6.322-11.2,5.887a5.458,5.458,0,0,1-.067-.889,6.726,6.726,0,0,1,11.268-5Z" transform="translate(-18.864 -7.045)" fill="#fe5b52" opacity="0.4"/>
    <path id="Caminho_91" data-name="Caminho 91" d="M431.98,217.485a12.928,12.928,0,0,1-10.22,6.4v-.628a6.773,6.773,0,0,1,3.429-5.929,6.7,6.7,0,0,1,6.82.129Z" transform="translate(-16.255 -7.215)" fill="#fe5b52" opacity="0.4"/>
    <path id="Caminho_92" data-name="Caminho 92" d="M406.1,213.758c-1.721-.338-3.846-3.006-4.586-4.408l.577-.3c.74,1.44,2.769,3.8,4.134,4.07Z" transform="translate(-15.475 -6.968)" fill="#d28572"/>
    <path id="Caminho_93" data-name="Caminho 93" d="M401.866,214.22a17.745,17.745,0,0,1-3.336-4.659l.6-.261a16.971,16.971,0,0,0,3.2,4.466Z" transform="translate(-15.36 -6.977)" fill="#d28572"/>
    <path id="Caminho_94" data-name="Caminho 94" d="M397.726,214.11a17.842,17.842,0,0,1-3.336-4.669l.6-.251a17,17,0,0,0,3.211,4.456Z" transform="translate(-15.2 -6.973)" fill="#d28572"/>
    <path id="Caminho_95" data-name="Caminho 95" d="M473.2,147.022c-2.942,4.3-8.22,9.773-15.835,9.773-8.99,0-14.633-5.191-17.749-9.435l9.288-2.281c.221-1.672.413-3.306.567-4.833.125-1.208.231-2.368.327-3.47.154-1.808.26-3.441.346-4.833.115-1.933.163-3.354.192-4.157v-.706l13.018-5.239s-.433,17.023,3.471,23.268Z" transform="translate(-16.943 -4.061)" fill="#ffbc96"/>
    <path id="Caminho_96" data-name="Caminho 96" d="M461.09,133.73s-3.48,4.1-11.22,6.854c.125-1.208.231-2.368.327-3.47.154-1.808.26-3.441.346-4.833Z" transform="translate(-17.339 -4.409)" fill="#d28572"/>
    <path id="Caminho_97" data-name="Caminho 97" d="M447.025,110.8s-6.653,18.183-1.923,21.528c4.25,2.977,9.845,3.345,15.383,1.933l3.615-12.364-2.173-12.083Z" transform="translate(-17.089 -3.66)" fill="#ffbc96"/>
    <path id="Caminho_98" data-name="Caminho 98" d="M462.391,121.93s-4.7,1.808-6.653-4.833c-1.6-5.384-8.538-6.4-8.538-6.4l2.817-2.62,13.393-.367,4.913,6.042-1.663,7.859Z" transform="translate(-17.236 -3.59)" fill="#1b1b43"/>
    <path id="Caminho_1155" data-name="Caminho 1155" d="M5.532,0c3.05-.007,5.517,1.935,5.512,4.339S8.561,8.7,5.512,8.7-.006,6.768,0,4.365,2.482.007,5.532,0Z" transform="translate(440.912 122.542) rotate(-60)" fill="#ffbc96"/>
    <path id="Caminho_99" data-name="Caminho 99" d="M463.754,126.362h-.644s.077-4.108,4.1-4.572l.077.648a3.965,3.965,0,0,0-3.529,3.925Z" transform="translate(-17.849 -4.06)" fill="#1b1b43"/>
    <ellipse id="Elipse_14" data-name="Elipse 14" cx="0.74" cy="0.744" rx="0.74" ry="0.744" transform="translate(428.311 115.207)" fill="#1b1b43"/>
    <path id="Caminho_100" data-name="Caminho 100" d="M452.208,120.969a.894.894,0,1,1-.894-.9A.906.906,0,0,1,452.208,120.969Z" transform="translate(-17.36 -4.002)" fill="#1b1b43"/>
    <path id="Caminho_101" data-name="Caminho 101" d="M447.828,118.151h-2.221a.569.569,0,0,1-.567-.561h0a.569.569,0,0,1,.567-.57h2.221a.556.556,0,0,1,.4.168.562.562,0,0,1,.16.4h0a.559.559,0,0,1-.558.561Z" transform="translate(-17.152 -3.901)" fill="#1b1b43"/>
    <path id="Caminho_102" data-name="Caminho 102" d="M453.618,119.736l-2.452-1.044a.571.571,0,0,1-.308-.744h0a.557.557,0,0,1,.74-.3l2.452,1.044a.571.571,0,0,1,.308.744h0a.566.566,0,0,1-.74.3Z" transform="translate(-17.375 -3.92)" fill="#1b1b43"/>
    <path id="Caminho_103" data-name="Caminho 103" d="M445.865,125.635a.327.327,0,0,1-.3-.2,2.447,2.447,0,0,1,0-2.426,1.985,1.985,0,0,1,1.577-.648l.836-1.614a.317.317,0,0,1,.433-.145.339.339,0,0,1,.144.445l-1.029,2h-.221s-.865-.087-1.221.387-.212.967.115,1.779a.329.329,0,0,1-.173.435Z" transform="translate(-17.16 -4.019)" fill="#1b1b43"/>
    <path id="Caminho_104" data-name="Caminho 104" d="M446.05,128.75c1.259,1.788,2.884,1.025,3.942.116a23.05,23.05,0,0,1-3.942-.116Z" transform="translate(-17.191 -4.292)" fill="#1b1b43"/>
    <path id="Caminho_105" data-name="Caminho 105" d="M449.968,128.823a8.508,8.508,0,0,0,1.221-1.276h0a34.913,34.913,0,0,1-5.769-.077h0a5.617,5.617,0,0,0,.654,1.237,23.047,23.047,0,0,0,3.894.116Z" transform="translate(-17.167 -4.249)" fill="#fff"/>
    <path id="Caminho_106" data-name="Caminho 106" d="M457.928,125.091a2.269,2.269,0,1,1-2.269-2.281A2.275,2.275,0,0,1,457.928,125.091Z" transform="translate(-17.474 -4.094)" fill="#fe5b52" opacity="0.4"/>
  </g>
  <path id="Caminho_1743" data-name="Caminho 1743" d="M0,0H580V.87H0Z" transform="translate(0 420.094)" fill="#1b1b43"/>
</svg>
